SplineFontDB: 3.0
FontName: Strobrod-Regular
FullName: Strobrod
FamilyName: Strobrod
Weight: Book
Copyright: CC, Aaron Christianson, Nicolas Mercier
UComments: "2017-3-27: Created with FontForge (http://fontforge.org)"
Version: 001.000
StrokeWidth: 600
ItalicAngle: 0
UnderlinePosition: -100
UnderlineWidth: 0
Ascent: 800
Descent: 700
InvalidEm: 0
LayerCount: 2
Layer: 0 0 "Back" 1
Layer: 1 0 "Fore" 0
StrokedFont: 1
HasVMetrics: 1
XUID: [1021 68 1269985762 15680502]
StyleMap: 0x0040
FSType: 0
OS2Version: 3
OS2_WeightWidthSlopeOnly: 0
OS2_UseTypoMetrics: 1
CreationTime: 1490615230
ModificationTime: 1495887273
PfmFamily: 49
TTFWeight: 400
TTFWidth: 5
LineGap: -500
VLineGap: 0
Panose: 2 11 5 9 0 0 0 0 0 0
OS2TypoAscent: 800
OS2TypoAOffset: 0
OS2TypoDescent: -200
OS2TypoDOffset: 0
OS2TypoLinegap: 0
OS2WinAscent: 800
OS2WinAOffset: 0
OS2WinDescent: 200
OS2WinDOffset: 0
HheadAscent: 800
HheadAOffset: 0
HheadDescent: -200
HheadDOffset: 0
OS2Vendor: 'PfEd'
MarkAttachClasses: 1
DEI: 91125
LangName: 1033
GaspTable: 3 0 1 10 1 65535 0 1
DesignSize: 100
Encoding: iso8859-15
UnicodeInterp: none
NameList: AGL For New Fonts
DisplaySize: 10
AntiAlias: 1
FitToEm: 0
WinInfo: 0 61 19
BeginPrivate: 0
EndPrivate
TeXData: 1 10485760 0 524288 262144 174762 524288 1048576 174762 783286 444596 497025 792723 393216 433062 380633 303038 157286 324010 404750 52429 2506097 1059062 262144
BeginChars: 546 546

StartChar: exclam
Encoding: 33 33 1
Width: 599
VWidth: 0
Flags: W
HStem: 0 100<312 418> 600 0G<312 418>
VStem: 301 100<0 104 209 625>
LayerCount: 2
Back
SplineSet
312.5 625 m 29
 416.69921875 625 l 25
 416.69921875 208.30078125 l 25
 312.5 208.30078125 l 25
 312.5 625 l 29
312.5 104.19921875 m 25
 416.69921875 104.19921875 l 25
 416.69921875 0 l 25
 312.5 0 l 25
 312.5 104.19921875 l 25
EndSplineSet
Fore
SplineSet
301 600 m 25
 400 600 l 25
 400 201 l 25
 301 201 l 25
 301 600 l 25
301 100 m 25
 400 100 l 25
 400 0 l 25
 301 0 l 25
 301 100 l 25
EndSplineSet
EndChar

StartChar: quotedbl
Encoding: 34 34 2
Width: 599
VWidth: 0
Flags: W
HStem: 500 201<209 312 418 521>
VStem: 201 100<521 729> 400 100<521 729>
LayerCount: 2
Back
SplineSet
416.69921875 729.19921875 m 29
 520.80078125 729.19921875 l 25
 520.80078125 520.80078125 l 25
 416.69921875 520.80078125 l 25
 416.69921875 729.19921875 l 29
208.30078125 729.19921875 m 25
 312.5 729.19921875 l 25
 312.5 520.80078125 l 25
 208.30078125 520.80078125 l 25
 208.30078125 729.19921875 l 25
EndSplineSet
Fore
SplineSet
400 700 m 25
 500 700 l 25
 500 500 l 25
 400 500 l 25
 400 700 l 25
201 700 m 25
 301 700 l 25
 301 500 l 25
 201 500 l 25
 201 700 l 25
EndSplineSet
EndChar

StartChar: numbersign
Encoding: 35 35 3
Width: 599
VWidth: 0
Flags: W
HStem: 201 100<104 209 312 418 521 625> 400 100<104 209 312 418 521 625> 600 0G<209 312 418 521>
VStem: 201 100<104 209 312 418 521 625> 400 100<104 209 312 418 521 625>
LayerCount: 2
Back
SplineSet
312.5 416.69921875 m 29
 312.5 312.5 l 25
 416.69921875 312.5 l 25
 416.69921875 416.69921875 l 25
 312.5 416.69921875 l 29
104.19921875 520.80078125 m 25
 208.30078125 520.80078125 l 25
 208.30078125 625 l 25
 312.5 625 l 25
 312.5 520.80078125 l 25
 416.69921875 520.80078125 l 25
 416.69921875 625 l 25
 520.80078125 625 l 25
 520.80078125 520.80078125 l 25
 625 520.80078125 l 25
 625 416.69921875 l 25
 520.80078125 416.69921875 l 25
 520.80078125 312.5 l 25
 625 312.5 l 25
 625 208.30078125 l 25
 520.80078125 208.30078125 l 25
 520.80078125 104.19921875 l 25
 416.69921875 104.19921875 l 25
 416.69921875 208.30078125 l 25
 312.5 208.30078125 l 25
 312.5 104.19921875 l 25
 208.30078125 104.19921875 l 25
 208.30078125 208.30078125 l 25
 104.19921875 208.30078125 l 25
 104.19921875 312.5 l 25
 208.30078125 312.5 l 25
 208.30078125 416.69921875 l 25
 104.19921875 416.69921875 l 25
 104.19921875 520.80078125 l 25
EndSplineSet
Fore
SplineSet
301 400 m 25
 301 301 l 25
 400 301 l 25
 400 400 l 25
 301 400 l 25
100 500 m 25
 201 500 l 25
 201 600 l 25
 301 600 l 25
 301 500 l 25
 400 500 l 25
 400 600 l 25
 500 600 l 25
 500 500 l 25
 600 500 l 25
 600 400 l 25
 500 400 l 25
 500 301 l 25
 600 301 l 25
 600 201 l 25
 500 201 l 25
 500 100 l 25
 400 100 l 25
 400 201 l 25
 301 201 l 25
 301 100 l 25
 201 100 l 25
 201 201 l 25
 100 201 l 25
 100 301 l 25
 201 301 l 25
 201 400 l 25
 100 400 l 25
 100 500 l 25
EndSplineSet
EndChar

StartChar: dollar
Encoding: 36 36 4
Width: 599
VWidth: 0
Flags: W
HStem: -100 0G<312 418> 0 100<104 312 418 521> 100 100<521 625> 201 100<209 521> 301 100<104 209> 400 100<209 312 418 625> 600 0G<312 418>
VStem: 100 100<312 418> 301 100<-104 0 521 625> 500 100<104 209>
CounterMasks: 1 01c0
LayerCount: 2
Back
SplineSet
104.19921875 104.19921875 m 29
 520.80078125 104.19921875 l 25
 520.80078125 0 l 25
 416.69921875 0 l 25
 416.69921875 -104.19921875 l 25
 312.5 -104.19921875 l 25
 312.5 0 l 25
 104.19921875 0 l 25
 104.19921875 104.19921875 l 29
520.80078125 208.30078125 m 25
 625 208.30078125 l 25
 625 104.19921875 l 25
 520.80078125 104.19921875 l 25
 520.80078125 208.30078125 l 25
208.30078125 312.5 m 25
 520.80078125 312.5 l 25
 520.80078125 208.30078125 l 25
 208.30078125 208.30078125 l 25
 208.30078125 312.5 l 25
104.19921875 416.69921875 m 25
 208.30078125 416.69921875 l 25
 208.30078125 312.5 l 25
 104.19921875 312.5 l 25
 104.19921875 416.69921875 l 25
208.30078125 520.80078125 m 25
 312.5 520.80078125 l 25
 312.5 625 l 25
 416.69921875 625 l 25
 416.69921875 520.80078125 l 25
 625 520.80078125 l 25
 625 416.69921875 l 25
 208.30078125 416.69921875 l 25
 208.30078125 520.80078125 l 25
EndSplineSet
Fore
SplineSet
100 100 m 25xc3c0
 500 100 l 25
 500 0 l 25
 400 0 l 25
 400 -100 l 25
 301 -100 l 25
 301 0 l 25
 100 0 l 25
 100 100 l 25xc3c0
500 201 m 25xa3c0
 600 201 l 25
 600 100 l 25xa3c0
 500 100 l 25xc3c0
 500 201 l 25xa3c0
201 301 m 25x93c0
 500 301 l 25x93c0
 500 201 l 25xa3c0
 201 201 l 25
 201 301 l 25x93c0
100 400 m 25x8bc0
 201 400 l 25x8bc0
 201 301 l 25x93c0
 100 301 l 25
 100 400 l 25x8bc0
201 500 m 25x87c0
 301 500 l 25
 301 600 l 25
 400 600 l 25
 400 500 l 25
 600 500 l 25
 600 400 l 25x87c0
 201 400 l 25x8bc0
 201 500 l 25x87c0
EndSplineSet
EndChar

StartChar: percent
Encoding: 37 37 5
Width: 599
VWidth: 0
Flags: W
HStem: 100 100<104 209 418 521> 201 100<209 312> 301 100<312 418> 400 100<104 209 418 521>
VStem: 100 100<104 209 418 521> 201 100<209 312> 301 100<312 418> 400 100<104 209 418 521>
LayerCount: 2
Back
SplineSet
416.69921875 208.30078125 m 29
 520.80078125 208.30078125 l 25
 520.80078125 104.19921875 l 25
 416.69921875 104.19921875 l 25
 416.69921875 208.30078125 l 29
104.19921875 208.30078125 m 25
 208.30078125 208.30078125 l 25
 208.30078125 312.5 l 25
 312.5 312.5 l 25
 312.5 416.69921875 l 25
 416.69921875 416.69921875 l 25
 416.69921875 520.80078125 l 25
 520.80078125 520.80078125 l 25
 520.80078125 416.69921875 l 25
 416.69921875 416.69921875 l 25
 416.69921875 312.5 l 25
 312.5 312.5 l 25
 312.5 208.30078125 l 25
 208.30078125 208.30078125 l 25
 208.30078125 104.19921875 l 25
 104.19921875 104.19921875 l 25
 104.19921875 208.30078125 l 25
104.19921875 520.80078125 m 25
 208.30078125 520.80078125 l 25
 208.30078125 416.69921875 l 25
 104.19921875 416.69921875 l 25
 104.19921875 520.80078125 l 25
EndSplineSet
Fore
SplineSet
400 201 m 25x81
 500 201 l 25
 500 100 l 25
 400 100 l 25
 400 201 l 25x81
100 201 m 25x88
 201 201 l 25x88
 201 301 l 25
 301 301 l 25x44
 301 400 l 25
 400 400 l 25x22
 400 500 l 25
 500 500 l 25
 500 400 l 25x11
 400 400 l 25
 400 301 l 25x22
 301 301 l 25
 301 201 l 25x44
 201 201 l 25
 201 100 l 25
 100 100 l 25
 100 201 l 25x88
100 500 m 25x18
 201 500 l 25
 201 400 l 25
 100 400 l 25
 100 500 l 25x18
EndSplineSet
EndChar

StartChar: ampersand
Encoding: 38 38 6
Width: 599
VWidth: 0
Flags: W
HStem: 0 100<209 418 521 625> 100 201<104 209 418 521> 301 100<312 418 521 625> 600 100<312 521>
VStem: 100 100<104 312> 201 201<0 104 312 418> 201 100<418 625> 400 100<104 312> 500 100<0 104 312 418>
LayerCount: 2
Back
SplineSet
208.30078125 312.5 m 29
 208.30078125 104.19921875 l 25
 416.69921875 104.19921875 l 25
 416.69921875 312.5 l 25
 208.30078125 312.5 l 29
104.19921875 312.5 m 25
 208.30078125 312.5 l 25
 208.30078125 625 l 25
 312.5 625 l 25
 312.5 729.19921875 l 25
 520.80078125 729.19921875 l 25
 520.80078125 625 l 25
 312.5 625 l 25
 312.5 416.69921875 l 25
 416.69921875 416.69921875 l 25
 416.69921875 312.5 l 25
 520.80078125 312.5 l 25
 520.80078125 416.69921875 l 25
 625 416.69921875 l 25
 625 312.5 l 25
 520.80078125 312.5 l 25
 520.80078125 104.19921875 l 25
 625 104.19921875 l 25
 625 0 l 25
 520.80078125 0 l 25
 520.80078125 104.19921875 l 25
 416.69921875 104.19921875 l 25
 416.69921875 0 l 25
 208.30078125 0 l 25
 208.30078125 104.19921875 l 25
 104.19921875 104.19921875 l 25
 104.19921875 312.5 l 25
EndSplineSet
Fore
SplineSet
201 301 m 25x58
 201 100 l 25x98
 400 100 l 25x94
 400 301 l 25x54
 201 301 l 25x58
100 301 m 25x58
 201 301 l 25x58
 201 600 l 25
 301 600 l 25
 301 700 l 25
 500 700 l 25
 500 600 l 25
 301 600 l 25
 301 400 l 25x3280
 400 400 l 25x34
 400 301 l 25x54
 500 301 l 25x51
 500 400 l 25
 600 400 l 25
 600 301 l 25x3080
 500 301 l 25x51
 500 100 l 25x91
 600 100 l 25
 600 0 l 25
 500 0 l 25x9080
 500 100 l 25x91
 400 100 l 25
 400 0 l 25
 201 0 l 25x94
 201 100 l 25x98
 100 100 l 25
 100 301 l 25x58
EndSplineSet
EndChar

StartChar: quotesingle
Encoding: 39 39 7
Width: 599
VWidth: 0
Flags: W
HStem: 500 201<209 312>
VStem: 201 100<521 729>
LayerCount: 2
Back
SplineSet
208.30078125 729.19921875 m 29
 312.5 729.19921875 l 25
 312.5 520.80078125 l 25
 208.30078125 520.80078125 l 25
 208.30078125 729.19921875 l 29
EndSplineSet
Fore
SplineSet
201 700 m 25
 301 700 l 25
 301 500 l 25
 201 500 l 25
 201 700 l 25
EndSplineSet
EndChar

StartChar: parenleft
Encoding: 40 40 8
Width: 599
VWidth: 0
Flags: W
HStem: -100 100<312 418> 600 100<312 418>
VStem: 201 100<0 625> 301 100<-104 0 625 729>
LayerCount: 2
Back
SplineSet
208.30078125 625 m 29
 312.5 625 l 25
 312.5 729.19921875 l 25
 416.69921875 729.19921875 l 25
 416.69921875 625 l 25
 312.5 625 l 25
 312.5 0 l 25
 416.69921875 0 l 25
 416.69921875 -104.19921875 l 25
 312.5 -104.19921875 l 25
 312.5 0 l 25
 208.30078125 0 l 25
 208.30078125 625 l 29
EndSplineSet
Fore
SplineSet
201 600 m 25xe0
 301 600 l 25xe0
 301 700 l 25
 400 700 l 25
 400 600 l 25xd0
 301 600 l 25
 301 0 l 25xe0
 400 0 l 25
 400 -100 l 25
 301 -100 l 25xd0
 301 0 l 25
 201 0 l 25
 201 600 l 25xe0
EndSplineSet
EndChar

StartChar: parenright
Encoding: 41 41 9
Width: 599
VWidth: 0
Flags: W
HStem: -100 100<209 312> 600 100<209 312>
VStem: 201 100<-104 0 625 729> 301 100<0 625>
LayerCount: 2
Back
SplineSet
208.30078125 729.19921875 m 29
 312.5 729.19921875 l 25
 312.5 625 l 25
 416.69921875 625 l 25
 416.69921875 0 l 25
 312.5 0 l 25
 312.5 -104.19921875 l 25
 208.30078125 -104.19921875 l 25
 208.30078125 0 l 25
 312.5 0 l 25
 312.5 625 l 25
 208.30078125 625 l 25
 208.30078125 729.19921875 l 29
EndSplineSet
Fore
SplineSet
201 700 m 25xe0
 301 700 l 25
 301 600 l 25xe0
 400 600 l 25
 400 0 l 25xd0
 301 0 l 25
 301 -100 l 25
 201 -100 l 25
 201 0 l 25
 301 0 l 25
 301 600 l 25
 201 600 l 25
 201 700 l 25xe0
EndSplineSet
EndChar

StartChar: asterisk
Encoding: 42 42 10
Width: 599
VWidth: 0
Flags: W
HStem: 0 0G<312 418> 100 100<104 209 521 625> 201 100<209 312 418 521> 301 100<104 209 521 625> 500 0G<312 418>
VStem: 100 100<104 209 312 418> 301 100<0 209 312 521> 500 100<104 209 312 418>
CounterMasks: 1 07
LayerCount: 2
Back
SplineSet
104.19921875 416.69921875 m 29
 208.30078125 416.69921875 l 25
 208.30078125 312.5 l 25
 312.5 312.5 l 25
 312.5 520.80078125 l 25
 416.69921875 520.80078125 l 25
 416.69921875 312.5 l 25
 520.80078125 312.5 l 25
 520.80078125 416.69921875 l 25
 625 416.69921875 l 25
 625 312.5 l 25
 520.80078125 312.5 l 25
 520.80078125 208.30078125 l 25
 625 208.30078125 l 25
 625 104.19921875 l 25
 520.80078125 104.19921875 l 25
 520.80078125 208.30078125 l 25
 416.69921875 208.30078125 l 25
 416.69921875 0 l 25
 312.5 0 l 25
 312.5 208.30078125 l 25
 208.30078125 208.30078125 l 25
 208.30078125 104.19921875 l 25
 104.19921875 104.19921875 l 25
 104.19921875 208.30078125 l 25
 208.30078125 208.30078125 l 25
 208.30078125 312.5 l 25
 104.19921875 312.5 l 25
 104.19921875 416.69921875 l 29
EndSplineSet
Fore
SplineSet
100 400 m 25x9f
 201 400 l 25x9f
 201 301 l 25
 301 301 l 25
 301 500 l 25
 400 500 l 25
 400 301 l 25
 500 301 l 25xaf
 500 400 l 25
 600 400 l 25
 600 301 l 25x9f
 500 301 l 25xaf
 500 201 l 25
 600 201 l 25
 600 100 l 25
 500 100 l 25
 500 201 l 25xcf
 400 201 l 25
 400 0 l 25
 301 0 l 25
 301 201 l 25xaf
 201 201 l 25
 201 100 l 25
 100 100 l 25
 100 201 l 25
 201 201 l 25xcf
 201 301 l 25xaf
 100 301 l 25
 100 400 l 25x9f
EndSplineSet
EndChar

StartChar: plus
Encoding: 43 43 11
Width: 599
VWidth: 0
Flags: W
HStem: 0 0G<312 418> 201 100<104 312 418 625> 500 0G<312 418>
VStem: 301 100<0 209 312 521>
LayerCount: 2
Back
SplineSet
104.19921875 312.5 m 29
 312.5 312.5 l 25
 312.5 520.80078125 l 25
 416.69921875 520.80078125 l 25
 416.69921875 312.5 l 25
 625 312.5 l 25
 625 208.30078125 l 25
 416.69921875 208.30078125 l 25
 416.69921875 0 l 25
 312.5 0 l 25
 312.5 208.30078125 l 25
 104.19921875 208.30078125 l 25
 104.19921875 312.5 l 29
EndSplineSet
Fore
SplineSet
100 301 m 25
 301 301 l 25
 301 500 l 25
 400 500 l 25
 400 301 l 25
 600 301 l 25
 600 201 l 25
 400 201 l 25
 400 0 l 25
 301 0 l 25
 301 201 l 25
 100 201 l 25
 100 301 l 25
EndSplineSet
EndChar

StartChar: comma
Encoding: 44 44 12
Width: 599
VWidth: 0
Flags: W
HStem: -100 100<209 312>
VStem: 201 100<-104 0> 301 100<0 209>
LayerCount: 2
Back
SplineSet
208.30078125 0 m 29
 312.5 0 l 25
 312.5 208.30078125 l 25
 416.69921875 208.30078125 l 25
 416.69921875 0 l 25
 312.5 0 l 25
 312.5 -104.19921875 l 25
 208.30078125 -104.19921875 l 25
 208.30078125 0 l 29
EndSplineSet
Fore
SplineSet
201 0 m 25xc0
 301 0 l 25xc0
 301 201 l 25
 400 201 l 25
 400 0 l 25xa0
 301 0 l 25
 301 -100 l 25
 201 -100 l 25
 201 0 l 25xc0
EndSplineSet
EndChar

StartChar: hyphen
Encoding: 45 45 13
Width: 599
VWidth: 0
Flags: W
HStem: 201 100<104 625>
LayerCount: 2
Back
SplineSet
104.19921875 312.5 m 29
 625 312.5 l 25
 625 208.30078125 l 25
 104.19921875 208.30078125 l 25
 104.19921875 312.5 l 29
EndSplineSet
Fore
SplineSet
100 301 m 25
 600 301 l 25
 600 201 l 25
 100 201 l 25
 100 301 l 25
EndSplineSet
EndChar

StartChar: period
Encoding: 46 46 14
Width: 599
VWidth: 0
Flags: W
HStem: 0 201<209 418>
VStem: 201 201<0 209>
LayerCount: 2
Back
SplineSet
208.30078125 208.30078125 m 29
 416.69921875 208.30078125 l 25
 416.69921875 0 l 25
 208.30078125 0 l 25
 208.30078125 208.30078125 l 29
EndSplineSet
Fore
SplineSet
201 201 m 25
 400 201 l 25
 400 0 l 25
 201 0 l 25
 201 201 l 25
EndSplineSet
EndChar

StartChar: slash
Encoding: 47 47 15
Width: 599
VWidth: 0
Flags: W
HStem: -100 0G<104 209> 700 0G<418 521>
VStem: 100 100<-104 104> 201 100<104 312> 301 100<312 521> 400 100<521 729>
LayerCount: 2
Back
SplineSet
104.19921875 104.19921875 m 29
 208.30078125 104.19921875 l 25
 208.30078125 312.5 l 25
 312.5 312.5 l 25
 312.5 520.80078125 l 25
 416.69921875 520.80078125 l 25
 416.69921875 729.19921875 l 25
 520.80078125 729.19921875 l 25
 520.80078125 520.80078125 l 25
 416.69921875 520.80078125 l 25
 416.69921875 312.5 l 25
 312.5 312.5 l 25
 312.5 104.19921875 l 25
 208.30078125 104.19921875 l 25
 208.30078125 -104.19921875 l 25
 104.19921875 -104.19921875 l 25
 104.19921875 104.19921875 l 29
EndSplineSet
Fore
SplineSet
100 100 m 25xe0
 201 100 l 25xe0
 201 301 l 25
 301 301 l 25xd0
 301 500 l 25
 400 500 l 25xc8
 400 700 l 25
 500 700 l 25
 500 500 l 25xc4
 400 500 l 25
 400 301 l 25xc8
 301 301 l 25
 301 100 l 25xd0
 201 100 l 25
 201 -100 l 25
 100 -100 l 25
 100 100 l 25xe0
EndSplineSet
EndChar

StartChar: zero
Encoding: 48 48 16
Width: 599
VWidth: 0
Flags: W
HStem: 0 100<209 418> 201 100<209 312> 301 100<312 418> 500 100<209 418>
VStem: 100 100<104 209 312 521> 201 201<0 104 521 625> 400 100<104 312 418 521>
LayerCount: 2
Back
SplineSet
312.5 312.5 m 29
 312.5 208.30078125 l 25
 208.30078125 208.30078125 l 25
 208.30078125 104.19921875 l 25
 416.69921875 104.19921875 l 25
 416.69921875 312.5 l 25
 312.5 312.5 l 29
208.30078125 520.80078125 m 25
 208.30078125 312.5 l 25
 312.5 312.5 l 25
 312.5 416.69921875 l 25
 416.69921875 416.69921875 l 25
 416.69921875 520.80078125 l 25
 208.30078125 520.80078125 l 25
104.19921875 520.80078125 m 25
 208.30078125 520.80078125 l 25
 208.30078125 625 l 25
 416.69921875 625 l 25
 416.69921875 520.80078125 l 25
 520.80078125 520.80078125 l 25
 520.80078125 104.19921875 l 25
 416.69921875 104.19921875 l 25
 416.69921875 0 l 25
 208.30078125 0 l 25
 208.30078125 104.19921875 l 25
 104.19921875 104.19921875 l 25
 104.19921875 520.80078125 l 25
EndSplineSet
Fore
SplineSet
301 301 m 25xd2
 301 201 l 25
 201 201 l 25
 201 100 l 25xda
 400 100 l 25xd4
 400 301 l 25xb2
 301 301 l 25xd2
201 500 m 25
 201 301 l 25
 301 301 l 25xd8
 301 400 l 25
 400 400 l 25xba
 400 500 l 25xb4
 201 500 l 25
100 500 m 25
 201 500 l 25x98
 201 600 l 25
 400 600 l 25
 400 500 l 25x94
 500 500 l 25
 500 100 l 25x92
 400 100 l 25
 400 0 l 25
 201 0 l 25x94
 201 100 l 25
 100 100 l 25
 100 500 l 25
EndSplineSet
EndChar

StartChar: one
Encoding: 49 49 17
Width: 599
VWidth: 0
Flags: W
HStem: 0 0G<312 418> 400 100<209 312> 600 0G<312 418>
VStem: 301 100<0 418 521 625>
LayerCount: 2
Back
SplineSet
208.30078125 520.80078125 m 29
 312.5 520.80078125 l 25
 312.5 625 l 25
 416.69921875 625 l 25
 416.69921875 0 l 25
 312.5 0 l 25
 312.5 416.69921875 l 25
 208.30078125 416.69921875 l 25
 208.30078125 520.80078125 l 29
EndSplineSet
Fore
SplineSet
201 500 m 25
 301 500 l 25
 301 600 l 25
 400 600 l 25
 400 0 l 25
 301 0 l 25
 301 400 l 25
 201 400 l 25
 201 500 l 25
EndSplineSet
EndChar

StartChar: two
Encoding: 50 50 18
Width: 599
VWidth: 0
Flags: W
HStem: 0 100<104 209 312 521> 201 100<312 418> 400 100<104 209> 500 100<209 418>
VStem: 100 100<418 521> 201 100<104 209> 301 100<209 312> 400 100<312 521>
LayerCount: 2
Back
SplineSet
104.19921875 416.69921875 m 29
 104.19921875 520.80078125 l 25
 208.30078125 520.80078125 l 25
 208.30078125 625 l 25
 416.69921875 625 l 25
 416.69921875 520.80078125 l 25
 520.80078125 520.80078125 l 25
 520.80078125 312.5 l 25
 416.69921875 312.5 l 25
 416.69921875 208.30078125 l 25
 312.5 208.30078125 l 25
 312.5 104.19921875 l 25
 520.80078125 104.19921875 l 25
 520.80078125 0 l 25
 104.19921875 0 l 25
 104.19921875 104.19921875 l 25
 208.30078125 104.19921875 l 25
 208.30078125 208.30078125 l 25
 312.5 208.30078125 l 25
 312.5 312.5 l 25
 416.69921875 312.5 l 25
 416.69921875 416.69921875 l 25
 416.69921875 520.80078125 l 25
 208.30078125 520.80078125 l 25
 208.30078125 416.69921875 l 25
 104.19921875 416.69921875 l 29
EndSplineSet
Fore
SplineSet
100 400 m 25xe9
 100 500 l 25
 201 500 l 25xe9
 201 600 l 25
 400 600 l 25
 400 500 l 25
 500 500 l 25
 500 301 l 25xd5
 400 301 l 25
 400 201 l 25xd2
 301 201 l 25
 301 100 l 25xd4
 500 100 l 25
 500 0 l 25
 100 0 l 25
 100 100 l 25xd9
 201 100 l 25
 201 201 l 25
 301 201 l 25xd4
 301 301 l 25
 400 301 l 25xd2
 400 400 l 25xe1
 400 500 l 25xd1
 201 500 l 25
 201 400 l 25
 100 400 l 25xe9
EndSplineSet
EndChar

StartChar: three
Encoding: 51 51 19
Width: 599
VWidth: 0
Flags: W
HStem: 0 100<104 418> 301 100<209 418> 500 100<104 418>
VStem: 400 100<104 312 418 521>
LayerCount: 2
Back
SplineSet
104.19921875 625 m 29
 520.80078125 625 l 25
 520.80078125 416.69921875 l 25
 416.69921875 416.69921875 l 25
 416.69921875 312.5 l 25
 520.80078125 312.5 l 25
 520.80078125 104.19921875 l 25
 416.69921875 104.19921875 l 25
 416.69921875 0 l 25
 104.19921875 0 l 25
 104.19921875 104.19921875 l 25
 416.69921875 104.19921875 l 25
 416.69921875 312.5 l 25
 208.30078125 312.5 l 25
 208.30078125 416.69921875 l 25
 416.69921875 416.69921875 l 25
 416.69921875 520.80078125 l 25
 104.19921875 520.80078125 l 25
 104.19921875 625 l 29
EndSplineSet
Fore
SplineSet
100 600 m 25
 500 600 l 25
 500 400 l 25
 400 400 l 25
 400 301 l 25
 500 301 l 25
 500 100 l 25
 400 100 l 25
 400 0 l 25
 100 0 l 25
 100 100 l 25
 400 100 l 25
 400 301 l 25
 201 301 l 25
 201 400 l 25
 400 400 l 25
 400 500 l 25
 100 500 l 25
 100 600 l 25
EndSplineSet
EndChar

StartChar: four
Encoding: 52 52 20
Width: 599
VWidth: 0
Flags: W
HStem: 0 0G<418 521> 100 100<209 418> 301 100<209 312> 400 100<312 418> 600 0G<418 521>
VStem: 100 100<209 312> 201 100<312 418> 400 100<0 104 209 418 521 625>
LayerCount: 2
Back
SplineSet
208.30078125 312.5 m 29
 208.30078125 208.30078125 l 25
 416.69921875 208.30078125 l 25
 416.69921875 416.69921875 l 25
 312.5 416.69921875 l 25
 312.5 312.5 l 25
 208.30078125 312.5 l 29
104.19921875 312.5 m 25
 208.30078125 312.5 l 25
 208.30078125 416.69921875 l 25
 312.5 416.69921875 l 25
 312.5 520.80078125 l 25
 416.69921875 520.80078125 l 25
 416.69921875 625 l 25
 520.80078125 625 l 25
 520.80078125 0 l 25
 416.69921875 0 l 25
 416.69921875 104.19921875 l 25
 104.19921875 104.19921875 l 25
 104.19921875 312.5 l 25
EndSplineSet
Fore
SplineSet
201 301 m 25xed
 201 201 l 25
 400 201 l 25
 400 400 l 25xdd
 301 400 l 25
 301 301 l 25xeb
 201 301 l 25xed
100 301 m 25xed
 201 301 l 25xed
 201 400 l 25
 301 400 l 25xeb
 301 500 l 25
 400 500 l 25xdb
 400 600 l 25
 500 600 l 25
 500 0 l 25
 400 0 l 25
 400 100 l 25
 100 100 l 25
 100 301 l 25xed
EndSplineSet
EndChar

StartChar: five
Encoding: 53 53 21
Width: 599
VWidth: 0
Flags: W
HStem: 0 100<104 418> 301 100<209 418> 500 100<209 521>
VStem: 100 301<0 104 312 418> 100 100<418 521> 400 100<104 312>
LayerCount: 2
Back
SplineSet
104.19921875 625 m 29
 520.80078125 625 l 25
 520.80078125 520.80078125 l 25
 208.30078125 520.80078125 l 25
 208.30078125 416.69921875 l 25
 416.69921875 416.69921875 l 25
 416.69921875 312.5 l 25
 520.80078125 312.5 l 25
 520.80078125 104.19921875 l 25
 416.69921875 104.19921875 l 25
 416.69921875 0 l 25
 104.19921875 0 l 25
 104.19921875 104.19921875 l 25
 416.69921875 104.19921875 l 25
 416.69921875 312.5 l 25
 104.19921875 312.5 l 25
 104.19921875 625 l 29
EndSplineSet
Fore
SplineSet
100 600 m 25xe8
 500 600 l 25
 500 500 l 25
 201 500 l 25
 201 400 l 25xec
 400 400 l 25
 400 301 l 25xf0
 500 301 l 25
 500 100 l 25xe4
 400 100 l 25
 400 0 l 25
 100 0 l 25
 100 100 l 25
 400 100 l 25
 400 301 l 25
 100 301 l 25xf0
 100 600 l 25xe8
EndSplineSet
EndChar

StartChar: six
Encoding: 54 54 22
Width: 599
VWidth: 0
Flags: W
HStem: 0 100<209 418> 301 100<209 418> 500 100<209 418>
VStem: 100 100<104 312 418 521> 201 201<0 104 521 625> 400 100<104 312>
LayerCount: 2
Back
SplineSet
208.30078125 312.5 m 29
 208.30078125 104.19921875 l 25
 416.69921875 104.19921875 l 25
 416.69921875 312.5 l 25
 208.30078125 312.5 l 29
208.30078125 625 m 25
 416.69921875 625 l 25
 416.69921875 520.80078125 l 25
 208.30078125 520.80078125 l 25
 208.30078125 416.69921875 l 25
 416.69921875 416.69921875 l 25
 416.69921875 312.5 l 25
 520.80078125 312.5 l 25
 520.80078125 104.19921875 l 25
 416.69921875 104.19921875 l 25
 416.69921875 0 l 25
 208.30078125 0 l 25
 208.30078125 104.19921875 l 25
 104.19921875 104.19921875 l 25
 104.19921875 520.80078125 l 25
 208.30078125 520.80078125 l 25
 208.30078125 625 l 25
EndSplineSet
Fore
SplineSet
201 301 m 25xf4
 201 100 l 25xf4
 400 100 l 25xe8
 400 301 l 25
 201 301 l 25xf4
201 600 m 25xe8
 400 600 l 25
 400 500 l 25xe8
 201 500 l 25
 201 400 l 25
 400 400 l 25
 400 301 l 25
 500 301 l 25
 500 100 l 25xf4
 400 100 l 25
 400 0 l 25
 201 0 l 25xe8
 201 100 l 25
 100 100 l 25
 100 500 l 25
 201 500 l 25xf0
 201 600 l 25xe8
EndSplineSet
EndChar

StartChar: seven
Encoding: 55 55 23
Width: 599
VWidth: 0
Flags: W
HStem: 0 0G<209 312> 201 100<312 418> 500 100<104 418>
VStem: 201 100<0 209> 301 100<209 312> 400 100<312 521>
LayerCount: 2
Back
SplineSet
104.19921875 625 m 29
 520.80078125 625 l 25
 520.80078125 312.5 l 25
 416.69921875 312.5 l 25
 416.69921875 208.30078125 l 25
 312.5 208.30078125 l 25
 312.5 0 l 25
 208.30078125 0 l 25
 208.30078125 208.30078125 l 25
 312.5 208.30078125 l 25
 312.5 312.5 l 25
 416.69921875 312.5 l 25
 416.69921875 520.80078125 l 25
 104.19921875 520.80078125 l 25
 104.19921875 625 l 29
EndSplineSet
Fore
SplineSet
100 600 m 25xe4
 500 600 l 25
 500 301 l 25xe4
 400 301 l 25
 400 201 l 25xe8
 301 201 l 25
 301 0 l 25
 201 0 l 25
 201 201 l 25
 301 201 l 25xf0
 301 301 l 25
 400 301 l 25xe8
 400 500 l 25
 100 500 l 25
 100 600 l 25xe4
EndSplineSet
EndChar

StartChar: eight
Encoding: 56 56 24
Width: 599
VWidth: 0
Flags: W
HStem: 0 100<209 418> 100 201<104 209 418 521> 400 100<104 209 418 521> 500 100<209 418>
VStem: 100 100<104 312 418 521> 201 201<0 104 312 418 521 625> 400 100<104 312 418 521>
LayerCount: 2
Back
SplineSet
208.30078125 312.5 m 29
 208.30078125 104.19921875 l 25
 416.69921875 104.19921875 l 25
 416.69921875 312.5 l 25
 208.30078125 312.5 l 29
208.30078125 520.80078125 m 25
 208.30078125 416.69921875 l 25
 416.69921875 416.69921875 l 25
 416.69921875 520.80078125 l 25
 208.30078125 520.80078125 l 25
208.30078125 625 m 25
 416.69921875 625 l 25
 416.69921875 520.80078125 l 25
 520.80078125 520.80078125 l 25
 520.80078125 416.69921875 l 25
 416.69921875 416.69921875 l 25
 416.69921875 312.5 l 25
 520.80078125 312.5 l 25
 520.80078125 104.19921875 l 25
 416.69921875 104.19921875 l 25
 416.69921875 0 l 25
 208.30078125 0 l 25
 208.30078125 104.19921875 l 25
 104.19921875 104.19921875 l 25
 104.19921875 312.5 l 25
 208.30078125 312.5 l 25
 208.30078125 416.69921875 l 25
 104.19921875 416.69921875 l 25
 104.19921875 520.80078125 l 25
 208.30078125 520.80078125 l 25
 208.30078125 625 l 25
EndSplineSet
Fore
SplineSet
201 301 m 25x48
 201 100 l 25x88
 400 100 l 25x84
 400 301 l 25x44
 201 301 l 25x48
201 500 m 25x28
 201 400 l 25x28
 400 400 l 25
 400 500 l 25x24
 201 500 l 25x28
201 600 m 25x14
 400 600 l 25x14
 400 500 l 25x24
 500 500 l 25
 500 400 l 25x22
 400 400 l 25
 400 301 l 25x64
 500 301 l 25
 500 100 l 25x62
 400 100 l 25
 400 0 l 25
 201 0 l 25x84
 201 100 l 25x88
 100 100 l 25
 100 301 l 25
 201 301 l 25
 201 400 l 25
 100 400 l 25
 100 500 l 25
 201 500 l 25x68
 201 600 l 25x14
EndSplineSet
EndChar

StartChar: nine
Encoding: 57 57 25
Width: 599
VWidth: 0
Flags: W
HStem: 0 100<209 418> 201 100<209 418> 500 100<209 418>
VStem: 100 100<312 521> 201 201<0 104 521 625> 400 100<104 209 312 521>
LayerCount: 2
Back
SplineSet
208.30078125 520.80078125 m 29
 208.30078125 312.5 l 25
 416.69921875 312.5 l 25
 416.69921875 520.80078125 l 25
 208.30078125 520.80078125 l 29
208.30078125 625 m 25
 416.69921875 625 l 25
 416.69921875 520.80078125 l 25
 520.80078125 520.80078125 l 25
 520.80078125 104.19921875 l 25
 416.69921875 104.19921875 l 25
 416.69921875 0 l 25
 208.30078125 0 l 25
 208.30078125 104.19921875 l 25
 416.69921875 104.19921875 l 25
 416.69921875 208.30078125 l 25
 208.30078125 208.30078125 l 25
 208.30078125 312.5 l 25
 104.19921875 312.5 l 25
 104.19921875 520.80078125 l 25
 208.30078125 520.80078125 l 25
 208.30078125 625 l 25
EndSplineSet
Fore
SplineSet
201 500 m 25xf0
 201 301 l 25
 400 301 l 25xf4
 400 500 l 25xe8
 201 500 l 25xf0
201 600 m 25xe8
 400 600 l 25
 400 500 l 25xe8
 500 500 l 25
 500 100 l 25xe4
 400 100 l 25
 400 0 l 25
 201 0 l 25
 201 100 l 25
 400 100 l 25xe8
 400 201 l 25xe4
 201 201 l 25xe8
 201 301 l 25
 100 301 l 25
 100 500 l 25
 201 500 l 25xf0
 201 600 l 25xe8
EndSplineSet
EndChar

StartChar: colon
Encoding: 58 58 26
Width: 599
VWidth: 0
Flags: W
HStem: 100 100<209 312> 301 100<209 312>
VStem: 201 100<104 209 312 418>
LayerCount: 2
Back
SplineSet
208.30078125 208.30078125 m 29
 312.5 208.30078125 l 25
 312.5 104.19921875 l 25
 208.30078125 104.19921875 l 25
 208.30078125 208.30078125 l 29
208.30078125 416.69921875 m 25
 312.5 416.69921875 l 25
 312.5 312.5 l 25
 208.30078125 312.5 l 25
 208.30078125 416.69921875 l 25
EndSplineSet
Fore
SplineSet
201 201 m 25
 301 201 l 25
 301 100 l 25
 201 100 l 25
 201 201 l 25
201 400 m 25
 301 400 l 25
 301 301 l 25
 201 301 l 25
 201 400 l 25
EndSplineSet
EndChar

StartChar: semicolon
Encoding: 59 59 27
Width: 599
VWidth: 0
Flags: W
HStem: -100 100<209 312> 301 100<312 418>
VStem: 201 100<-104 0> 301 100<0 209 312 418>
LayerCount: 2
Back
SplineSet
312.5 208.30078125 m 29
 416.69921875 208.30078125 l 25
 416.69921875 0 l 25
 312.5 0 l 25
 312.5 -104.19921875 l 25
 208.30078125 -104.19921875 l 25
 208.30078125 0 l 25
 312.5 0 l 25
 312.5 208.30078125 l 29
312.5 416.69921875 m 25
 416.69921875 416.69921875 l 25
 416.69921875 312.5 l 25
 312.5 312.5 l 25
 312.5 416.69921875 l 25
EndSplineSet
Fore
SplineSet
301 201 m 25xd0
 400 201 l 25
 400 0 l 25xd0
 301 0 l 25
 301 -100 l 25
 201 -100 l 25
 201 0 l 25
 301 0 l 25xe0
 301 201 l 25xd0
301 400 m 25
 400 400 l 25
 400 301 l 25
 301 301 l 25
 301 400 l 25
EndSplineSet
EndChar

StartChar: less
Encoding: 60 60 28
Width: 599
VWidth: 0
Flags: W
HStem: 0 100<312 418> 100 100<209 312> 301 100<209 312> 400 100<312 418>
VStem: 100 100<209 312> 201 100<104 209 312 418> 301 100<0 104 418 521>
LayerCount: 2
Back
SplineSet
312.5 520.80078125 m 29
 416.69921875 520.80078125 l 25
 416.69921875 416.69921875 l 25
 312.5 416.69921875 l 25
 312.5 312.5 l 25
 208.30078125 312.5 l 25
 208.30078125 208.30078125 l 25
 312.5 208.30078125 l 25
 312.5 104.19921875 l 25
 416.69921875 104.19921875 l 25
 416.69921875 0 l 25
 312.5 0 l 25
 312.5 104.19921875 l 25
 208.30078125 104.19921875 l 25
 208.30078125 208.30078125 l 25
 104.19921875 208.30078125 l 25
 104.19921875 312.5 l 25
 208.30078125 312.5 l 25
 208.30078125 416.69921875 l 25
 312.5 416.69921875 l 25
 312.5 520.80078125 l 29
EndSplineSet
Fore
SplineSet
301 500 m 25x12
 400 500 l 25
 400 400 l 25x12
 301 400 l 25
 301 301 l 25x24
 201 301 l 25
 201 201 l 25x68
 301 201 l 25x64
 301 100 l 25x84
 400 100 l 25
 400 0 l 25
 301 0 l 25x82
 301 100 l 25x84
 201 100 l 25x44
 201 201 l 25
 100 201 l 25
 100 301 l 25
 201 301 l 25x68
 201 400 l 25
 301 400 l 25x64
 301 500 l 25x12
EndSplineSet
EndChar

StartChar: equal
Encoding: 61 61 29
Width: 599
VWidth: 0
Flags: W
HStem: 100 100<104 521> 301 100<104 521>
LayerCount: 2
Back
SplineSet
104.19921875 208.30078125 m 29
 520.80078125 208.30078125 l 25
 520.80078125 104.19921875 l 25
 104.19921875 104.19921875 l 25
 104.19921875 208.30078125 l 29
104.19921875 416.69921875 m 25
 520.80078125 416.69921875 l 25
 520.80078125 312.5 l 25
 104.19921875 312.5 l 25
 104.19921875 416.69921875 l 25
EndSplineSet
Fore
SplineSet
100 201 m 25
 500 201 l 25
 500 100 l 25
 100 100 l 25
 100 201 l 25
100 400 m 25
 500 400 l 25
 500 301 l 25
 100 301 l 25
 100 400 l 25
EndSplineSet
EndChar

StartChar: greater
Encoding: 62 62 30
Width: 599
VWidth: 0
Flags: W
HStem: 0 100<209 312> 100 100<312 418> 301 100<312 418> 400 100<209 312>
VStem: 201 100<0 104 418 521> 301 100<104 209 312 418> 400 100<209 312>
LayerCount: 2
Back
SplineSet
208.30078125 520.80078125 m 29
 312.5 520.80078125 l 25
 312.5 416.69921875 l 25
 416.69921875 416.69921875 l 25
 416.69921875 312.5 l 25
 520.80078125 312.5 l 25
 520.80078125 208.30078125 l 25
 416.69921875 208.30078125 l 25
 416.69921875 104.19921875 l 25
 312.5 104.19921875 l 25
 312.5 0 l 25
 208.30078125 0 l 25
 208.30078125 104.19921875 l 25
 312.5 104.19921875 l 25
 312.5 208.30078125 l 25
 416.69921875 208.30078125 l 25
 416.69921875 312.5 l 25
 312.5 312.5 l 25
 312.5 416.69921875 l 25
 208.30078125 416.69921875 l 25
 208.30078125 520.80078125 l 29
EndSplineSet
Fore
SplineSet
201 500 m 25x18
 301 500 l 25x18
 301 400 l 25x28
 400 400 l 25
 400 301 l 25x24
 500 301 l 25
 500 201 l 25x62
 400 201 l 25
 400 100 l 25x64
 301 100 l 25
 301 0 l 25
 201 0 l 25
 201 100 l 25
 301 100 l 25x88
 301 201 l 25
 400 201 l 25
 400 301 l 25
 301 301 l 25x64
 301 400 l 25x68
 201 400 l 25
 201 500 l 25x18
EndSplineSet
EndChar

StartChar: question
Encoding: 63 63 31
Width: 599
VWidth: 0
Flags: W
HStem: -100 100<209 312> 100 100<209 312> 201 100<312 418> 400 100<104 209> 500 100<209 418>
VStem: 100 100<418 521> 201 100<-104 0 104 209> 301 100<209 312> 400 100<312 521>
LayerCount: 2
Back
SplineSet
208.30078125 0 m 29
 312.5 0 l 25
 312.5 -104.19921875 l 25
 208.30078125 -104.19921875 l 25
 208.30078125 0 l 29
104.19921875 520.80078125 m 25
 208.30078125 520.80078125 l 25
 208.30078125 625 l 25
 416.69921875 625 l 25
 416.69921875 520.80078125 l 25
 520.80078125 520.80078125 l 25
 520.80078125 312.5 l 25
 416.69921875 312.5 l 25
 416.69921875 208.30078125 l 25
 312.5 208.30078125 l 25
 312.5 104.19921875 l 25
 208.30078125 104.19921875 l 25
 208.30078125 208.30078125 l 25
 312.5 208.30078125 l 25
 312.5 312.5 l 25
 416.69921875 312.5 l 25
 416.69921875 520.80078125 l 25
 208.30078125 520.80078125 l 25
 208.30078125 416.69921875 l 25
 104.19921875 416.69921875 l 25
 104.19921875 520.80078125 l 25
EndSplineSet
Fore
SplineSet
201 0 m 25x82
 301 0 l 25
 301 -100 l 25
 201 -100 l 25
 201 0 l 25x82
100 500 m 25x9480
 201 500 l 25x9480
 201 600 l 25
 400 600 l 25
 400 500 l 25
 500 500 l 25
 500 301 l 25xaa80
 400 301 l 25
 400 201 l 25xa9
 301 201 l 25
 301 100 l 25
 201 100 l 25
 201 201 l 25
 301 201 l 25xc2
 301 301 l 25
 400 301 l 25xa1
 400 500 l 25xa880
 201 500 l 25
 201 400 l 25
 100 400 l 25
 100 500 l 25x9480
EndSplineSet
EndChar

StartChar: at
Encoding: 64 64 32
Width: 599
VWidth: 0
Flags: W
HStem: -100 100<209 418> 100 100<312 418> 400 100<312 418> 600 100<209 418>
VStem: 100 201<209 418> 100 100<0 209 418 625> 201 201<-104 0 625 729> 301 201<104 209 418 521> 400 100<209 418 521 625>
LayerCount: 2
Back
SplineSet
208.30078125 625 m 29
 208.30078125 416.69921875 l 25
 312.5 416.69921875 l 25
 312.5 208.30078125 l 25
 416.69921875 208.30078125 l 25
 416.69921875 416.69921875 l 25
 312.5 416.69921875 l 25
 312.5 520.80078125 l 25
 416.69921875 520.80078125 l 25
 416.69921875 625 l 25
 208.30078125 625 l 29
104.19921875 625 m 25
 208.30078125 625 l 25
 208.30078125 729.19921875 l 25
 416.69921875 729.19921875 l 25
 416.69921875 625 l 25
 520.80078125 625 l 25
 520.80078125 104.19921875 l 25
 312.5 104.19921875 l 25
 312.5 208.30078125 l 25
 208.30078125 208.30078125 l 25
 208.30078125 0 l 25
 416.69921875 0 l 25
 416.69921875 -104.19921875 l 25
 208.30078125 -104.19921875 l 25
 208.30078125 0 l 25
 104.19921875 0 l 25
 104.19921875 625 l 25
EndSplineSet
Fore
SplineSet
201 600 m 25xf4
 201 400 l 25xf4
 301 400 l 25
 301 201 l 25
 400 201 l 25
 400 400 l 25
 301 400 l 25xf880
 301 500 l 25xf1
 400 500 l 25xf080
 400 600 l 25xf2
 201 600 l 25xf4
100 600 m 25
 201 600 l 25xf4
 201 700 l 25
 400 700 l 25
 400 600 l 25xf2
 500 600 l 25xf080
 500 100 l 25
 301 100 l 25xf1
 301 201 l 25xf8
 201 201 l 25
 201 0 l 25xf4
 400 0 l 25
 400 -100 l 25
 201 -100 l 25xf2
 201 0 l 25
 100 0 l 25
 100 600 l 25
EndSplineSet
EndChar

StartChar: A
Encoding: 65 65 33
Width: 599
VWidth: 0
Flags: W
HStem: 0 0G<104 209 418 521> 201 100<209 418> 500 100<209 418>
VStem: 100 100<0 209 312 521> 400 100<0 209 312 521>
LayerCount: 2
Back
SplineSet
208.30078125 520.80078125 m 29
 208.30078125 312.5 l 25
 416.69921875 312.5 l 25
 416.69921875 520.80078125 l 25
 208.30078125 520.80078125 l 29
104.19921875 520.80078125 m 25
 208.30078125 520.80078125 l 25
 208.30078125 625 l 25
 416.69921875 625 l 25
 416.69921875 520.80078125 l 25
 520.80078125 520.80078125 l 25
 520.80078125 0 l 25
 416.69921875 0 l 25
 416.69921875 208.30078125 l 25
 208.30078125 208.30078125 l 25
 208.30078125 0 l 25
 104.19921875 0 l 25
 104.19921875 520.80078125 l 25
EndSplineSet
Fore
SplineSet
201 500 m 25
 201 301 l 25
 400 301 l 25
 400 500 l 25
 201 500 l 25
100 500 m 25
 201 500 l 25
 201 600 l 25
 400 600 l 25
 400 500 l 25
 500 500 l 25
 500 0 l 25
 400 0 l 25
 400 201 l 25
 201 201 l 25
 201 0 l 25
 100 0 l 25
 100 500 l 25
EndSplineSet
EndChar

StartChar: B
Encoding: 66 66 34
Width: 599
VWidth: 0
Flags: W
HStem: 0 100<209 418> 500 100<209 418>
VStem: 100 301<0 104 312 418 521 625> 100 100<104 312 418 521> 400 100<104 312 418 521>
LayerCount: 2
Back
SplineSet
208.30078125 312.5 m 29
 208.30078125 104.19921875 l 25
 416.69921875 104.19921875 l 25
 416.69921875 312.5 l 25
 208.30078125 312.5 l 29
208.30078125 520.80078125 m 25
 208.30078125 416.69921875 l 25
 416.69921875 416.69921875 l 25
 416.69921875 520.80078125 l 25
 208.30078125 520.80078125 l 25
104.19921875 625 m 25
 416.69921875 625 l 25
 416.69921875 520.80078125 l 25
 520.80078125 520.80078125 l 25
 520.80078125 416.69921875 l 25
 416.69921875 416.69921875 l 25
 416.69921875 312.5 l 25
 520.80078125 312.5 l 25
 520.80078125 104.19921875 l 25
 416.69921875 104.19921875 l 25
 416.69921875 0 l 25
 104.19921875 0 l 25
 104.19921875 625 l 25
EndSplineSet
Fore
SplineSet
201 301 m 25xd0
 201 100 l 25xd0
 400 100 l 25
 400 301 l 25xe0
 201 301 l 25xd0
201 500 m 25
 201 400 l 25xd0
 400 400 l 25
 400 500 l 25xe0
 201 500 l 25
100 600 m 25xe0
 400 600 l 25
 400 500 l 25xe0
 500 500 l 25
 500 400 l 25xc8
 400 400 l 25
 400 301 l 25xe0
 500 301 l 25
 500 100 l 25xc8
 400 100 l 25
 400 0 l 25
 100 0 l 25
 100 600 l 25xe0
EndSplineSet
EndChar

StartChar: C
Encoding: 67 67 35
Width: 599
VWidth: 0
Flags: W
HStem: 0 100<209 521> 500 100<209 521>
VStem: 100 100<104 521> 201 301<0 104 521 625>
LayerCount: 2
Back
SplineSet
104.19921875 520.80078125 m 29
 208.30078125 520.80078125 l 25
 208.30078125 625 l 25
 520.80078125 625 l 25
 520.80078125 520.80078125 l 25
 208.30078125 520.80078125 l 25
 208.30078125 104.19921875 l 25
 520.80078125 104.19921875 l 25
 520.80078125 0 l 25
 208.30078125 0 l 25
 208.30078125 104.19921875 l 25
 104.19921875 104.19921875 l 25
 104.19921875 520.80078125 l 29
EndSplineSet
Fore
SplineSet
100 500 m 25xe0
 201 500 l 25xe0
 201 600 l 25
 500 600 l 25
 500 500 l 25xd0
 201 500 l 25
 201 100 l 25xe0
 500 100 l 25
 500 0 l 25
 201 0 l 25xd0
 201 100 l 25
 100 100 l 25
 100 500 l 25xe0
EndSplineSet
EndChar

StartChar: D
Encoding: 68 68 36
Width: 599
VWidth: 0
Flags: W
HStem: 0 100<209 418> 500 0G<418 521> 500 100<209 418>
VStem: 100 301<0 104 521 625> 100 100<104 521> 400 100<104 521>
LayerCount: 2
Back
SplineSet
104.19921875 625 m 29
 416.69921875 625 l 25
 416.69921875 520.80078125 l 25
 208.30078125 520.80078125 l 25
 208.30078125 104.19921875 l 25
 416.69921875 104.19921875 l 25
 416.69921875 520.80078125 l 25
 520.80078125 520.80078125 l 25
 520.80078125 104.19921875 l 25
 416.69921875 104.19921875 l 25
 416.69921875 0 l 25
 104.19921875 0 l 25
 104.19921875 625 l 29
EndSplineSet
Fore
SplineSet
100 600 m 25xb0
 400 600 l 25xb0
 400 500 l 25xd0
 201 500 l 25
 201 100 l 25xa8
 400 100 l 25
 400 500 l 25xd0
 500 500 l 25
 500 100 l 25xc4
 400 100 l 25
 400 0 l 25
 100 0 l 25
 100 600 l 25xb0
EndSplineSet
EndChar

StartChar: E
Encoding: 69 69 37
Width: 599
VWidth: 0
Flags: W
HStem: 0 100<209 521> 301 100<209 418> 500 100<209 521>
VStem: 100 100<104 312 418 521>
LayerCount: 2
Back
SplineSet
104.19921875 625 m 29
 520.80078125 625 l 25
 520.80078125 520.80078125 l 25
 208.30078125 520.80078125 l 25
 208.30078125 416.69921875 l 25
 416.69921875 416.69921875 l 25
 416.69921875 312.5 l 25
 208.30078125 312.5 l 25
 208.30078125 104.19921875 l 25
 520.80078125 104.19921875 l 25
 520.80078125 0 l 25
 104.19921875 0 l 25
 104.19921875 625 l 29
EndSplineSet
Fore
SplineSet
100 600 m 25
 500 600 l 25
 500 500 l 25
 201 500 l 25
 201 400 l 25
 400 400 l 25
 400 301 l 25
 201 301 l 25
 201 100 l 25
 500 100 l 25
 500 0 l 25
 100 0 l 25
 100 600 l 25
EndSplineSet
EndChar

StartChar: F
Encoding: 70 70 38
Width: 599
VWidth: 0
Flags: W
HStem: 0 0G<104 209> 301 100<209 418> 500 100<209 521>
VStem: 100 100<0 312 418 521>
LayerCount: 2
Back
SplineSet
104.19921875 625 m 29
 520.80078125 625 l 25
 520.80078125 520.80078125 l 25
 208.30078125 520.80078125 l 25
 208.30078125 416.69921875 l 25
 416.69921875 416.69921875 l 25
 416.69921875 312.5 l 25
 208.30078125 312.5 l 25
 208.30078125 0 l 25
 104.19921875 0 l 25
 104.19921875 625 l 29
EndSplineSet
Fore
SplineSet
100 600 m 25
 500 600 l 25
 500 500 l 25
 201 500 l 25
 201 400 l 25
 400 400 l 25
 400 301 l 25
 201 301 l 25
 201 0 l 25
 100 0 l 25
 100 600 l 25
EndSplineSet
EndChar

StartChar: G
Encoding: 71 71 39
Width: 599
VWidth: 0
Flags: W
HStem: 0 100<209 418> 500 100<209 521>
VStem: 100 100<104 521> 201 301<0 104 521 625> 400 100<104 312>
LayerCount: 2
Back
SplineSet
208.30078125 625 m 29
 520.80078125 625 l 25
 520.80078125 520.80078125 l 25
 208.30078125 520.80078125 l 25
 208.30078125 104.19921875 l 25
 416.69921875 104.19921875 l 25
 416.69921875 312.5 l 25
 520.80078125 312.5 l 25
 520.80078125 0 l 25
 208.30078125 0 l 25
 208.30078125 104.19921875 l 25
 104.19921875 104.19921875 l 25
 104.19921875 520.80078125 l 25
 208.30078125 520.80078125 l 25
 208.30078125 625 l 29
EndSplineSet
Fore
SplineSet
201 600 m 25xd0
 500 600 l 25
 500 500 l 25xd0
 201 500 l 25
 201 100 l 25
 400 100 l 25
 400 301 l 25
 500 301 l 25xe8
 500 0 l 25
 201 0 l 25xd0
 201 100 l 25
 100 100 l 25
 100 500 l 25
 201 500 l 25xe0
 201 600 l 25xd0
EndSplineSet
EndChar

StartChar: H
Encoding: 72 72 40
Width: 599
VWidth: 0
Flags: W
HStem: 0 0G<104 209 418 521> 201 100<209 418> 600 0G<104 209 418 521>
VStem: 100 100<0 209 312 625> 400 100<0 209 312 625>
LayerCount: 2
Back
SplineSet
104.19921875 625 m 29
 208.30078125 625 l 25
 208.30078125 312.5 l 25
 416.69921875 312.5 l 25
 416.69921875 625 l 25
 520.80078125 625 l 25
 520.80078125 0 l 25
 416.69921875 0 l 25
 416.69921875 208.30078125 l 25
 208.30078125 208.30078125 l 25
 208.30078125 0 l 25
 104.19921875 0 l 25
 104.19921875 625 l 29
EndSplineSet
Fore
SplineSet
100 600 m 25
 201 600 l 25
 201 301 l 25
 400 301 l 25
 400 600 l 25
 500 600 l 25
 500 0 l 25
 400 0 l 25
 400 201 l 25
 201 201 l 25
 201 0 l 25
 100 0 l 25
 100 600 l 25
EndSplineSet
EndChar

StartChar: I
Encoding: 73 73 41
Width: 599
VWidth: 0
Flags: W
HStem: -1500 2100G<312 418> -1500 2100G<312 418> 0 2200G<312 418>
VStem: 301 100<0 625>
LayerCount: 2
Back
SplineSet
312.5 625 m 29x88
 416.69921875 625 l 25x88
 416.69921875 0 l 25
 312.5 0 l 25x28
 312.5 625 l 29x88
EndSplineSet
Fore
SplineSet
301 600 m 25x90
 400 600 l 25x90
 400 0 l 25
 301 0 l 25x30
 301 600 l 25x90
EndSplineSet
EndChar

StartChar: J
Encoding: 74 74 42
Width: 599
VWidth: 0
Flags: W
HStem: 0 100<209 418> 600 0G<418 521>
VStem: 400 100<104 625>
LayerCount: 2
Back
SplineSet
416.69921875 625 m 29
 520.80078125 625 l 25
 520.80078125 104.19921875 l 25
 416.69921875 104.19921875 l 25
 416.69921875 0 l 25
 208.30078125 0 l 25
 208.30078125 104.19921875 l 25
 416.69921875 104.19921875 l 25
 416.69921875 625 l 29
EndSplineSet
Fore
SplineSet
400 600 m 25
 500 600 l 25
 500 100 l 25
 400 100 l 25
 400 0 l 25
 201 0 l 25
 201 100 l 25
 400 100 l 25
 400 600 l 25
EndSplineSet
EndChar

StartChar: K
Encoding: 75 75 43
Width: 599
VWidth: 0
Flags: W
HStem: 0 100<418 521> 100 100<312 418> 400 100<312 418> 500 100<418 521>
VStem: 100 201<209 418> 100 100<0 209 418 625> 301 100<104 209 418 521> 400 100<0 104 521 625>
LayerCount: 2
Back
SplineSet
104.19921875 625 m 29
 208.30078125 625 l 25
 208.30078125 416.69921875 l 25
 312.5 416.69921875 l 25
 312.5 520.80078125 l 25
 416.69921875 520.80078125 l 25
 416.69921875 625 l 25
 520.80078125 625 l 25
 520.80078125 520.80078125 l 25
 416.69921875 520.80078125 l 25
 416.69921875 416.69921875 l 25
 312.5 416.69921875 l 25
 312.5 208.30078125 l 25
 416.69921875 208.30078125 l 25
 416.69921875 104.19921875 l 25
 520.80078125 104.19921875 l 25
 520.80078125 0 l 25
 416.69921875 0 l 25
 416.69921875 104.19921875 l 25
 312.5 104.19921875 l 25
 312.5 208.30078125 l 25
 208.30078125 208.30078125 l 25
 208.30078125 0 l 25
 104.19921875 0 l 25
 104.19921875 625 l 29
EndSplineSet
Fore
SplineSet
100 600 m 25x94
 201 600 l 25x94
 201 400 l 25x24
 301 400 l 25x28
 301 500 l 25
 400 500 l 25x22
 400 600 l 25
 500 600 l 25
 500 500 l 25x11
 400 500 l 25
 400 400 l 25x22
 301 400 l 25
 301 201 l 25x68
 400 201 l 25x62
 400 100 l 25x82
 500 100 l 25
 500 0 l 25
 400 0 l 25x81
 400 100 l 25x82
 301 100 l 25x42
 301 201 l 25x48
 201 201 l 25x44
 201 0 l 25
 100 0 l 25
 100 600 l 25x94
EndSplineSet
EndChar

StartChar: L
Encoding: 76 76 44
Width: 599
VWidth: 0
Flags: W
HStem: 0 100<209 521> 600 0G<104 209>
VStem: 100 100<104 625>
LayerCount: 2
Back
SplineSet
104.19921875 625 m 29
 208.30078125 625 l 25
 208.30078125 104.19921875 l 25
 520.80078125 104.19921875 l 25
 520.80078125 0 l 25
 104.19921875 0 l 25
 104.19921875 625 l 29
EndSplineSet
Fore
SplineSet
100 600 m 25
 201 600 l 25
 201 100 l 25
 500 100 l 25
 500 0 l 25
 100 0 l 25
 100 600 l 25
EndSplineSet
EndChar

StartChar: M
Encoding: 77 77 45
Width: 599
VWidth: 0
Flags: W
HStem: 0 0G<104 209 521 625> 500 100<209 312 418 521>
VStem: 100 100<0 521> 301 100<312 521> 500 100<0 521>
CounterMasks: 1 38
LayerCount: 2
Back
SplineSet
104.19921875 625 m 29
 312.5 625 l 25
 312.5 520.80078125 l 25
 416.69921875 520.80078125 l 25
 416.69921875 625 l 25
 625 625 l 25
 625 0 l 25
 520.80078125 0 l 25
 520.80078125 520.80078125 l 25
 416.69921875 520.80078125 l 25
 416.69921875 312.5 l 25
 312.5 312.5 l 25
 312.5 520.80078125 l 25
 208.30078125 520.80078125 l 25
 208.30078125 0 l 25
 104.19921875 0 l 25
 104.19921875 625 l 29
EndSplineSet
Fore
SplineSet
100 600 m 25
 301 600 l 25
 301 500 l 25
 400 500 l 25
 400 600 l 25
 600 600 l 25
 600 0 l 25
 500 0 l 25
 500 500 l 25
 400 500 l 25
 400 301 l 25
 301 301 l 25
 301 500 l 25
 201 500 l 25
 201 0 l 25
 100 0 l 25
 100 600 l 25
EndSplineSet
EndChar

StartChar: N
Encoding: 78 78 46
Width: 599
VWidth: 0
Flags: W
HStem: 0 0G<104 209 418 521> 201 100<312 418> 301 100<209 312> 600 0G<104 209 418 521>
VStem: 100 100<0 312 418 625> 400 100<0 209 312 625>
LayerCount: 2
Back
SplineSet
104.19921875 625 m 29
 208.30078125 625 l 25
 208.30078125 416.69921875 l 25
 312.5 416.69921875 l 25
 312.5 312.5 l 25
 416.69921875 312.5 l 25
 416.69921875 625 l 25
 520.80078125 625 l 25
 520.80078125 0 l 25
 416.69921875 0 l 25
 416.69921875 208.30078125 l 25
 312.5 208.30078125 l 25
 312.5 312.5 l 25
 208.30078125 312.5 l 25
 208.30078125 0 l 25
 104.19921875 0 l 25
 104.19921875 625 l 29
EndSplineSet
Fore
SplineSet
100 600 m 25xbc
 201 600 l 25
 201 400 l 25
 301 400 l 25xbc
 301 301 l 25
 400 301 l 25
 400 600 l 25
 500 600 l 25
 500 0 l 25
 400 0 l 25
 400 201 l 25
 301 201 l 25
 301 301 l 25xdc
 201 301 l 25
 201 0 l 25
 100 0 l 25
 100 600 l 25xbc
EndSplineSet
EndChar

StartChar: O
Encoding: 79 79 47
Width: 599
VWidth: 0
Flags: W
HStem: -1600 2100G<418 521> -1600 2100G<418 521> 0 100<209 418> 500 100<209 418>
VStem: 100 100<104 521> 201 201<0 104 521 625>
LayerCount: 2
Back
SplineSet
208.30078125 625 m 29x0a
 416.69921875 625 l 25x0a
 416.69921875 520.80078125 l 25x82
 208.30078125 520.80078125 l 25
 208.30078125 104.19921875 l 25x0c
 416.69921875 104.19921875 l 25
 416.69921875 520.80078125 l 25
 520.80078125 520.80078125 l 25x82
 520.80078125 104.19921875 l 25
 416.69921875 104.19921875 l 25
 416.69921875 0 l 25
 208.30078125 0 l 25x22
 208.30078125 104.19921875 l 25
 104.19921875 104.19921875 l 25
 104.19921875 520.80078125 l 25
 208.30078125 520.80078125 l 25x0c
 208.30078125 625 l 29x0a
EndSplineSet
Fore
SplineSet
201 600 m 25x34
 400 600 l 25x34
 400 500 l 25x84
 201 500 l 25
 201 100 l 25x38
 400 100 l 25x34
 400 500 l 25
 500 500 l 25x84
 500 100 l 25
 400 100 l 25
 400 0 l 25
 201 0 l 25x24
 201 100 l 25
 100 100 l 25
 100 500 l 25
 201 500 l 25x38
 201 600 l 25x34
EndSplineSet
EndChar

StartChar: P
Encoding: 80 80 48
Width: 599
VWidth: 0
Flags: W
HStem: 0 0G<104 209> 201 100<209 418> 500 0G<418 521> 500 100<209 418>
VStem: 100 301<209 312 521 625> 100 100<0 209 312 521> 400 100<312 521>
LayerCount: 2
Back
SplineSet
104.19921875 625 m 29x06
 416.69921875 625 l 29x06
 416.69921875 520.80078125 l 29x82
 208.30078125 520.80078125 l 29
 208.30078125 312.5 l 29x0d
 416.69921875 312.5 l 29x0e
 416.69921875 520.80078125 l 29
 520.80078125 520.80078125 l 29x82
 520.80078125 312.5 l 29
 416.69921875 312.5 l 29
 416.69921875 208.30078125 l 29x0a
 208.30078125 208.30078125 l 29x09
 208.30078125 0 l 29
 104.19921875 0 l 29x21
 104.19921875 625 l 29x06
EndSplineSet
Fore
SplineSet
100 600 m 25xd8
 400 600 l 25xd8
 400 500 l 25xe8
 201 500 l 25
 201 301 l 25xd4
 400 301 l 25
 400 500 l 25xe8
 500 500 l 25
 500 301 l 25xe2
 400 301 l 25
 400 201 l 25xe8
 201 201 l 25
 201 0 l 25
 100 0 l 25xe4
 100 600 l 25xd8
EndSplineSet
EndChar

StartChar: Q
Encoding: 81 81 49
Width: 599
VWidth: 0
Flags: W
HStem: -100 100<418 521> 0 100<209 312> 500 0G<418 521> 500 100<209 418>
VStem: 100 100<104 521> 201 201<0 104 521 625> 400 100<104 521>
LayerCount: 2
Back
SplineSet
104.19921875 520.80078125 m 29
 208.30078125 520.80078125 l 25
 208.30078125 625 l 25
 416.69921875 625 l 25
 416.69921875 520.80078125 l 25
 208.30078125 520.80078125 l 25
 208.30078125 104.19921875 l 25
 416.69921875 104.19921875 l 25
 416.69921875 520.80078125 l 25
 520.80078125 520.80078125 l 25
 520.80078125 104.19921875 l 25
 416.69921875 104.19921875 l 25
 416.69921875 0 l 25
 520.80078125 0 l 25
 520.80078125 -104.19921875 l 25
 312.5 -104.19921875 l 25
 312.5 0 l 25
 208.30078125 0 l 25
 208.30078125 104.19921875 l 25
 104.19921875 104.19921875 l 25
 104.19921875 520.80078125 l 29
EndSplineSet
Fore
SplineSet
100 500 m 25x58
 201 500 l 25x58
 201 600 l 25
 400 600 l 25x54
 400 500 l 25x24
 201 500 l 25
 201 100 l 25x58
 400 100 l 25
 400 500 l 25x64
 500 500 l 25
 500 100 l 25x62
 400 100 l 25x64
 400 0 l 25x84
 500 0 l 25
 500 -100 l 25
 301 -100 l 25x82
 301 0 l 25
 201 0 l 25x44
 201 100 l 25
 100 100 l 25
 100 500 l 25x58
EndSplineSet
EndChar

StartChar: R
Encoding: 82 82 50
Width: 599
VWidth: 0
Flags: W
HStem: 0 100<418 521> 201 100<209 312> 500 0G<418 521> 500 100<209 418>
VStem: 100 100<0 209 312 521> 301 100<104 209> 400 100<0 104 312 521>
LayerCount: 2
Back
SplineSet
104.19921875 625 m 29
 416.69921875 625 l 25
 416.69921875 520.80078125 l 25
 208.30078125 520.80078125 l 25
 208.30078125 312.5 l 25
 416.69921875 312.5 l 25
 416.69921875 520.80078125 l 25
 520.80078125 520.80078125 l 25
 520.80078125 312.5 l 25
 416.69921875 312.5 l 25
 416.69921875 104.19921875 l 25
 520.80078125 104.19921875 l 25
 520.80078125 0 l 25
 416.69921875 0 l 25
 416.69921875 104.19921875 l 25
 312.5 104.19921875 l 25
 312.5 208.30078125 l 25
 208.30078125 208.30078125 l 25
 208.30078125 0 l 25
 104.19921875 0 l 25
 104.19921875 625 l 29
EndSplineSet
Fore
SplineSet
100 600 m 25xdc
 400 600 l 25xda
 400 500 l 25xea
 201 500 l 25xda
 201 301 l 25
 400 301 l 25
 400 500 l 25
 500 500 l 25
 500 301 l 25
 400 301 l 25xea
 400 100 l 25xec
 500 100 l 25
 500 0 l 25
 400 0 l 25xea
 400 100 l 25
 301 100 l 25
 301 201 l 25
 201 201 l 25
 201 0 l 25
 100 0 l 25
 100 600 l 25xdc
EndSplineSet
EndChar

StartChar: S
Encoding: 83 83 51
Width: 599
VWidth: 0
Flags: W
HStem: 0 100<104 418> 301 100<209 418> 500 100<209 521>
VStem: 100 100<418 521> 400 100<104 312>
LayerCount: 2
Back
SplineSet
208.30078125 625 m 29
 520.80078125 625 l 25
 520.80078125 520.80078125 l 25
 208.30078125 520.80078125 l 25
 208.30078125 416.69921875 l 25
 416.69921875 416.69921875 l 25
 416.69921875 312.5 l 25
 520.80078125 312.5 l 25
 520.80078125 104.19921875 l 25
 416.69921875 104.19921875 l 25
 416.69921875 0 l 25
 104.19921875 0 l 25
 104.19921875 104.19921875 l 25
 416.69921875 104.19921875 l 25
 416.69921875 312.5 l 25
 208.30078125 312.5 l 25
 208.30078125 416.69921875 l 25
 104.19921875 416.69921875 l 25
 104.19921875 520.80078125 l 25
 208.30078125 520.80078125 l 25
 208.30078125 625 l 29
EndSplineSet
Fore
SplineSet
201 600 m 25
 500 600 l 25
 500 500 l 25
 201 500 l 25
 201 400 l 25
 400 400 l 25
 400 301 l 25
 500 301 l 25
 500 100 l 25
 400 100 l 25
 400 0 l 25
 100 0 l 25
 100 100 l 25
 400 100 l 25
 400 301 l 25
 201 301 l 25
 201 400 l 25
 100 400 l 25
 100 500 l 25
 201 500 l 25
 201 600 l 25
EndSplineSet
EndChar

StartChar: T
Encoding: 84 84 52
Width: 599
VWidth: 0
Flags: W
HStem: 0 0G<312 418> 500 100<104 312 418 625>
VStem: 301 100<0 521>
LayerCount: 2
Back
SplineSet
104.19921875 625 m 29
 625 625 l 25
 625 520.80078125 l 25
 416.69921875 520.80078125 l 25
 416.69921875 0 l 25
 312.5 0 l 25
 312.5 520.80078125 l 25
 104.19921875 520.80078125 l 25
 104.19921875 625 l 29
EndSplineSet
Fore
SplineSet
100 600 m 25
 600 600 l 25
 600 500 l 25
 400 500 l 25
 400 0 l 25
 301 0 l 25
 301 500 l 25
 100 500 l 25
 100 600 l 25
EndSplineSet
EndChar

StartChar: U
Encoding: 85 85 53
Width: 599
VWidth: 0
Flags: W
HStem: 0 100<209 418> 600 0G<104 209 418 521>
VStem: 100 100<104 625> 400 100<104 625>
LayerCount: 2
Back
SplineSet
104.19921875 625 m 29
 208.30078125 625 l 25
 208.30078125 104.19921875 l 25
 416.69921875 104.19921875 l 25
 416.69921875 625 l 25
 520.80078125 625 l 25
 520.80078125 0 l 25
 208.30078125 0 l 25
 208.30078125 104.19921875 l 25
 104.19921875 104.19921875 l 25
 104.19921875 625 l 29
EndSplineSet
Fore
SplineSet
100 600 m 25
 201 600 l 25
 201 100 l 25
 400 100 l 25
 400 600 l 25
 500 600 l 25
 500 0 l 25
 201 0 l 25
 201 100 l 25
 100 100 l 25
 100 600 l 25
EndSplineSet
EndChar

StartChar: V
Encoding: 86 86 54
Width: 599
VWidth: 0
Flags: W
HStem: 0 201<209 418> 600 0G<104 209 418 521>
VStem: 100 100<209 625> 400 100<209 625>
LayerCount: 2
Back
SplineSet
104.19921875 625 m 29
 208.30078125 625 l 25
 208.30078125 208.30078125 l 25
 416.69921875 208.30078125 l 25
 416.69921875 625 l 25
 520.80078125 625 l 25
 520.80078125 208.30078125 l 25
 416.69921875 208.30078125 l 25
 416.69921875 0 l 25
 208.30078125 0 l 25
 208.30078125 208.30078125 l 25
 104.19921875 208.30078125 l 25
 104.19921875 625 l 29
EndSplineSet
Fore
SplineSet
100 600 m 25
 201 600 l 25
 201 201 l 25
 400 201 l 25
 400 600 l 25
 500 600 l 25
 500 201 l 25
 400 201 l 25
 400 0 l 25
 201 0 l 25
 201 201 l 25
 100 201 l 25
 100 600 l 25
EndSplineSet
EndChar

StartChar: W
Encoding: 87 87 55
Width: 599
VWidth: 0
Flags: W
HStem: 0 100<209 312 418 521> 600 0G<104 209 521 625>
VStem: 100 100<104 625> 301 100<104 312> 500 100<104 625>
CounterMasks: 1 38
LayerCount: 2
Back
SplineSet
104.19921875 625 m 29
 208.30078125 625 l 25
 208.30078125 104.19921875 l 25
 312.5 104.19921875 l 25
 312.5 312.5 l 25
 416.69921875 312.5 l 25
 416.69921875 104.19921875 l 25
 520.80078125 104.19921875 l 25
 520.80078125 625 l 25
 625 625 l 25
 625 104.19921875 l 25
 520.80078125 104.19921875 l 25
 520.80078125 0 l 25
 208.30078125 0 l 25
 208.30078125 104.19921875 l 25
 104.19921875 104.19921875 l 25
 104.19921875 625 l 29
EndSplineSet
Fore
SplineSet
100 600 m 25
 201 600 l 25
 201 100 l 25
 301 100 l 25
 301 301 l 25
 400 301 l 25
 400 100 l 25
 500 100 l 25
 500 600 l 25
 600 600 l 25
 600 100 l 25
 500 100 l 25
 500 0 l 25
 201 0 l 25
 201 100 l 25
 100 100 l 25
 100 600 l 25
EndSplineSet
EndChar

StartChar: X
Encoding: 88 88 56
Width: 599
VWidth: 0
Flags: W
HStem: 0 201<104 209 418 521> 400 201<104 209 418 521>
VStem: 100 100<0 209 418 625> 400 100<0 209 418 625>
LayerCount: 2
Back
SplineSet
104.19921875 625 m 29
 208.30078125 625 l 25
 208.30078125 416.69921875 l 25
 416.69921875 416.69921875 l 25
 416.69921875 625 l 25
 520.80078125 625 l 25
 520.80078125 416.69921875 l 25
 416.69921875 416.69921875 l 25
 416.69921875 208.30078125 l 25
 520.80078125 208.30078125 l 25
 520.80078125 0 l 25
 416.69921875 0 l 25
 416.69921875 208.30078125 l 25
 208.30078125 208.30078125 l 25
 208.30078125 0 l 25
 104.19921875 0 l 25
 104.19921875 208.30078125 l 25
 208.30078125 208.30078125 l 25
 208.30078125 416.69921875 l 25
 104.19921875 416.69921875 l 25
 104.19921875 625 l 29
EndSplineSet
Fore
SplineSet
100 600 m 25
 201 600 l 25
 201 400 l 25
 400 400 l 25
 400 600 l 25
 500 600 l 25
 500 400 l 25
 400 400 l 25
 400 201 l 25
 500 201 l 25
 500 0 l 25
 400 0 l 25
 400 201 l 25
 201 201 l 25
 201 0 l 25
 100 0 l 25
 100 201 l 25
 201 201 l 25
 201 400 l 25
 100 400 l 25
 100 600 l 25
EndSplineSet
EndChar

StartChar: Y
Encoding: 89 89 57
Width: 599
VWidth: 0
Flags: W
HStem: 0 0G<312 418> 301 100<209 312 418 521> 400 201<104 209 521 625>
VStem: 100 100<418 625> 201 100<312 418> 400 100<312 418> 500 100<418 625>
LayerCount: 2
Back
SplineSet
104.19921875 625 m 29
 208.30078125 625 l 25
 208.30078125 416.69921875 l 25
 312.5 416.69921875 l 25
 312.5 312.5 l 25
 416.69921875 312.5 l 25
 416.69921875 416.69921875 l 25
 520.80078125 416.69921875 l 25
 520.80078125 625 l 25
 625 625 l 25
 625 520.80078125 l 25
 625 416.69921875 l 25
 520.80078125 416.69921875 l 25
 520.80078125 312.5 l 25
 416.69921875 312.5 l 25
 416.69921875 0 l 25
 312.5 0 l 25
 312.5 312.5 l 25
 208.30078125 312.5 l 25
 208.30078125 416.69921875 l 25
 104.19921875 416.69921875 l 25
 104.19921875 625 l 29
EndSplineSet
Fore
SplineSet
100 600 m 25xb0
 201 600 l 25xb0
 201 400 l 25xd0
 301 400 l 25
 301 301 l 25
 400 301 l 25
 400 400 l 25
 500 400 l 25xcc
 500 600 l 25
 600 600 l 25
 600 500 l 25
 600 400 l 25xa2
 500 400 l 25
 500 301 l 25
 400 301 l 25
 400 0 l 25
 301 0 l 25
 301 301 l 25
 201 301 l 25xcc
 201 400 l 25xd0
 100 400 l 25
 100 600 l 25xb0
EndSplineSet
EndChar

StartChar: Z
Encoding: 90 90 58
Width: 599
VWidth: 0
Flags: W
HStem: 0 100<209 521> 201 100<209 312> 301 100<312 418> 500 100<104 418>
VStem: 100 100<104 209> 201 100<209 312> 301 100<312 418> 400 100<418 521>
LayerCount: 2
Back
SplineSet
104.19921875 625 m 29
 520.80078125 625 l 25
 520.80078125 416.69921875 l 25
 416.69921875 416.69921875 l 25
 416.69921875 312.5 l 25
 312.5 312.5 l 25
 312.5 208.30078125 l 25
 208.30078125 208.30078125 l 25
 208.30078125 104.19921875 l 25
 520.80078125 104.19921875 l 25
 520.80078125 0 l 25
 104.19921875 0 l 25
 104.19921875 208.30078125 l 25
 208.30078125 208.30078125 l 25
 208.30078125 312.5 l 25
 312.5 312.5 l 25
 312.5 416.69921875 l 25
 416.69921875 416.69921875 l 25
 416.69921875 520.80078125 l 25
 104.19921875 520.80078125 l 25
 104.19921875 625 l 29
EndSplineSet
Fore
SplineSet
100 600 m 25xb9
 500 600 l 25
 500 400 l 25xb9
 400 400 l 25
 400 301 l 25xb2
 301 301 l 25
 301 201 l 25xd4
 201 201 l 25
 201 100 l 25
 500 100 l 25
 500 0 l 25
 100 0 l 25
 100 201 l 25
 201 201 l 25xd9
 201 301 l 25
 301 301 l 25xd4
 301 400 l 25
 400 400 l 25xb2
 400 500 l 25
 100 500 l 25
 100 600 l 25xb9
EndSplineSet
EndChar

StartChar: bracketleft
Encoding: 91 91 59
Width: 599
VWidth: 0
Flags: W
HStem: -100 100<312 418> 600 100<312 418>
VStem: 201 201<-104 0 625 729> 201 100<0 625>
LayerCount: 2
Back
SplineSet
208.30078125 729.19921875 m 29
 416.69921875 729.19921875 l 25
 416.69921875 625 l 25
 312.5 625 l 25
 312.5 0 l 25
 416.69921875 0 l 25
 416.69921875 -104.19921875 l 25
 208.30078125 -104.19921875 l 25
 208.30078125 729.19921875 l 29
EndSplineSet
Fore
SplineSet
201 700 m 25xe0
 400 700 l 25
 400 600 l 25xe0
 301 600 l 25
 301 0 l 25xd0
 400 0 l 25
 400 -100 l 25
 201 -100 l 25
 201 700 l 25xe0
EndSplineSet
EndChar

StartChar: backslash
Encoding: 92 92 60
Width: 599
VWidth: 0
Flags: W
HStem: -100 0G<418 521> 700 0G<104 209>
VStem: 100 100<521 729> 201 100<312 521> 301 100<104 312> 400 100<-104 104>
LayerCount: 2
Back
SplineSet
104.19921875 729.19921875 m 29
 208.30078125 729.19921875 l 25
 208.30078125 520.80078125 l 25
 312.5 520.80078125 l 25
 312.5 312.5 l 25
 416.69921875 312.5 l 25
 416.69921875 104.19921875 l 25
 520.80078125 104.19921875 l 25
 520.80078125 -104.19921875 l 25
 416.69921875 -104.19921875 l 25
 416.69921875 104.19921875 l 25
 312.5 104.19921875 l 25
 312.5 312.5 l 25
 208.30078125 312.5 l 25
 208.30078125 520.80078125 l 25
 104.19921875 520.80078125 l 25
 104.19921875 729.19921875 l 29
EndSplineSet
Fore
SplineSet
100 700 m 25xe0
 201 700 l 25
 201 500 l 25xe0
 301 500 l 25
 301 301 l 25xd0
 400 301 l 25
 400 100 l 25xc8
 500 100 l 25
 500 -100 l 25
 400 -100 l 25xc4
 400 100 l 25
 301 100 l 25xc8
 301 301 l 25
 201 301 l 25xd0
 201 500 l 25
 100 500 l 25
 100 700 l 25xe0
EndSplineSet
EndChar

StartChar: bracketright
Encoding: 93 93 61
Width: 599
VWidth: 0
Flags: W
HStem: -100 100<209 312> 600 100<209 312>
VStem: 201 201<-104 0 625 729> 301 100<0 625>
LayerCount: 2
Back
SplineSet
208.30078125 729.19921875 m 29
 416.69921875 729.19921875 l 25
 416.69921875 -104.19921875 l 25
 208.30078125 -104.19921875 l 25
 208.30078125 0 l 25
 312.5 0 l 25
 312.5 625 l 25
 208.30078125 625 l 25
 208.30078125 729.19921875 l 29
EndSplineSet
Fore
SplineSet
201 700 m 25xe0
 400 700 l 25
 400 -100 l 25
 201 -100 l 25
 201 0 l 25xe0
 301 0 l 25
 301 600 l 25xd0
 201 600 l 25
 201 700 l 25xe0
EndSplineSet
EndChar

StartChar: asciicircum
Encoding: 94 94 62
Width: 599
VWidth: 0
Flags: W
HStem: 400 100<104 209 521 625> 500 100<209 312 418 521> 600 100<312 418>
VStem: 100 100<418 521> 201 100<521 625> 400 100<521 625> 500 100<418 521>
LayerCount: 2
Back
SplineSet
104.19921875 520.80078125 m 29
 208.30078125 520.80078125 l 25
 208.30078125 625 l 25
 312.5 625 l 25
 312.5 729.19921875 l 25
 416.69921875 729.19921875 l 25
 416.69921875 625 l 25
 520.80078125 625 l 25
 520.80078125 520.80078125 l 25
 625 520.80078125 l 25
 625 416.69921875 l 25
 520.80078125 416.69921875 l 25
 520.80078125 520.80078125 l 25
 416.69921875 520.80078125 l 25
 416.69921875 625 l 25
 312.5 625 l 25
 312.5 520.80078125 l 25
 208.30078125 520.80078125 l 25
 208.30078125 416.69921875 l 25
 104.19921875 416.69921875 l 25
 104.19921875 520.80078125 l 29
EndSplineSet
Fore
SplineSet
100 500 m 25x90
 201 500 l 25x90
 201 600 l 25
 301 600 l 25x48
 301 700 l 25
 400 700 l 25x2c
 400 600 l 25
 500 600 l 25x4c
 500 500 l 25x8c
 600 500 l 25
 600 400 l 25
 500 400 l 25x82
 500 500 l 25x84
 400 500 l 25
 400 600 l 25
 301 600 l 25
 301 500 l 25x4c
 201 500 l 25
 201 400 l 25
 100 400 l 25
 100 500 l 25x90
EndSplineSet
EndChar

StartChar: underscore
Encoding: 95 95 63
Width: 599
VWidth: 0
Flags: W
HStem: -100 100<104 625>
LayerCount: 2
Back
SplineSet
104.19921875 0 m 29
 625 0 l 25
 625 -104.19921875 l 25
 104.19921875 -104.19921875 l 25
 104.19921875 0 l 29
EndSplineSet
Fore
SplineSet
100 0 m 25
 600 0 l 25
 600 -100 l 25
 100 -100 l 25
 100 0 l 25
EndSplineSet
EndChar

StartChar: grave
Encoding: 96 96 64
Width: 599
VWidth: 0
Flags: W
LayerCount: 2
Back
SplineSet
208.30078125 729.19921875 m 29
 208.30078125 520.80078125 l 25
 312.5 520.80078125 l 25
 312.5 416.69921875 l 25
 416.69921875 416.69921875 l 25
 416.69921875 520.80078125 l 25
 312.5 520.80078125 l 25
 312.5 729.19921875 l 25
 208.30078125 729.19921875 l 29
EndSplineSet
Fore
SplineSet
201 700 m 25
 201 500 l 25
 301 500 l 25
 301 400 l 25
 400 400 l 25
 400 500 l 25
 301 500 l 25
 301 700 l 25
 201 700 l 25
EndSplineSet
EndChar

StartChar: a
Encoding: 97 97 65
Width: 599
VWidth: 0
Flags: W
LayerCount: 2
Back
SplineSet
520.80078125 104.19921875 m 29
 520.80078125 0 l 25
 625 0 l 25
 625 104.19921875 l 25
 520.80078125 104.19921875 l 29
208.30078125 104.19921875 m 25
 208.30078125 0 l 25
 416.69921875 0 l 25
 416.69921875 104.19921875 l 25
 208.30078125 104.19921875 l 25
208.30078125 520.80078125 m 25
 208.30078125 416.69921875 l 25
 416.69921875 416.69921875 l 25
 416.69921875 104.19921875 l 25
 520.80078125 104.19921875 l 25
 520.80078125 520.80078125 l 25
 208.30078125 520.80078125 l 25
104.19921875 416.69921875 m 25
 104.19921875 104.19921875 l 25
 208.30078125 104.19921875 l 25
 208.30078125 416.69921875 l 25
 104.19921875 416.69921875 l 25
EndSplineSet
Fore
SplineSet
500 100 m 25
 500 0 l 25
 600 0 l 25
 600 100 l 25
 500 100 l 25
201 100 m 25
 201 0 l 25
 400 0 l 25
 400 100 l 25
 201 100 l 25
201 500 m 25
 201 400 l 25
 400 400 l 25
 400 100 l 25
 500 100 l 25
 500 500 l 25
 201 500 l 25
100 400 m 25
 100 100 l 25
 201 100 l 25
 201 400 l 25
 100 400 l 25
EndSplineSet
EndChar

StartChar: b
Encoding: 98 98 66
Width: 599
VWidth: 0
Flags: W
HStem: 0 100<209 418> 400 100<209 418> 700 0G<104 209>
VStem: 100 301<0 104 418 521> 100 100<104 418 521 729> 400 100<104 418>
LayerCount: 2
Back
SplineSet
416.69921875 104.19921875 m 29
 416.69921875 416.69921875 l 25
 520.80078125 416.69921875 l 25
 520.80078125 104.19921875 l 25
 416.69921875 104.19921875 l 29
104.19921875 0 m 25
 104.19921875 729.19921875 l 25
 208.30078125 729.19921875 l 25
 208.30078125 520.80078125 l 25
 416.69921875 520.80078125 l 25
 416.69921875 416.69921875 l 25
 208.30078125 416.69921875 l 25
 208.30078125 104.19921875 l 25
 416.69921875 104.19921875 l 25
 416.69921875 0 l 25
 104.19921875 0 l 25
EndSplineSet
Fore
SplineSet
400 100 m 25xf0
 400 400 l 25xf0
 500 400 l 25
 500 100 l 25xe4
 400 100 l 25xf0
100 0 m 25
 100 700 l 25
 201 700 l 25
 201 500 l 25xe8
 400 500 l 25
 400 400 l 25xf0
 201 400 l 25
 201 100 l 25xe8
 400 100 l 25
 400 0 l 25
 100 0 l 25
EndSplineSet
EndChar

StartChar: c
Encoding: 99 99 67
Width: 599
VWidth: 0
Flags: W
HStem: 0 100<209 521> 400 100<209 521>
VStem: 100 100<104 418> 201 301<0 104 418 521>
LayerCount: 2
Back
SplineSet
208.30078125 520.80078125 m 29
 520.80078125 520.80078125 l 25
 520.80078125 416.69921875 l 25
 208.30078125 416.69921875 l 25
 208.30078125 104.19921875 l 25
 520.80078125 104.19921875 l 25
 520.80078125 0 l 25
 208.30078125 0 l 25
 208.30078125 104.19921875 l 25
 104.19921875 104.19921875 l 25
 104.19921875 416.69921875 l 25
 208.30078125 416.69921875 l 25
 208.30078125 520.80078125 l 29
EndSplineSet
Fore
SplineSet
201 500 m 25xd0
 500 500 l 25
 500 400 l 25xd0
 201 400 l 25
 201 100 l 25xe0
 500 100 l 25
 500 0 l 25
 201 0 l 25xd0
 201 100 l 25
 100 100 l 25
 100 400 l 25
 201 400 l 25xe0
 201 500 l 25xd0
EndSplineSet
EndChar

StartChar: d
Encoding: 100 100 68
Width: 599
VWidth: 0
Flags: W
HStem: 0 100<209 418> 400 100<209 418> 700 0G<418 521>
VStem: 100 100<104 418> 201 301<0 104 418 521> 400 100<104 418 521 729>
LayerCount: 2
Back
SplineSet
208.30078125 520.80078125 m 29
 416.69921875 520.80078125 l 25
 416.69921875 729.19921875 l 25
 520.80078125 729.19921875 l 25
 520.80078125 0 l 25
 208.30078125 0 l 25
 208.30078125 104.19921875 l 25
 416.69921875 104.19921875 l 25
 416.69921875 416.69921875 l 25
 208.30078125 416.69921875 l 25
 208.30078125 104.19921875 l 25
 104.19921875 104.19921875 l 25
 104.19921875 416.69921875 l 25
 208.30078125 416.69921875 l 25
 208.30078125 520.80078125 l 29
EndSplineSet
Fore
SplineSet
201 500 m 25xe8
 400 500 l 25
 400 700 l 25
 500 700 l 25xe4
 500 0 l 25
 201 0 l 25xe8
 201 100 l 25
 400 100 l 25
 400 400 l 25
 201 400 l 25
 201 100 l 25
 100 100 l 25
 100 400 l 25
 201 400 l 25xf4
 201 500 l 25xe8
EndSplineSet
EndChar

StartChar: e
Encoding: 101 101 69
Width: 599
VWidth: 0
Flags: W
HStem: 0 100<209 521> 201 100<209 418> 400 100<209 418>
VStem: 100 100<104 209 312 418> 400 100<312 418>
CounterMasks: 1 e0
LayerCount: 2
Back
SplineSet
208.30078125 520.80078125 m 29
 416.69921875 520.80078125 l 25
 416.69921875 416.69921875 l 25
 208.30078125 416.69921875 l 25
 208.30078125 312.5 l 25
 416.69921875 312.5 l 25
 416.69921875 416.69921875 l 25
 520.80078125 416.69921875 l 25
 520.80078125 208.30078125 l 25
 208.30078125 208.30078125 l 25
 208.30078125 104.19921875 l 25
 520.80078125 104.19921875 l 25
 520.80078125 0 l 25
 208.30078125 0 l 25
 208.30078125 104.19921875 l 25
 104.19921875 104.19921875 l 25
 104.19921875 416.69921875 l 25
 208.30078125 416.69921875 l 25
 208.30078125 520.80078125 l 29
EndSplineSet
Fore
SplineSet
201 500 m 25
 400 500 l 25
 400 400 l 25
 201 400 l 25
 201 301 l 25
 400 301 l 25
 400 400 l 25
 500 400 l 25
 500 201 l 25
 201 201 l 25
 201 100 l 25
 500 100 l 25
 500 0 l 25
 201 0 l 25
 201 100 l 25
 100 100 l 25
 100 400 l 25
 201 400 l 25
 201 500 l 25
EndSplineSet
EndChar

StartChar: f
Encoding: 102 102 70
Width: 599
VWidth: 0
Flags: W
HStem: 0 0G<209 312> 400 100<312 521> 600 100<312 521>
VStem: 201 100<0 418 521 625>
LayerCount: 2
Back
SplineSet
208.30078125 625 m 29
 312.5 625 l 25
 312.5 729.19921875 l 25
 520.80078125 729.19921875 l 25
 520.80078125 625 l 25
 312.5 625 l 25
 312.5 520.80078125 l 25
 520.80078125 520.80078125 l 25
 520.80078125 416.69921875 l 25
 312.5 416.69921875 l 25
 312.5 0 l 25
 208.30078125 0 l 25
 208.30078125 625 l 29
EndSplineSet
Fore
SplineSet
201 600 m 25
 301 600 l 25
 301 700 l 25
 500 700 l 25
 500 600 l 25
 301 600 l 25
 301 500 l 25
 500 500 l 25
 500 400 l 25
 301 400 l 25
 301 0 l 25
 201 0 l 25
 201 600 l 25
EndSplineSet
EndChar

StartChar: g
Encoding: 103 103 71
Width: 599
VWidth: 0
Flags: W
HStem: -100 100<209 418> 100 100<209 418> 400 100<209 418>
VStem: 100 100<209 418> 201 301<104 209 418 521> 400 100<0 104 209 418>
LayerCount: 2
Back
SplineSet
104.19921875 416.69921875 m 29
 208.30078125 416.69921875 l 25
 208.30078125 520.80078125 l 25
 520.80078125 520.80078125 l 25
 520.80078125 0 l 25
 416.69921875 0 l 25
 416.69921875 -104.19921875 l 25
 208.30078125 -104.19921875 l 25
 208.30078125 0 l 25
 416.69921875 0 l 25
 416.69921875 104.19921875 l 25
 208.30078125 104.19921875 l 25
 208.30078125 208.30078125 l 25
 416.69921875 208.30078125 l 25
 416.69921875 416.69921875 l 25
 208.30078125 416.69921875 l 25
 208.30078125 208.30078125 l 25
 104.19921875 208.30078125 l 25
 104.19921875 416.69921875 l 29
EndSplineSet
Fore
SplineSet
100 400 m 25
 201 400 l 25
 201 100 l 25
 400 100 l 25
 400 400 l 25
 201 400 l 25
 201 500 l 25
 500 500 l 25
 500 -100 l 25
 400 -100 l 25
 400 -201 l 25
 201 -201 l 25
 201 -100 l 25
 400 -100 l 25
 400 0 l 25
 201 0 l 25
 201 100 l 25
 100 100 l 25
 100 400 l 25
EndSplineSet
EndChar

StartChar: h
Encoding: 104 104 72
Width: 599
VWidth: 0
Flags: W
HStem: 0 0G<104 209 418 521> 400 100<209 418> 700 0G<104 209>
VStem: 100 100<0 418 521 729> 400 100<0 418>
LayerCount: 2
Back
SplineSet
104.19921875 729.19921875 m 29
 208.30078125 729.19921875 l 25
 208.30078125 520.80078125 l 25
 416.69921875 520.80078125 l 25
 416.69921875 416.69921875 l 25
 520.80078125 416.69921875 l 25
 520.80078125 0 l 25
 416.69921875 0 l 25
 416.69921875 416.69921875 l 25
 208.30078125 416.69921875 l 25
 208.30078125 0 l 25
 104.19921875 0 l 25
 104.19921875 729.19921875 l 29
EndSplineSet
Fore
SplineSet
100 700 m 25
 201 700 l 25
 201 500 l 25
 400 500 l 25
 400 400 l 25
 500 400 l 25
 500 0 l 25
 400 0 l 25
 400 400 l 25
 201 400 l 25
 201 0 l 25
 100 0 l 25
 100 700 l 25
EndSplineSet
EndChar

StartChar: i
Encoding: 105 105 73
Width: 599
VWidth: 0
Flags: W
HStem: 0 0G<312 418> 500 0G<312 418> 600 100<312 418>
VStem: 301 100<0 521 625 729>
LayerCount: 2
Back
SplineSet
312.5 520.80078125 m 29
 416.69921875 520.80078125 l 25
 416.69921875 0 l 25
 312.5 0 l 25
 312.5 520.80078125 l 29
312.5 729.19921875 m 25
 416.69921875 729.19921875 l 25
 416.69921875 625 l 25
 312.5 625 l 25
 312.5 729.19921875 l 25
EndSplineSet
Fore
SplineSet
301 500 m 25
 400 500 l 25
 400 0 l 25
 301 0 l 25
 301 500 l 25
301 700 m 25
 400 700 l 25
 400 600 l 25
 301 600 l 25
 301 700 l 25
EndSplineSet
EndChar

StartChar: j
Encoding: 106 106 74
Width: 599
VWidth: 0
Flags: W
HStem: -100 100<209 312> 500 0G<312 418> 600 100<312 418>
VStem: 201 100<-104 0> 301 100<0 521 625 729>
LayerCount: 2
Back
SplineSet
312.5 520.80078125 m 29
 416.69921875 520.80078125 l 25
 416.69921875 0 l 25
 312.5 0 l 25
 312.5 -104.19921875 l 25
 208.30078125 -104.19921875 l 25
 208.30078125 0 l 25
 312.5 0 l 25
 312.5 520.80078125 l 29
312.5 729.19921875 m 25
 416.69921875 729.19921875 l 25
 416.69921875 625 l 25
 312.5 625 l 25
 312.5 729.19921875 l 25
EndSplineSet
Fore
SplineSet
301 500 m 25xe8
 400 500 l 25
 400 0 l 25xe8
 301 0 l 25
 301 -100 l 25
 201 -100 l 25
 201 0 l 25
 301 0 l 25xf0
 301 500 l 25xe8
301 700 m 25
 400 700 l 25
 400 600 l 25
 301 600 l 25
 301 700 l 25
EndSplineSet
EndChar

StartChar: k
Encoding: 107 107 75
Width: 599
VWidth: 0
Flags: W
HStem: 0 100<418 521> 100 100<312 418> 301 100<312 418> 400 100<418 521> 700 0G<104 209>
VStem: 100 100<0 209 312 729> 301 100<104 209 312 418> 400 100<0 104 418 521>
LayerCount: 2
Back
SplineSet
104.19921875 729.19921875 m 29
 208.30078125 729.19921875 l 25
 208.30078125 312.5 l 25
 312.5 312.5 l 25
 312.5 416.69921875 l 25
 416.69921875 416.69921875 l 25
 416.69921875 520.80078125 l 25
 520.80078125 520.80078125 l 25
 520.80078125 416.69921875 l 25
 416.69921875 416.69921875 l 25
 416.69921875 312.5 l 25
 312.5 312.5 l 25
 312.5 208.30078125 l 25
 416.69921875 208.30078125 l 25
 416.69921875 104.19921875 l 25
 520.80078125 104.19921875 l 25
 520.80078125 0 l 25
 416.69921875 0 l 25
 416.69921875 104.19921875 l 25
 312.5 104.19921875 l 25
 312.5 208.30078125 l 25
 208.30078125 208.30078125 l 25
 208.30078125 0 l 25
 104.19921875 0 l 25
 104.19921875 729.19921875 l 29
EndSplineSet
Fore
SplineSet
100 700 m 25x8e
 201 700 l 25
 201 301 l 25
 301 301 l 25
 301 400 l 25
 400 400 l 25xae
 400 500 l 25
 500 500 l 25
 500 400 l 25x1d
 400 400 l 25
 400 301 l 25
 301 301 l 25
 301 201 l 25
 400 201 l 25x6e
 400 100 l 25x8e
 500 100 l 25
 500 0 l 25
 400 0 l 25x8d
 400 100 l 25x8e
 301 100 l 25
 301 201 l 25
 201 201 l 25x4e
 201 0 l 25
 100 0 l 25
 100 700 l 25x8e
EndSplineSet
EndChar

StartChar: l
Encoding: 108 108 76
Width: 599
VWidth: 0
Flags: W
HStem: 0 100<312 521> 700 0G<209 312>
VStem: 201 100<104 729>
LayerCount: 2
Back
SplineSet
208.30078125 729.19921875 m 29
 312.5 729.19921875 l 25
 312.5 104.19921875 l 25
 520.80078125 104.19921875 l 25
 520.80078125 0 l 25
 312.5 0 l 25
 312.5 104.19921875 l 25
 208.30078125 104.19921875 l 25
 208.30078125 729.19921875 l 29
EndSplineSet
Fore
SplineSet
201 700 m 25
 301 700 l 25
 301 100 l 25
 500 100 l 25
 500 0 l 25
 301 0 l 25
 301 100 l 25
 201 100 l 25
 201 700 l 25
EndSplineSet
EndChar

StartChar: m
Encoding: 109 109 77
Width: 599
VWidth: 0
Flags: W
HStem: 0 0G<104 209 521 625> 400 100<209 312 418 521>
VStem: 100 100<0 418> 301 100<104 418> 500 100<0 418>
CounterMasks: 1 38
LayerCount: 2
Back
SplineSet
104.19921875 0 m 29
 104.19921875 520.80078125 l 25
 520.80078125 520.80078125 l 25
 520.80078125 416.69921875 l 25
 625 416.69921875 l 25
 625 0 l 25
 520.80078125 0 l 25
 520.80078125 416.69921875 l 25
 416.69921875 416.69921875 l 25
 416.69921875 104.19921875 l 25
 312.5 104.19921875 l 25
 312.5 416.69921875 l 25
 208.30078125 416.69921875 l 25
 208.30078125 0 l 25
 104.19921875 0 l 29
EndSplineSet
Fore
SplineSet
100 0 m 25
 100 500 l 25
 500 500 l 25
 500 400 l 25
 600 400 l 25
 600 0 l 25
 500 0 l 25
 500 400 l 25
 400 400 l 25
 400 100 l 25
 301 100 l 25
 301 400 l 25
 201 400 l 25
 201 0 l 25
 100 0 l 25
EndSplineSet
EndChar

StartChar: n
Encoding: 110 110 78
Width: 599
VWidth: 0
Flags: W
HStem: 0 0G<104 209 418 521> 400 100<209 418>
VStem: 100 100<0 418> 400 100<0 418>
LayerCount: 2
Back
SplineSet
104.19921875 520.80078125 m 29
 416.69921875 520.80078125 l 25
 416.69921875 416.69921875 l 25
 520.80078125 416.69921875 l 25
 520.80078125 0 l 25
 416.69921875 0 l 25
 416.69921875 416.69921875 l 25
 208.30078125 416.69921875 l 25
 208.30078125 0 l 25
 104.19921875 0 l 25
 104.19921875 520.80078125 l 29
EndSplineSet
Fore
SplineSet
100 500 m 25
 400 500 l 25
 400 400 l 25
 500 400 l 25
 500 0 l 25
 400 0 l 25
 400 400 l 25
 201 400 l 25
 201 0 l 25
 100 0 l 25
 100 500 l 25
EndSplineSet
EndChar

StartChar: o
Encoding: 111 111 79
Width: 599
VWidth: 0
Flags: W
HStem: 0 100<209 418> 100 301<104 209 418 521>
VStem: 100 100<104 418> 201 201<0 104 418 521>
LayerCount: 2
Back
SplineSet
208.30078125 520.80078125 m 29x28
 416.69921875 520.80078125 l 25
 416.69921875 416.69921875 l 25
 520.80078125 416.69921875 l 25
 520.80078125 104.19921875 l 25
 416.69921875 104.19921875 l 25x28
 416.69921875 0 l 25
 208.30078125 0 l 25x88
 208.30078125 104.19921875 l 25
 104.19921875 104.19921875 l 25
 104.19921875 416.69921875 l 25
 208.30078125 416.69921875 l 25
 208.30078125 104.19921875 l 25x30
 416.69921875 104.19921875 l 25
 416.69921875 416.69921875 l 25x28
 208.30078125 416.69921875 l 25x30
 208.30078125 520.80078125 l 29x28
EndSplineSet
Fore
SplineSet
201 500 m 25x50
 400 500 l 25
 400 400 l 25
 500 400 l 25
 500 100 l 25x50
 400 100 l 25
 400 0 l 25
 201 0 l 25x90
 201 100 l 25xa0
 100 100 l 25
 100 400 l 25
 201 400 l 25x60
 201 100 l 25xa0
 400 100 l 25x90
 400 400 l 25x50
 201 400 l 25x60
 201 500 l 25x50
EndSplineSet
EndChar

StartChar: p
Encoding: 112 112 80
Width: 599
VWidth: 0
Flags: W
HStem: -100 0G<104 209> 100 100<209 418> 400 100<209 418>
VStem: 100 301<104 209 418 521> 100 100<-104 104 209 418> 400 100<209 418>
LayerCount: 2
Back
SplineSet
104.19921875 520.80078125 m 29
 416.69921875 520.80078125 l 25
 416.69921875 416.69921875 l 25
 520.80078125 416.69921875 l 25
 520.80078125 208.30078125 l 25
 416.69921875 208.30078125 l 25
 416.69921875 416.69921875 l 25
 208.30078125 416.69921875 l 25
 208.30078125 208.30078125 l 25
 416.69921875 208.30078125 l 25
 416.69921875 104.19921875 l 25
 208.30078125 104.19921875 l 25
 208.30078125 -104.19921875 l 25
 104.19921875 -104.19921875 l 25
 104.19921875 520.80078125 l 29
EndSplineSet
Fore
SplineSet
100 500 m 25
 400 500 l 25
 400 400 l 25
 201 400 l 25
 201 100 l 25
 400 100 l 25
 400 400 l 25
 500 400 l 25
 500 100 l 25
 400 100 l 25
 400 0 l 25
 201 0 l 25
 201 -201 l 25
 100 -201 l 25
 100 500 l 25
EndSplineSet
EndChar

StartChar: q
Encoding: 113 113 81
Width: 599
VWidth: 0
Flags: W
HStem: -100 0G<418 521> 100 100<209 418> 400 100<209 418>
VStem: 100 100<209 418> 201 301<104 209 418 521> 400 100<-104 104 209 418>
LayerCount: 2
Back
SplineSet
208.30078125 520.80078125 m 29
 520.80078125 520.80078125 l 25
 520.80078125 -104.19921875 l 25
 416.69921875 -104.19921875 l 25
 416.69921875 104.19921875 l 25
 208.30078125 104.19921875 l 25
 208.30078125 208.30078125 l 25
 104.19921875 208.30078125 l 25
 104.19921875 416.69921875 l 25
 208.30078125 416.69921875 l 25
 208.30078125 208.30078125 l 25
 416.69921875 208.30078125 l 25
 416.69921875 416.69921875 l 25
 208.30078125 416.69921875 l 25
 208.30078125 520.80078125 l 29
EndSplineSet
Fore
SplineSet
100 400 m 25
 201 400 l 25
 201 100 l 25
 400 100 l 25
 400 400 l 25
 201 400 l 25
 201 500 l 25
 500 500 l 25
 500 -201 l 25
 400 -201 l 25
 400 0 l 25
 201 0 l 25
 201 100 l 25
 100 100 l 25
 100 400 l 25
EndSplineSet
EndChar

StartChar: r
Encoding: 114 114 82
Width: 599
VWidth: 0
Flags: W
HStem: 0 0G<209 312> 400 100<312 521>
VStem: 201 100<0 418>
LayerCount: 2
Back
SplineSet
312.5 520.80078125 m 29
 520.80078125 520.80078125 l 25
 520.80078125 416.69921875 l 25
 312.5 416.69921875 l 25
 312.5 0 l 25
 208.30078125 0 l 25
 208.30078125 416.69921875 l 25
 312.5 416.69921875 l 25
 312.5 520.80078125 l 29
EndSplineSet
Fore
SplineSet
301 500 m 25
 500 500 l 25
 500 400 l 25
 301 400 l 25
 301 0 l 25
 201 0 l 25
 201 400 l 25
 301 400 l 25
 301 500 l 25
EndSplineSet
EndChar

StartChar: s
Encoding: 115 115 83
Width: 599
VWidth: 0
Flags: W
HStem: 0 100<104 418> 201 100<209 418> 400 100<209 521>
VStem: 100 100<312 418> 400 100<104 209>
CounterMasks: 1 e0
LayerCount: 2
Back
SplineSet
208.30078125 520.80078125 m 29
 520.80078125 520.80078125 l 25
 520.80078125 416.69921875 l 25
 208.30078125 416.69921875 l 25
 208.30078125 312.5 l 25
 416.69921875 312.5 l 25
 416.69921875 208.30078125 l 25
 520.80078125 208.30078125 l 25
 520.80078125 104.19921875 l 25
 416.69921875 104.19921875 l 25
 416.69921875 0 l 25
 104.19921875 0 l 25
 104.19921875 104.19921875 l 25
 416.69921875 104.19921875 l 25
 416.69921875 208.30078125 l 25
 208.30078125 208.30078125 l 25
 208.30078125 312.5 l 25
 104.19921875 312.5 l 25
 104.19921875 416.69921875 l 25
 208.30078125 416.69921875 l 25
 208.30078125 520.80078125 l 29
EndSplineSet
Fore
SplineSet
201 500 m 25
 500 500 l 25
 500 400 l 25
 201 400 l 25
 201 301 l 25
 400 301 l 25
 400 201 l 25
 500 201 l 25
 500 100 l 25
 400 100 l 25
 400 0 l 25
 100 0 l 25
 100 100 l 25
 400 100 l 25
 400 201 l 25
 201 201 l 25
 201 301 l 25
 100 301 l 25
 100 400 l 25
 201 400 l 25
 201 500 l 25
EndSplineSet
EndChar

StartChar: t
Encoding: 116 116 84
Width: 599
VWidth: 0
Flags: W
HStem: 0 100<312 521> 400 100<312 521> 700 0G<209 312>
VStem: 201 100<104 418 521 729>
LayerCount: 2
Back
SplineSet
208.30078125 729.19921875 m 29
 312.5 729.19921875 l 25
 312.5 520.80078125 l 25
 520.80078125 520.80078125 l 25
 520.80078125 416.69921875 l 25
 312.5 416.69921875 l 25
 312.5 104.19921875 l 25
 520.80078125 104.19921875 l 25
 520.80078125 0 l 25
 312.5 0 l 25
 312.5 104.19921875 l 25
 208.30078125 104.19921875 l 25
 208.30078125 729.19921875 l 29
EndSplineSet
Fore
SplineSet
201 700 m 25
 301 700 l 25
 301 500 l 25
 500 500 l 25
 500 400 l 25
 301 400 l 25
 301 100 l 25
 500 100 l 25
 500 0 l 25
 301 0 l 25
 301 100 l 25
 201 100 l 25
 201 700 l 25
EndSplineSet
EndChar

StartChar: u
Encoding: 117 117 85
Width: 599
VWidth: 0
Flags: W
HStem: 0 100<209 418> 500 0G<104 209 418 521>
VStem: 100 100<104 521> 400 100<104 521>
LayerCount: 2
Back
SplineSet
104.19921875 520.80078125 m 29
 208.30078125 520.80078125 l 25
 208.30078125 104.19921875 l 25
 416.69921875 104.19921875 l 25
 416.69921875 520.80078125 l 25
 520.80078125 520.80078125 l 25
 520.80078125 0 l 25
 208.30078125 0 l 25
 208.30078125 104.19921875 l 25
 104.19921875 104.19921875 l 25
 104.19921875 520.80078125 l 29
EndSplineSet
Fore
SplineSet
100 500 m 25
 201 500 l 25
 201 100 l 25
 400 100 l 25
 400 500 l 25
 500 500 l 25
 500 0 l 25
 201 0 l 25
 201 100 l 25
 100 100 l 25
 100 500 l 25
EndSplineSet
EndChar

StartChar: v
Encoding: 118 118 86
Width: 599
VWidth: 0
Flags: W
HStem: 0 201<209 418> 201 301<104 209 418 521>
VStem: 100 100<209 521> 400 100<209 521>
LayerCount: 2
Back
SplineSet
104.19921875 520.80078125 m 29
 208.30078125 520.80078125 l 25
 208.30078125 208.30078125 l 25
 416.69921875 208.30078125 l 25
 416.69921875 520.80078125 l 25
 520.80078125 520.80078125 l 25
 520.80078125 208.30078125 l 25
 416.69921875 208.30078125 l 25
 416.69921875 0 l 25
 208.30078125 0 l 25
 208.30078125 208.30078125 l 25
 104.19921875 208.30078125 l 25
 104.19921875 520.80078125 l 29
EndSplineSet
Fore
SplineSet
100 500 m 25x70
 201 500 l 25x70
 201 201 l 25
 400 201 l 25xb0
 400 500 l 25
 500 500 l 25
 500 201 l 25x70
 400 201 l 25
 400 0 l 25
 201 0 l 25
 201 201 l 25xb0
 100 201 l 25
 100 500 l 25x70
EndSplineSet
EndChar

StartChar: w
Encoding: 119 119 87
Width: 599
VWidth: 0
Flags: W
HStem: 0 100<209 312 418 521> 500 0G<104 209 521 625>
VStem: 100 100<104 521> 301 100<104 418> 500 100<104 521>
CounterMasks: 1 38
LayerCount: 2
Back
SplineSet
104.19921875 520.80078125 m 29
 208.30078125 520.80078125 l 25
 208.30078125 104.19921875 l 25
 312.5 104.19921875 l 25
 312.5 416.69921875 l 25
 416.69921875 416.69921875 l 25
 416.69921875 104.19921875 l 25
 520.80078125 104.19921875 l 25
 520.80078125 520.80078125 l 25
 625 520.80078125 l 25
 625 0 l 25
 208.30078125 0 l 25
 208.30078125 104.19921875 l 25
 104.19921875 104.19921875 l 25
 104.19921875 520.80078125 l 29
EndSplineSet
Fore
SplineSet
100 500 m 25
 201 500 l 25
 201 100 l 25
 301 100 l 25
 301 400 l 25
 400 400 l 25
 400 100 l 25
 500 100 l 25
 500 500 l 25
 600 500 l 25
 600 0 l 25
 201 0 l 25
 201 100 l 25
 100 100 l 25
 100 500 l 25
EndSplineSet
EndChar

StartChar: x
Encoding: 120 120 88
Width: 599
VWidth: 0
Flags: W
HStem: 0 201<104 209 418 521> 301 201<104 209 418 521>
VStem: 100 100<0 209 312 521> 400 100<0 209 312 521>
LayerCount: 2
Back
SplineSet
104.19921875 520.80078125 m 29
 208.30078125 520.80078125 l 25
 208.30078125 312.5 l 25
 416.69921875 312.5 l 25
 416.69921875 520.80078125 l 25
 520.80078125 520.80078125 l 25
 520.80078125 312.5 l 25
 416.69921875 312.5 l 25
 416.69921875 208.30078125 l 25
 520.80078125 208.30078125 l 25
 520.80078125 0 l 25
 416.69921875 0 l 25
 416.69921875 208.30078125 l 25
 208.30078125 208.30078125 l 25
 208.30078125 0 l 25
 104.19921875 0 l 25
 104.19921875 208.30078125 l 25
 208.30078125 208.30078125 l 25
 208.30078125 312.5 l 25
 104.19921875 312.5 l 25
 104.19921875 520.80078125 l 29
EndSplineSet
Fore
SplineSet
100 500 m 25
 201 500 l 25
 201 301 l 25
 400 301 l 25
 400 500 l 25
 500 500 l 25
 500 301 l 25
 400 301 l 25
 400 201 l 25
 500 201 l 25
 500 0 l 25
 400 0 l 25
 400 201 l 25
 201 201 l 25
 201 0 l 25
 100 0 l 25
 100 201 l 25
 201 201 l 25
 201 301 l 25
 100 301 l 25
 100 500 l 25
EndSplineSet
EndChar

StartChar: y
Encoding: 121 121 89
Width: 599
VWidth: 0
Flags: W
HStem: -100 100<209 418> 100 100<209 418> 500 0G<104 209 418 521>
VStem: 100 100<209 521> 400 100<0 104 209 521>
LayerCount: 2
Back
SplineSet
104.19921875 520.80078125 m 29
 208.30078125 520.80078125 l 25
 208.30078125 208.30078125 l 25
 416.69921875 208.30078125 l 25
 416.69921875 520.80078125 l 25
 520.80078125 520.80078125 l 25
 520.80078125 0 l 25
 416.69921875 0 l 25
 416.69921875 -104.19921875 l 25
 208.30078125 -104.19921875 l 25
 208.30078125 0 l 25
 416.69921875 0 l 25
 416.69921875 104.19921875 l 25
 208.30078125 104.19921875 l 25
 208.30078125 208.30078125 l 25
 104.19921875 208.30078125 l 25
 104.19921875 520.80078125 l 29
EndSplineSet
Fore
SplineSet
100 500 m 25
 201 500 l 25
 201 201 l 25
 400 201 l 25
 400 500 l 25
 500 500 l 25
 500 0 l 25
 400 0 l 25
 400 -100 l 25
 201 -100 l 25
 201 0 l 25
 400 0 l 25
 400 100 l 25
 201 100 l 25
 201 201 l 25
 100 201 l 25
 100 500 l 25
EndSplineSet
EndChar

StartChar: z
Encoding: 122 122 90
Width: 599
VWidth: 0
Flags: W
HStem: 0 100<209 521> 201 100<209 418> 400 100<104 418>
VStem: 100 100<104 209> 400 100<312 418>
CounterMasks: 1 e0
LayerCount: 2
Back
SplineSet
104.19921875 520.80078125 m 29
 520.80078125 520.80078125 l 25
 520.80078125 312.5 l 25
 416.69921875 312.5 l 25
 416.69921875 208.30078125 l 25
 208.30078125 208.30078125 l 25
 208.30078125 104.19921875 l 25
 520.80078125 104.19921875 l 25
 520.80078125 0 l 25
 104.19921875 0 l 25
 104.19921875 208.30078125 l 25
 208.30078125 208.30078125 l 25
 208.30078125 312.5 l 25
 416.69921875 312.5 l 25
 416.69921875 416.69921875 l 25
 104.19921875 416.69921875 l 25
 104.19921875 520.80078125 l 29
EndSplineSet
Fore
SplineSet
100 500 m 25
 500 500 l 25
 500 301 l 25
 400 301 l 25
 400 201 l 25
 201 201 l 25
 201 100 l 25
 500 100 l 25
 500 0 l 25
 100 0 l 25
 100 201 l 25
 201 201 l 25
 201 301 l 25
 400 301 l 25
 400 400 l 25
 100 400 l 25
 100 500 l 25
EndSplineSet
EndChar

StartChar: braceleft
Encoding: 123 123 91
Width: 599
VWidth: 0
Flags: W
HStem: 0 100<418 521> 301 100<209 312> 600 100<418 521>
VStem: 201 100<312 418> 301 100<104 312 418 625> 400 100<0 104 625 729>
CounterMasks: 1 e0
LayerCount: 2
Back
SplineSet
416.69921875 729.19921875 m 29
 520.80078125 729.19921875 l 25
 520.80078125 625 l 25
 416.69921875 625 l 25
 416.69921875 416.69921875 l 25
 312.5 416.69921875 l 25
 312.5 312.5 l 25
 416.69921875 312.5 l 25
 416.69921875 104.19921875 l 25
 520.80078125 104.19921875 l 25
 520.80078125 0 l 25
 416.69921875 0 l 25
 416.69921875 104.19921875 l 25
 312.5 104.19921875 l 25
 312.5 312.5 l 25
 208.30078125 312.5 l 25
 208.30078125 416.69921875 l 25
 312.5 416.69921875 l 25
 312.5 625 l 25
 416.69921875 625 l 25
 416.69921875 729.19921875 l 29
EndSplineSet
Fore
SplineSet
400 700 m 25xe4
 500 700 l 25
 500 600 l 25xe4
 400 600 l 25
 400 400 l 25xe8
 301 400 l 25
 301 301 l 25xf0
 400 301 l 25
 400 100 l 25xe8
 500 100 l 25
 500 0 l 25
 400 0 l 25xe4
 400 100 l 25
 301 100 l 25xe8
 301 301 l 25
 201 301 l 25
 201 400 l 25
 301 400 l 25xf0
 301 600 l 25
 400 600 l 25xe8
 400 700 l 25xe4
EndSplineSet
EndChar

StartChar: bar
Encoding: 124 124 92
Width: 599
VWidth: 0
Flags: W
HStem: -100 0G<312 418> 600 0G<312 418>
VStem: 301 100<-104 625>
LayerCount: 2
Back
SplineSet
312.5 625 m 29
 416.69921875 625 l 25
 416.69921875 -104.19921875 l 25
 312.5 -104.19921875 l 25
 312.5 625 l 29
EndSplineSet
Fore
SplineSet
301 600 m 25
 400 600 l 25
 400 -100 l 25
 301 -100 l 25
 301 600 l 25
EndSplineSet
EndChar

StartChar: braceright
Encoding: 125 125 93
Width: 599
VWidth: 0
Flags: W
HStem: 0 100<104 209> 301 100<312 418> 600 100<104 209>
VStem: 100 100<0 104 625 729> 201 100<104 312 418 625> 301 100<312 418>
CounterMasks: 1 e0
LayerCount: 2
Back
SplineSet
104.19921875 729.19921875 m 29
 208.30078125 729.19921875 l 25
 208.30078125 625 l 25
 312.5 625 l 25
 312.5 416.69921875 l 25
 416.69921875 416.69921875 l 25
 416.69921875 312.5 l 25
 312.5 312.5 l 25
 312.5 104.19921875 l 25
 208.30078125 104.19921875 l 25
 208.30078125 0 l 25
 104.19921875 0 l 25
 104.19921875 104.19921875 l 25
 208.30078125 104.19921875 l 25
 208.30078125 312.5 l 25
 312.5 312.5 l 25
 312.5 416.69921875 l 25
 208.30078125 416.69921875 l 25
 208.30078125 625 l 25
 104.19921875 625 l 25
 104.19921875 729.19921875 l 29
EndSplineSet
Fore
SplineSet
100 700 m 25xf0
 201 700 l 25
 201 600 l 25xf0
 301 600 l 25
 301 400 l 25xe8
 400 400 l 25
 400 301 l 25xe4
 301 301 l 25
 301 100 l 25xe8
 201 100 l 25
 201 0 l 25
 100 0 l 25
 100 100 l 25
 201 100 l 25xf0
 201 301 l 25
 301 301 l 25
 301 400 l 25
 201 400 l 25xe8
 201 600 l 25
 100 600 l 25
 100 700 l 25xf0
EndSplineSet
EndChar

StartChar: asciitilde
Encoding: 126 126 94
Width: 599
VWidth: 0
Flags: W
HStem: 201 100<104 209 312 521> 301 100<209 312 521 625>
VStem: 100 100<209 312> 500 100<312 418>
LayerCount: 2
Back
SplineSet
104.19921875 312.5 m 29
 208.30078125 312.5 l 25
 208.30078125 416.69921875 l 25
 312.5 416.69921875 l 25
 312.5 312.5 l 25
 520.80078125 312.5 l 25
 520.80078125 416.69921875 l 25
 625 416.69921875 l 25
 625 312.5 l 25
 520.80078125 312.5 l 25
 520.80078125 208.30078125 l 25
 312.5 208.30078125 l 25
 312.5 312.5 l 25
 208.30078125 312.5 l 25
 208.30078125 208.30078125 l 25
 104.19921875 208.30078125 l 25
 104.19921875 312.5 l 29
EndSplineSet
Fore
SplineSet
100 301 m 25xb0
 201 301 l 25xb0
 201 400 l 25
 301 400 l 25x70
 301 301 l 25
 500 301 l 25xb0
 500 400 l 25
 600 400 l 25
 600 301 l 25x70
 500 301 l 25
 500 201 l 25
 301 201 l 25
 301 301 l 25
 201 301 l 25
 201 201 l 25
 100 201 l 25
 100 301 l 25xb0
EndSplineSet
EndChar

StartChar: exclamdown
Encoding: 161 161 96
Width: 599
VWidth: 0
Flags: W
HStem: -100 0G<312 418> 500 100<312 418>
VStem: 301 100<-104 418 521 625>
LayerCount: 2
Back
SplineSet
312.5 416.69921875 m 29
 416.69921875 416.69921875 l 25
 416.69921875 -104.19921875 l 25
 312.5 -104.19921875 l 25
 312.5 416.69921875 l 29
416.69921875 625 m 25
 416.69921875 520.80078125 l 25
 312.5 520.80078125 l 25
 312.5 625 l 25
 416.69921875 625 l 25
EndSplineSet
Fore
SplineSet
301 400 m 25
 400 400 l 25
 400 -100 l 25
 301 -100 l 25
 301 400 l 25
400 600 m 25
 400 500 l 25
 301 500 l 25
 301 600 l 25
 400 600 l 25
EndSplineSet
EndChar

StartChar: sterling
Encoding: 163 163 98
Width: 599
VWidth: 0
Flags: W
HStem: 0 100<104 209 312 625> 201 100<104 209 312 521> 500 100<312 625>
VStem: 201 100<104 209 312 521>
LayerCount: 2
Back
Fore
SplineSet
301 600 m 25
 600 600 l 25
 600 500 l 25
 301 500 l 25
 301 301 l 25
 500 301 l 25
 500 201 l 25
 301 201 l 25
 301 100 l 25
 600 100 l 25
 600 0 l 25
 100 0 l 25
 100 100 l 25
 201 100 l 25
 201 201 l 25
 100 201 l 25
 100 301 l 25
 201 301 l 25
 201 500 l 25
 301 500 l 25
 301 600 l 25
EndSplineSet
EndChar

StartChar: currency
Encoding: 256 164 99
Width: 599
VWidth: 0
Flags: W
HStem: 0 100<0 104 521 625> 500 100<0 104 521 625>
VStem: 0 100<0 104 521 625> 500 100<0 104 521 625>
LayerCount: 2
Back
Fore
SplineSet
201 400 m 25
 201 201 l 25
 400 201 l 25
 400 400 l 25
 201 400 l 25
0 600 m 25
 100 600 l 25
 100 500 l 25
 500 500 l 25
 500 600 l 25
 600 600 l 25
 600 500 l 25
 500 500 l 25
 500 100 l 25
 600 100 l 25
 600 0 l 25
 500 0 l 25
 500 100 l 25
 100 100 l 25
 100 0 l 25
 0 0 l 25
 0 100 l 25
 100 100 l 25
 100 500 l 25
 0 500 l 25
 0 600 l 25
EndSplineSet
EndChar

StartChar: yen
Encoding: 165 165 100
Width: 599
VWidth: 0
Flags: W
HStem: -100 0G<312 418> 0 100<209 312 418 521> 201 100<209 312 418 521> 400 100<209 312 418 521> 500 100<104 209 521 625>
VStem: 100 100<521 625> 201 100<418 521> 301 100<-104 0 104 209 312 418> 400 100<418 521> 500 100<521 625>
LayerCount: 2
Back
Fore
SplineSet
100 600 m 25xec
 201 600 l 25xec
 201 500 l 25xf4
 301 500 l 25
 301 400 l 25xf2
 400 400 l 25xf1
 400 500 l 25
 500 500 l 25xf080
 500 600 l 25
 600 600 l 25
 600 500 l 25xe840
 500 500 l 25
 500 400 l 25xf080
 400 400 l 25
 400 301 l 25
 500 301 l 25
 500 201 l 25
 400 201 l 25
 400 100 l 25
 500 100 l 25
 500 0 l 25
 400 0 l 25
 400 -100 l 25
 301 -100 l 25
 301 0 l 25xf140
 201 0 l 25
 201 100 l 25xf2
 301 100 l 25
 301 201 l 25xf1
 201 201 l 25
 201 301 l 25xf2
 301 301 l 25xf1
 301 400 l 25
 201 400 l 25xf2
 201 500 l 25xf4
 100 500 l 25
 100 600 l 25xec
EndSplineSet
EndChar

StartChar: brokenbar
Encoding: 257 166 101
Width: 599
VWidth: 0
Flags: W
HStem: -100 0G<312 418> 600 0G<312 418>
VStem: 301 100<-104 625>
LayerCount: 2
Back
Fore
SplineSet
301 600 m 25
 400 600 l 25
 400 -100 l 25
 301 -100 l 25
 301 600 l 25
EndSplineSet
EndChar

StartChar: section
Encoding: 167 167 102
Width: 599
VWidth: 0
Flags: W
HStem: -100 100<104 312> 100 100<209 312 418 521> 201 100<104 209 312 418> 400 100<312 521>
VStem: 100 100<209 312> 201 100<104 209 312 418> 301 100<0 104 209 312> 400 100<104 209>
LayerCount: 2
Back
Fore
SplineSet
201 500 m 25xb4
 500 500 l 25
 500 400 l 25
 301 400 l 25
 301 301 l 25xb5
 400 301 l 25xb2
 400 201 l 25xd2
 500 201 l 25
 500 100 l 25xd1
 400 100 l 25
 400 201 l 25xd2
 301 201 l 25xd4
 301 301 l 25xb4
 201 301 l 25xb8
 201 201 l 25xd8
 301 201 l 25
 301 100 l 25xd4
 400 100 l 25xd2
 400 -100 l 25xd1
 100 -100 l 25
 100 0 l 25
 301 0 l 25xda
 301 100 l 25
 201 100 l 25xd4
 201 201 l 25xd8
 100 201 l 25
 100 301 l 25
 201 301 l 25xb8
 201 500 l 25xb4
EndSplineSet
EndChar

StartChar: dieresis
Encoding: 258 168 103
Width: 599
VWidth: 0
Flags: W
HStem: 500 100<209 312 521 625>
VStem: 201 100<521 625> 500 100<521 625>
LayerCount: 2
Back
Fore
SplineSet
500 600 m 25
 600 600 l 25
 600 500 l 25
 500 500 l 25
 500 600 l 25
201 600 m 25
 301 600 l 25
 301 500 l 25
 201 500 l 25
 201 600 l 25
EndSplineSet
EndChar

StartChar: copyright
Encoding: 169 169 104
Width: 599
VWidth: 0
Flags: W
HStem: 0 100<209 418> 100 100<104 209 418 521> 201 100<209 418> 400 100<209 418> 500 100<104 209 418 521> 600 100<209 418>
VStem: 0 100<209 312 418 521> 100 100<104 209 521 625> 201 201<0 104 209 312 418 521 625 729> 400 100<104 209 521 625> 500 100<209 521>
LayerCount: 2
Back
Fore
SplineSet
201 700 m 25x0480
 400 700 l 25x0480
 400 600 l 25x0880
 201 600 l 25x09
 201 500 l 25x11
 100 500 l 25x0a
 100 400 l 25
 201 400 l 25
 201 301 l 25
 100 301 l 25x3280
 100 201 l 25x4280
 201 201 l 25x41
 201 100 l 25x81
 400 100 l 25x8080
 400 201 l 25x4080
 201 201 l 25x41
 201 301 l 25
 400 301 l 25x2080
 400 201 l 25x4080
 500 201 l 25
 500 500 l 25x4840
 400 500 l 25
 400 400 l 25
 201 400 l 25x1080
 201 500 l 25x11
 400 500 l 25x1080
 400 600 l 25x0880
 500 600 l 25
 500 500 l 25x0840
 600 500 l 25
 600 201 l 25x2820
 500 201 l 25
 500 100 l 25x4040
 400 100 l 25
 400 0 l 25
 201 0 l 25x8080
 201 100 l 25x81
 100 100 l 25x41
 100 201 l 25x42
 0 201 l 25
 0 500 l 25
 100 500 l 25x2a
 100 600 l 25
 201 600 l 25x29
 201 700 l 25x0480
EndSplineSet
EndChar

StartChar: ordfeminine
Encoding: 170 170 105
Width: 599
VWidth: 0
Flags: W
HStem: 100 100<209 312> 201 100<104 209> 301 100<209 312> 500 100<209 312>
VStem: 100 100<209 312> 201 100<521 625> 301 100<209 312 418 521>
LayerCount: 2
Back
Fore
SplineSet
201 600 m 25x34
 301 600 l 25
 301 500 l 25x34
 400 500 l 25
 400 100 l 25xb2
 201 100 l 25xb4
 201 201 l 25
 301 201 l 25
 301 301 l 25xba
 201 301 l 25x5a
 201 201 l 25x9a
 100 201 l 25
 100 301 l 25
 201 301 l 25x5a
 201 400 l 25x34
 301 400 l 25x32
 301 500 l 25
 201 500 l 25
 201 600 l 25x34
EndSplineSet
EndChar

StartChar: guillemotleft
Encoding: 171 171 106
Width: 599
VWidth: 0
Flags: W
HStem: 0 100<209 312 521 625> 100 100<104 209 418 521> 201 100<0 104 312 418> 301 100<104 209 418 521> 400 100<209 312 521 625>
VStem: 0 100<209 312> 100 100<104 209 312 418> 201 100<0 104 418 521> 301 100<209 312> 400 100<104 209 312 418> 500 100<0 104 418 521>
LayerCount: 2
Back
Fore
SplineSet
500 500 m 25x0820
 600 500 l 25
 600 400 l 25x0820
 500 400 l 25
 500 301 l 25x1040
 400 301 l 25x2080
 400 201 l 25x4080
 500 201 l 25x4040
 500 100 l 25x8040
 600 100 l 25
 600 0 l 25
 500 0 l 25x8020
 500 100 l 25x8040
 400 100 l 25x4040
 400 201 l 25x4080
 301 201 l 25
 301 301 l 25
 400 301 l 25x2080
 400 400 l 25
 500 400 l 25x1040
 500 500 l 25x0820
201 500 m 25x09
 301 500 l 25
 301 400 l 25x09
 201 400 l 25
 201 301 l 25x12
 100 301 l 25x24
 100 201 l 25x44
 201 201 l 25x42
 201 100 l 25x82
 301 100 l 25
 301 0 l 25
 201 0 l 25x81
 201 100 l 25x82
 100 100 l 25x42
 100 201 l 25x44
 0 201 l 25
 0 301 l 25
 100 301 l 25x24
 100 400 l 25
 201 400 l 25x12
 201 500 l 25x09
EndSplineSet
EndChar

StartChar: logicalnot
Encoding: 172 172 107
Width: 599
VWidth: 0
Flags: W
HStem: 0 0G<521 625> 201 100<104 521>
VStem: 500 100<0 209>
LayerCount: 2
Back
Fore
SplineSet
100 301 m 25
 600 301 l 25
 600 0 l 25
 500 0 l 25
 500 201 l 25
 100 201 l 25
 100 301 l 25
EndSplineSet
EndChar

StartChar: registered
Encoding: 174 174 108
Width: 599
VWidth: 0
Flags: W
HStem: 0 100<209 418> 100 100<104 209> 201 301<0 104 209 312 521 625> 500 100<104 209> 600 100<209 418>
VStem: 0 100<209 521> 100 100<104 209 521 625> 201 201<0 104 312 418 625 729> 201 100<209 312> 400 100<104 209 521 625> 500 100<312 418>
LayerCount: 2
Back
Fore
SplineSet
201 700 m 25x09
 400 700 l 25
 400 600 l 25x09
 201 600 l 25x12
 201 500 l 25x22
 100 500 l 25x24
 100 201 l 25x44
 201 201 l 25x42
 201 100 l 25x82
 400 100 l 25
 400 301 l 25
 500 301 l 25
 500 400 l 25
 400 400 l 25
 400 301 l 25x8120
 301 301 l 25
 301 201 l 25xa080
 201 201 l 25x42
 201 500 l 25x22
 400 500 l 25x1240
 400 600 l 25x09
 500 600 l 25
 500 500 l 25x2840
 600 500 l 25
 600 201 l 25x2820
 500 201 l 25x2840
 500 100 l 25x4040
 400 100 l 25
 400 0 l 25
 201 0 l 25x81
 201 100 l 25x82
 100 100 l 25x42
 100 201 l 25x44
 0 201 l 25
 0 500 l 25
 100 500 l 25x24
 100 600 l 25
 201 600 l 25x12
 201 700 l 25x09
EndSplineSet
EndChar

StartChar: macron
Encoding: 175 175 109
Width: 599
VWidth: 0
Flags: W
HStem: 500 100<209 521>
VStem: 201 301<521 625>
LayerCount: 2
Back
Fore
SplineSet
201 600 m 25
 500 600 l 25
 500 500 l 25
 201 500 l 25
 201 600 l 25
EndSplineSet
EndChar

StartChar: degree
Encoding: 176 176 110
Width: 599
VWidth: 0
Flags: W
HStem: 301 100<209 312> 400 100<104 209 312 418> 500 100<209 312>
VStem: 100 100<418 521> 201 100<312 418 521 625> 301 100<418 521>
LayerCount: 2
Back
Fore
SplineSet
201 600 m 25x28
 301 600 l 25x28
 301 500 l 25x48
 201 500 l 25x50
 201 400 l 25x90
 301 400 l 25x88
 301 500 l 25x48
 400 500 l 25
 400 400 l 25x44
 301 400 l 25
 301 301 l 25
 201 301 l 25x88
 201 400 l 25x90
 100 400 l 25
 100 500 l 25
 201 500 l 25x50
 201 600 l 25x28
EndSplineSet
EndChar

StartChar: plusminus
Encoding: 177 177 111
Width: 599
VWidth: 0
Flags: W
HStem: 100 100<209 521> 400 100<209 312 418 521> 600 0G<312 418>
VStem: 201 301<104 209 418 521> 301 100<312 418 521 625>
LayerCount: 2
Back
Fore
SplineSet
201 201 m 25xf0
 500 201 l 25
 500 100 l 25
 201 100 l 25
 201 201 l 25xf0
301 600 m 25xe8
 400 600 l 25
 400 500 l 25xe8
 500 500 l 25
 500 400 l 25xf0
 400 400 l 25
 400 301 l 25
 301 301 l 25
 301 400 l 25xe8
 201 400 l 25
 201 500 l 25xf0
 301 500 l 25
 301 600 l 25xe8
EndSplineSet
EndChar

StartChar: uni00B2
Encoding: 178 178 112
Width: 599
VWidth: 0
Flags: W
HStem: 301 100<104 209 312 418> 600 100<104 209> 700 100<209 312>
VStem: 100 100<625 729> 201 100<418 521 729 834> 301 100<521 729>
LayerCount: 2
Back
Fore
SplineSet
100 600 m 25xd0
 100 700 l 25
 201 700 l 25xd0
 201 800 l 25
 301 800 l 25
 301 700 l 25xa8
 400 700 l 25
 400 500 l 25xa4
 301 500 l 25
 301 400 l 25xa8
 400 400 l 25
 400 301 l 25
 100 301 l 25
 100 400 l 25xb4
 201 400 l 25
 201 500 l 25
 301 500 l 25
 301 700 l 25xa8
 201 700 l 25
 201 600 l 25
 100 600 l 25xd0
EndSplineSet
EndChar

StartChar: uni00B3
Encoding: 179 179 113
Width: 599
VWidth: 0
Flags: W
HStem: 301 100<104 312> 500 100<104 312> 700 100<104 312>
VStem: 100 201<312 418 521 625 729 834> 301 100<418 521 625 729>
CounterMasks: 1 e0
LayerCount: 2
Back
Fore
SplineSet
100 800 m 25xf0
 301 800 l 25
 301 700 l 25xf0
 400 700 l 25
 400 600 l 25xe8
 301 600 l 25
 301 500 l 25xf0
 400 500 l 25
 400 400 l 25xe8
 301 400 l 25
 301 301 l 25
 100 301 l 25
 100 400 l 25
 301 400 l 25
 301 500 l 25
 100 500 l 25
 100 600 l 25
 301 600 l 25
 301 700 l 25
 100 700 l 25
 100 800 l 25xf0
EndSplineSet
EndChar

StartChar: acute
Encoding: 259 180 114
Width: 599
VWidth: 0
Flags: W
HStem: 400 100<209 312> 700 0G<312 418>
VStem: 201 100<418 521> 301 100<521 729>
LayerCount: 2
Back
Fore
SplineSet
301 700 m 25xd0
 400 700 l 25
 400 500 l 25xd0
 301 500 l 25
 301 400 l 25
 201 400 l 25
 201 500 l 25
 301 500 l 25xe0
 301 700 l 25xd0
EndSplineSet
EndChar

StartChar: mu
Encoding: 181 181 115
Width: 599
VWidth: 0
Flags: W
HStem: 0 100<209 312> 100 100<312 418> 500 0G<104 209 418 521>
VStem: 100 100<-209 0 104 521> 400 100<0 104 209 521>
LayerCount: 2
Back
Fore
SplineSet
100 500 m 25xb8
 201 500 l 25
 201 100 l 25
 301 100 l 25xb8
 301 201 l 25
 400 201 l 25x78
 400 500 l 25
 500 500 l 25
 500 0 l 25
 400 0 l 25xb8
 400 100 l 25x78
 301 100 l 25
 301 0 l 25
 201 0 l 25
 201 -201 l 25
 100 -201 l 25
 100 500 l 25xb8
EndSplineSet
EndChar

StartChar: paragraph
Encoding: 182 182 116
Width: 599
VWidth: 0
Flags: W
HStem: -100 0G<209 312 418 521> 500 100<312 418>
VStem: 0 301<312 521> 201 100<-104 209> 400 100<-104 521>
LayerCount: 2
Back
Fore
SplineSet
0 500 m 25xe8
 100 500 l 25
 100 600 l 25
 500 600 l 25
 500 -100 l 25
 400 -100 l 25
 400 500 l 25
 301 500 l 25xe8
 301 -100 l 25
 201 -100 l 25
 201 201 l 25xd8
 100 201 l 25
 100 301 l 25
 0 301 l 25
 0 500 l 25xe8
EndSplineSet
EndChar

StartChar: periodcentered
Encoding: 183 183 117
Width: 599
VWidth: 0
Flags: W
HStem: 100 201<209 418>
VStem: 201 201<104 312>
LayerCount: 2
Back
Fore
SplineSet
201 301 m 25
 400 301 l 25
 400 100 l 25
 201 100 l 25
 201 301 l 25
EndSplineSet
EndChar

StartChar: cedilla
Encoding: 260 184 118
Width: 599
VWidth: 0
Flags: W
HStem: -201 100<209 418> 0 100<312 418>
VStem: 301 100<0 104> 400 100<-104 0>
LayerCount: 2
Back
Fore
SplineSet
301 100 m 25xe0
 400 100 l 25
 400 0 l 25xe0
 500 0 l 25
 500 -201 l 25
 201 -201 l 25
 201 -100 l 25
 400 -100 l 25xd0
 400 0 l 25
 301 0 l 25
 301 100 l 25xe0
EndSplineSet
EndChar

StartChar: uni00B9
Encoding: 185 185 119
Width: 599
VWidth: 0
Flags: W
HStem: 400 100<104 209> 600 0G<209 312>
VStem: 201 100<104 418 521 625>
LayerCount: 2
Back
Fore
SplineSet
100 500 m 25
 201 500 l 25
 201 600 l 25
 301 600 l 25
 301 100 l 25
 201 100 l 25
 201 400 l 25
 100 400 l 25
 100 500 l 25
EndSplineSet
EndChar

StartChar: ordmasculine
Encoding: 186 186 120
Width: 599
VWidth: 0
Flags: W
HStem: 201 100<209 418> 301 201<104 209 418 521> 500 100<209 418>
VStem: 100 100<312 521> 201 201<209 312 521 625> 400 100<312 521>
LayerCount: 2
Back
Fore
SplineSet
201 600 m 25x28
 400 600 l 25x28
 400 500 l 25x48
 500 500 l 25
 500 301 l 25x44
 400 301 l 25
 400 201 l 25
 201 201 l 25x88
 201 301 l 25x90
 400 301 l 25x88
 400 500 l 25x48
 201 500 l 25x50
 201 301 l 25x90
 100 301 l 25
 100 500 l 25
 201 500 l 25x50
 201 600 l 25x28
EndSplineSet
EndChar

StartChar: guillemotright
Encoding: 187 187 121
Width: 599
VWidth: 0
Flags: W
HStem: 0 100<0 104 312 418> 100 100<104 209 418 521> 201 100<209 312 521 625> 301 100<104 209 418 521> 400 100<0 104 312 418>
VStem: 0 100<0 104 418 521> 100 100<104 209 312 418> 201 100<209 312> 301 100<0 104 418 521> 400 100<104 209 312 418> 500 100<209 312>
LayerCount: 2
Back
Fore
SplineSet
301 500 m 25x0880
 400 500 l 25x0880
 400 400 l 25x1080
 500 400 l 25x1040
 500 301 l 25x2040
 600 301 l 25
 600 201 l 25x2020
 500 201 l 25
 500 100 l 25x4040
 400 100 l 25
 400 0 l 25
 301 0 l 25
 301 100 l 25
 400 100 l 25x8080
 400 201 l 25
 500 201 l 25x4040
 500 301 l 25x2040
 400 301 l 25x1040
 400 400 l 25x1080
 301 400 l 25
 301 500 l 25x0880
0 500 m 25x0c
 100 500 l 25x0c
 100 400 l 25x14
 201 400 l 25x12
 201 301 l 25x22
 301 301 l 25
 301 201 l 25x21
 201 201 l 25
 201 100 l 25x42
 100 100 l 25
 100 0 l 25
 0 0 l 25
 0 100 l 25
 100 100 l 25x84
 100 201 l 25
 201 201 l 25x42
 201 301 l 25x22
 100 301 l 25x12
 100 400 l 25x14
 0 400 l 25
 0 500 l 25x0c
EndSplineSet
EndChar

StartChar: onequarter
Encoding: 261 188 122
Width: 599
VWidth: 0
Flags: W
HStem: -100 0G<518 621> 0 100<412 518 621 725> 100 100<100 203> 201 100<203 309 412 518> 301 100<309 412> 400 100<412 518> 500 100<518 621> 600 100<100 203>
VStem: 100 100<104 209> 199 100<209 312 418 625 729 834> 301 100<104 209 312 418> 400 100<418 521> 500 100<-104 0 104 209 312 418 521 625>
LayerCount: 2
Back
Fore
SplineSet
100 700 m 25x8580
 199 700 l 1
 200 800 l 5
 300 800 l 1
 301 400 l 1x8940
 400 400 l 25x8920
 400 500 l 25
 500 500 l 25x8410
 500 600 l 25
 600 600 l 25
 600 500 l 25x8208
 500 500 l 25
 500 400 l 25x8410
 600 400 l 25
 600 100 l 25
 699 100 l 25
 699 0 l 25
 600 0 l 25
 600 -100 l 25
 500 -100 l 25
 500 0 l 25
 301 0 l 25xc428
 301 201 l 25xd440
 400 201 l 25
 400 100 l 25
 500 100 l 25
 500 201 l 25
 400 201 l 25
 400 301 l 25
 500 301 l 25xd428
 500 400 l 25xd410
 400 400 l 25x8820
 400 301 l 25x9020
 301 301 l 25
 301 201 l 25x9040
 199 201 l 25
 199 100 l 25
 100 100 l 25
 100 201 l 25
 199 201 l 25xa080
 199 301 l 25
 301 301 l 25x9040
 301 400 l 25x8840
 199 400 l 25
 199 600 l 25x8540
 100 600 l 25
 100 700 l 25x8580
EndSplineSet
EndChar

StartChar: onehalf
Encoding: 262 189 123
Width: 599
VWidth: 0
Flags: W
HStem: 0 100<312 418 521 625> 100 100<0 104> 201 100<104 209 521 625> 301 100<209 312 418 521> 500 100<418 521> 600 100<0 104>
VStem: 0 100<104 209> 100 100<209 312 418 625 729 834> 301 100<418 521> 400 100<104 209 521 625> 500 100<209 312>
LayerCount: 2
Back
Fore
SplineSet
0 700 m 25x16
 100 700 l 1x15
 100 800 l 1
 200 800 l 5
 201 400 l 1
 301 400 l 25
 301 500 l 25
 400 500 l 25x1980
 400 600 l 25
 500 600 l 25
 500 500 l 25x1840
 400 500 l 25
 400 400 l 25
 500 400 l 25x18a0
 500 301 l 25
 600 301 l 25
 600 201 l 25x20a0
 500 201 l 25
 500 100 l 25xa040
 600 100 l 25
 600 0 l 25
 301 0 l 25
 301 100 l 25xa0a0
 400 100 l 25
 400 201 l 25
 500 201 l 25xa040
 500 301 l 25
 201 301 l 25
 201 201 l 25xa120
 100 201 l 25
 100 100 l 25
 0 100 l 25
 0 201 l 25
 100 201 l 25x42
 100 301 l 25
 201 301 l 25x21
 201 400 l 25
 100 400 l 25
 100 600 l 25x15
 0 600 l 25
 0 700 l 25x16
EndSplineSet
EndChar

StartChar: threequarters
Encoding: 263 190 124
Width: 599
VWidth: 0
Flags: W
HStem: -100 0G<418 521> 0 100<312 418 521 625> 100 100<0 104> 201 100<104 209 312 418> 400 100<0 209 312 418> 500 100<418 521> 700 100<0 104>
VStem: 0 100<104 209> 100 100<209 312> 201 100<104 209 312 418 521 625> 400 100<-104 0 104 209 312 418 521 625>
LayerCount: 2
Back
Fore
SplineSet
0 800 m 25x8720
 301 800 l 25
 301 500 l 25
 400 500 l 25x8b60
 400 600 l 25
 500 600 l 25
 500 500 l 25x8760
 400 500 l 25
 400 400 l 25
 500 400 l 25
 500 100 l 25
 600 100 l 25
 600 0 l 25
 500 0 l 25
 500 -100 l 25
 400 -100 l 25
 400 0 l 25
 201 0 l 25xcb60
 201 201 l 25xdaa0
 301 201 l 25
 301 100 l 25
 400 100 l 25
 400 201 l 25
 301 201 l 25
 301 301 l 25
 400 301 l 25
 400 400 l 25
 301 400 l 25
 301 301 l 25xda60
 201 301 l 25
 201 201 l 25xdaa0
 100 201 l 25
 100 100 l 25
 0 100 l 25
 0 201 l 25
 100 201 l 25xa320
 100 301 l 25
 201 301 l 25x92a0
 201 400 l 25
 0 400 l 25
 0 500 l 25
 201 500 l 25x9b60
 201 600 l 25x8760
 100 600 l 25
 100 700 l 25x86a0
 0 700 l 25
 0 800 l 25x8720
EndSplineSet
EndChar

StartChar: questiondown
Encoding: 191 191 125
Width: 599
VWidth: 0
Flags: W
HStem: -100 100<209 418> 0 100<418 521> 201 100<209 312> 301 100<312 418> 500 100<312 418>
VStem: 100 100<0 209> 201 100<209 312> 301 100<312 418 521 625> 400 100<0 104>
LayerCount: 2
Back
Fore
SplineSet
301 400 m 25x19
 400 400 l 25
 400 301 l 25x19
 301 301 l 25
 301 201 l 25x2a
 201 201 l 25
 201 0 l 25
 400 0 l 25xac80
 400 100 l 25
 500 100 l 25
 500 0 l 25x4c80
 400 0 l 25
 400 -100 l 25
 201 -100 l 25x8a80
 201 0 l 25x8c
 100 0 l 25
 100 201 l 25
 201 201 l 25x6c
 201 301 l 25
 301 301 l 25x6a
 301 400 l 25x19
301 600 m 25
 400 600 l 25
 400 500 l 25
 301 500 l 25
 301 600 l 25
EndSplineSet
EndChar

StartChar: Agrave
Encoding: 192 192 126
Width: 599
VWidth: 0
Flags: W
HStem: 0 0G<104 209 418 521> 201 100<209 418> 500 0G<104 209> 500 100<209 312> 700 100<209 312>
VStem: 100 100<0 209 312 521> 201 100<729 834> 301 100<625 729> 400 100<0 209 312 521>
LayerCount: 2
Back
Fore
SplineSet
201 800 m 25xda
 301 800 l 25
 301 700 l 25xda
 400 700 l 25xd9
 400 500 l 25
 500 500 l 25xd880
 500 0 l 25
 400 0 l 25
 400 201 l 25
 201 201 l 25
 201 0 l 25
 100 0 l 25
 100 500 l 25
 201 500 l 25xec80
 201 301 l 25
 400 301 l 25
 400 500 l 25xdc80
 201 500 l 25xec80
 201 600 l 25xda
 301 600 l 25xd9
 301 700 l 25
 201 700 l 25
 201 800 l 25xda
EndSplineSet
EndChar

StartChar: Aacute
Encoding: 193 193 127
Width: 599
VWidth: 0
Flags: W
HStem: 0 0G<104 209 418 521> 201 100<209 418> 500 0G<104 209> 500 100<209 312> 700 100<418 521>
VStem: 100 100<0 209 312 521> 301 100<625 729> 400 100<0 209 312 521 729 834>
LayerCount: 2
Back
Fore
SplineSet
400 800 m 25xdd
 500 800 l 25
 500 700 l 25xdd
 400 700 l 25xde
 400 500 l 25
 500 500 l 25xdd
 500 0 l 25
 400 0 l 25
 400 201 l 25
 201 201 l 25
 201 0 l 25
 100 0 l 25
 100 500 l 25
 201 500 l 25xed
 201 301 l 25
 400 301 l 25
 400 500 l 25xdd
 201 500 l 25xed
 201 600 l 25
 301 600 l 25
 301 700 l 25
 400 700 l 25xde
 400 800 l 25xdd
EndSplineSet
EndChar

StartChar: Acircumflex
Encoding: 194 194 128
Width: 599
VWidth: 0
Flags: W
HStem: 0 0G<104 209 418 521> 201 100<209 418> 500 0G<418 521> 500 100<209 418> 600 100<104 209 418 521> 700 100<209 418>
VStem: 100 100<0 209 312 521 625 729> 201 201<521 625 729 834> 400 100<0 209 312 521 625 729>
LayerCount: 2
Back
Fore
SplineSet
100 600 m 25xca80
 100 700 l 25
 201 700 l 25xca80
 201 800 l 25
 400 800 l 25xc5
 400 700 l 25xc9
 201 700 l 25xca
 201 600 l 25xd2
 400 600 l 25xd1
 400 700 l 25xc9
 500 700 l 25
 500 600 l 25xc880
 400 600 l 25xd1
 400 500 l 25xe1
 201 500 l 25
 201 301 l 25
 400 301 l 25xd280
 400 500 l 25xe1
 500 500 l 25xe080
 500 0 l 25
 400 0 l 25
 400 201 l 25
 201 201 l 25
 201 0 l 25
 100 0 l 25
 100 500 l 25
 201 500 l 25
 201 600 l 25xd280
 100 600 l 25xca80
EndSplineSet
EndChar

StartChar: Atilde
Encoding: 195 195 129
Width: 599
VWidth: 0
Flags: W
HStem: 0 0G<104 209 418 521> 201 100<209 418> 500 0G<418 521> 500 100<209 312> 600 100<104 209> 700 100<209 312 418 521>
VStem: 100 100<0 209 312 521 625 729> 201 100<729 834> 301 100<625 729> 400 100<0 209 312 521 729 834>
LayerCount: 2
Back
Fore
SplineSet
100 600 m 25xca40
 100 700 l 25
 201 700 l 25xca40
 201 600 l 25
 301 600 l 25xd280
 301 700 l 25xd5
 201 700 l 25xca
 201 800 l 25
 301 800 l 25
 301 700 l 25xc5
 400 700 l 25xc480
 400 800 l 25
 500 800 l 25
 500 700 l 25xc440
 400 700 l 25xc480
 400 500 l 25xe440
 201 500 l 25xd240
 201 301 l 25
 400 301 l 25
 400 500 l 25
 500 500 l 25xe240
 500 0 l 25
 400 0 l 25
 400 201 l 25
 201 201 l 25
 201 0 l 25
 100 0 l 25
 100 500 l 25
 201 500 l 25
 201 600 l 25xd240
 100 600 l 25xca40
EndSplineSet
EndChar

StartChar: Adieresis
Encoding: 196 196 130
Width: 599
VWidth: 0
Flags: W
HStem: 0 0G<104 209 418 521> 201 100<209 418> 500 0G<104 209> 500 100<209 418> 700 100<104 209 418 521>
VStem: 100 100<0 209 312 521 729 834> 400 100<0 209 312 521 729 834>
LayerCount: 2
Back
Fore
SplineSet
201 600 m 25xde
 400 600 l 25
 400 500 l 25
 500 500 l 25xde
 500 0 l 25
 400 0 l 25
 400 201 l 25
 201 201 l 25
 201 0 l 25
 100 0 l 25
 100 500 l 25
 201 500 l 25xee
 201 301 l 25
 400 301 l 25
 400 500 l 25xde
 201 500 l 25xee
 201 600 l 25xde
400 800 m 25
 500 800 l 25
 500 700 l 25
 400 700 l 25
 400 800 l 25
100 800 m 25
 201 800 l 25
 201 700 l 25
 100 700 l 25
 100 800 l 25
EndSplineSet
EndChar

StartChar: Aring
Encoding: 197 197 131
Width: 599
VWidth: 0
Flags: W
HStem: 0 0G<104 209 418 521> 201 100<209 418> 500 0G<418 521> 500 100<209 312> 700 100<209 312 418 521> 900 100<312 418>
VStem: 100 100<0 209 312 521> 201 100<729 834> 301 100<625 729 834 938> 400 100<0 209 312 521 729 834>
LayerCount: 2
Back
Fore
SplineSet
201 699 m 25xd9
 301 699 l 1xd9
 301 800 l 1
 400 800 l 1xc480
 400 699 l 1xc880
 301 699 l 25
 301 600 l 25xc9
 400 600 l 25
 400 699 l 25xc880
 500 699 l 25
 500 600 l 25xc840
 400 600 l 25xc880
 400 399 l 25xe840
 201 399 l 25xd240
 201 301 l 1
 400 301 l 1
 400 399 l 25
 500 399 l 25xe240
 500 0 l 1
 400 0 l 25
 400 201 l 25
 201 201 l 25
 201 0 l 25
 100 0 l 1
 100 399 l 25
 201 399 l 25xd240
 201 499 l 25xd1
 301 499 l 25xd080
 301 600 l 25
 201 600 l 25
 201 699 l 25xd9
EndSplineSet
EndChar

StartChar: AE
Encoding: 198 198 132
Width: 599
VWidth: 0
Flags: W
HStem: 0 100<418 625> 201 100<104 312> 301 100<418 521> 500 100<104 312 418 625>
VStem: 0 100<0 209 312 521> 301 100<104 209 418 521>
LayerCount: 2
Back
Fore
SplineSet
0 500 m 25xdc
 100 500 l 25
 100 600 l 25
 301 600 l 25
 301 500 l 25
 100 500 l 25
 100 301 l 25
 301 301 l 25xdc
 301 500 l 25
 400 500 l 25
 400 600 l 25
 600 600 l 25
 600 500 l 25
 400 500 l 25
 400 400 l 25
 500 400 l 25
 500 301 l 25
 400 301 l 25xbc
 400 100 l 25
 600 100 l 25
 600 0 l 25
 301 0 l 25
 301 201 l 25
 100 201 l 25
 100 0 l 25
 0 0 l 25
 0 500 l 25xdc
EndSplineSet
EndChar

StartChar: Ccedilla
Encoding: 199 199 133
Width: 599
VWidth: 0
Flags: W
HStem: -201 100<209 312> 0 100<209 312 418 521> 500 100<209 521>
VStem: 100 100<104 521> 201 301<0 104 521 625> 201 100<-209 -104> 301 100<-104 0>
LayerCount: 2
Back
Fore
SplineSet
201 600 m 25xe8
 500 600 l 25
 500 500 l 25xe8
 201 500 l 25
 201 100 l 25xf0
 500 100 l 25
 500 0 l 25xe8
 400 0 l 25
 400 -100 l 25xe2
 301 -100 l 25
 301 -201 l 25
 201 -201 l 25
 201 -100 l 25
 301 -100 l 25xe4
 301 0 l 25xe2
 201 0 l 25xe8
 201 100 l 25
 100 100 l 25
 100 500 l 25
 201 500 l 25xf0
 201 600 l 25xe8
EndSplineSet
EndChar

StartChar: Egrave
Encoding: 200 200 134
Width: 599
VWidth: 0
Flags: W
HStem: 0 100<209 521> 301 100<209 418> 500 100<209 312 418 521> 700 100<209 312>
VStem: 100 100<104 312 418 521> 201 100<729 834> 301 100<625 729>
LayerCount: 2
Back
Fore
SplineSet
201 800 m 25xf4
 301 800 l 25
 301 700 l 25xf4
 400 700 l 25
 400 600 l 25
 500 600 l 25
 500 500 l 25
 201 500 l 25
 201 400 l 25
 400 400 l 25
 400 301 l 25
 201 301 l 25
 201 100 l 25
 500 100 l 25
 500 0 l 25
 100 0 l 25
 100 600 l 25
 301 600 l 25xfa
 301 700 l 25
 201 700 l 25
 201 800 l 25xf4
EndSplineSet
EndChar

StartChar: Eacute
Encoding: 201 201 135
Width: 599
VWidth: 0
Flags: W
HStem: 0 100<209 521> 301 100<209 418> 500 100<312 521> 700 100<312 418>
VStem: 100 100<104 312 418 521> 201 100<625 729> 301 100<729 834>
LayerCount: 2
Back
Fore
SplineSet
301 800 m 25xf2
 400 800 l 25
 400 700 l 25xf2
 301 700 l 25
 301 600 l 25xf4
 500 600 l 25
 500 500 l 25
 201 500 l 25
 201 400 l 25
 400 400 l 25
 400 301 l 25
 201 301 l 25
 201 100 l 25
 500 100 l 25
 500 0 l 25
 100 0 l 25
 100 600 l 25xfa
 201 600 l 25
 201 700 l 25
 301 700 l 25xf4
 301 800 l 25xf2
EndSplineSet
EndChar

StartChar: Ecircumflex
Encoding: 202 202 136
Width: 599
VWidth: 0
Flags: W
HStem: 0 100<209 521> 301 100<209 418> 500 100<209 418> 600 100<104 209> 700 100<209 418>
VStem: 100 100<104 312 418 521 625 729> 400 100<625 729>
LayerCount: 2
Back
Fore
SplineSet
100 700 m 25xd6
 201 700 l 25xd6
 201 800 l 25
 400 800 l 25
 400 700 l 25xce
 201 700 l 25xd6
 201 600 l 25
 400 600 l 25
 400 700 l 25
 500 700 l 25
 500 500 l 25
 201 500 l 25
 201 400 l 25
 400 400 l 25
 400 301 l 25
 201 301 l 25
 201 100 l 25
 500 100 l 25
 500 0 l 25
 100 0 l 25
 100 500 l 25
 201 500 l 25
 201 600 l 25xee
 100 600 l 25
 100 700 l 25xd6
EndSplineSet
EndChar

StartChar: Edieresis
Encoding: 203 203 137
Width: 599
VWidth: 0
Flags: W
HStem: 0 100<209 521> 301 100<209 418> 500 100<209 521> 700 100<104 209 418 521>
VStem: 100 100<104 312 418 521 729 834> 400 100<729 834>
LayerCount: 2
Back
Fore
SplineSet
100 600 m 25
 500 600 l 25
 500 500 l 25
 201 500 l 25
 201 400 l 25
 400 400 l 25
 400 301 l 25
 201 301 l 25
 201 100 l 25
 500 100 l 25
 500 0 l 25
 100 0 l 25
 100 600 l 25
400 800 m 25
 500 800 l 25
 500 700 l 25
 400 700 l 25
 400 800 l 25
100 800 m 25
 201 800 l 25
 201 700 l 25
 100 700 l 25
 100 800 l 25
EndSplineSet
EndChar

StartChar: Igrave
Encoding: 204 204 138
Width: 599
VWidth: 0
Flags: W
HStem: 0 100<209 312 418 521> 500 100<209 312 418 521> 700 100<209 312>
VStem: 201 301<0 104 521 625> 201 100<729 834> 301 100<104 521 625 729>
LayerCount: 2
Back
Fore
SplineSet
201 800 m 25xe8
 301 800 l 25
 301 700 l 25xe8
 400 700 l 25
 400 600 l 25xe4
 500 600 l 25
 500 500 l 25xf0
 400 500 l 25
 400 100 l 25xe4
 500 100 l 25
 500 0 l 25
 201 0 l 25
 201 100 l 25xf0
 301 100 l 25
 301 500 l 25xe4
 201 500 l 25
 201 600 l 25xf0
 301 600 l 25xe4
 301 700 l 25
 201 700 l 25
 201 800 l 25xe8
EndSplineSet
EndChar

StartChar: Iacute
Encoding: 205 205 139
Width: 599
VWidth: 0
Flags: W
HStem: 0 100<209 312 418 521> 500 100<209 312 418 521> 700 100<418 521>
VStem: 201 301<0 104 521 625> 301 100<104 521 625 729> 400 100<729 834>
LayerCount: 2
Back
Fore
SplineSet
400 800 m 25xe4
 500 800 l 25
 500 700 l 25xe4
 400 700 l 25
 400 600 l 25xe8
 500 600 l 25
 500 500 l 25xf0
 400 500 l 25
 400 100 l 25xe8
 500 100 l 25
 500 0 l 25
 201 0 l 25
 201 100 l 25xf0
 301 100 l 25
 301 500 l 25xe8
 201 500 l 25
 201 600 l 25xf0
 301 600 l 25
 301 700 l 25
 400 700 l 25xe8
 400 800 l 25xe4
EndSplineSet
EndChar

StartChar: Icircumflex
Encoding: 206 206 140
Width: 599
VWidth: 0
Flags: W
HStem: 0 100<209 312 418 521> 400 100<209 312 418 521> 600 100<209 312 418 521> 700 100<312 418>
VStem: 201 100<625 729> 301 100<104 418 729 834> 400 100<625 729>
LayerCount: 2
Back
Fore
SplineSet
201 500 m 25xc8
 500 500 l 25
 500 400 l 25xca
 400 400 l 25
 400 100 l 25xc4
 500 100 l 25
 500 0 l 25
 201 0 l 25
 201 100 l 25xca
 301 100 l 25
 301 400 l 25xc4
 201 400 l 25
 201 500 l 25xc8
201 700 m 25xe8
 301 700 l 25xe8
 301 800 l 25
 400 800 l 25xd4
 400 700 l 25xe4
 500 700 l 25
 500 600 l 25
 400 600 l 25xe2
 400 700 l 25xe4
 301 700 l 25
 301 600 l 25
 201 600 l 25
 201 700 l 25xe8
EndSplineSet
EndChar

StartChar: Idieresis
Encoding: 207 207 141
Width: 599
VWidth: 0
Flags: W
HStem: 0 100<209 312 418 521> 500 100<209 312 418 521> 700 100<209 312 418 521>
VStem: 201 100<729 834> 400 100<729 834>
LayerCount: 2
Back
Fore
SplineSet
201 600 m 25
 500 600 l 25
 500 500 l 25
 400 500 l 25
 400 100 l 25
 500 100 l 25
 500 0 l 25
 201 0 l 25
 201 100 l 25
 301 100 l 25
 301 500 l 25
 201 500 l 25
 201 600 l 25
400 800 m 25
 500 800 l 25
 500 700 l 25
 400 700 l 25
 400 800 l 25
201 800 m 25
 301 800 l 25
 301 700 l 25
 201 700 l 25
 201 800 l 25
EndSplineSet
EndChar

StartChar: Eth
Encoding: 208 208 142
Width: 599
VWidth: 0
Flags: W
HStem: 0 100<312 521> 301 100<104 209 312 418> 500 0G<521 625> 500 100<312 521>
VStem: 201 301<0 104 521 625> 201 100<104 312 418 521> 500 100<104 521>
LayerCount: 2
Back
Fore
SplineSet
100 400 m 25xe4
 201 400 l 25xe4
 201 600 l 25
 500 600 l 25xd8
 500 500 l 25xe8
 301 500 l 25
 301 400 l 25
 400 400 l 25
 400 301 l 25
 301 301 l 25
 301 100 l 25xd4
 500 100 l 25
 500 500 l 25xe8
 600 500 l 25
 600 100 l 25xe2
 500 100 l 25
 500 0 l 25
 201 0 l 25xe8
 201 301 l 25
 100 301 l 25
 100 400 l 25xe4
EndSplineSet
EndChar

StartChar: Ntilde
Encoding: 209 209 143
Width: 599
VWidth: 0
Flags: W
HStem: 0 0G<104 209 418 521> 201 100<312 418> 301 100<209 312> 600 0G<418 521> 600 100<312 418> 700 100<209 312 418 521>
VStem: 100 100<0 312 418 729> 201 100<729 834> 301 100<625 729> 400 100<0 209 312 625 729 834>
LayerCount: 2
Back
Fore
SplineSet
100 0 m 25xa280
 100 700 l 25
 201 700 l 25xa680
 201 800 l 25
 301 800 l 25xa5
 301 700 l 25x89
 400 700 l 25x8880
 400 800 l 25
 500 800 l 25
 500 700 l 25x8440
 400 700 l 25x8880
 400 600 l 25x9080
 301 600 l 25x8880
 301 700 l 25x89
 201 700 l 25
 201 400 l 25
 301 400 l 25xa680
 301 301 l 25xc280
 400 301 l 25xc040
 400 600 l 25xd080
 500 600 l 25
 500 0 l 25
 400 0 l 25
 400 201 l 25xd040
 301 201 l 25
 301 301 l 25xd080
 201 301 l 25
 201 0 l 25
 100 0 l 25xa280
EndSplineSet
EndChar

StartChar: Ograve
Encoding: 210 210 144
Width: 599
VWidth: 0
Flags: W
HStem: 0 100<209 418> 500 0G<418 521> 500 100<209 312> 700 100<209 312>
VStem: 100 100<104 521> 201 100<729 834> 301 100<625 729> 400 100<104 521>
LayerCount: 2
Back
Fore
SplineSet
201 800 m 25xb4
 301 800 l 25
 301 700 l 25xb4
 400 700 l 25xb2
 400 500 l 25xd1
 201 500 l 25
 201 100 l 25xb9
 400 100 l 25
 400 500 l 25
 500 500 l 25
 500 100 l 25
 400 100 l 25
 400 0 l 25
 201 0 l 25xd5
 201 100 l 25
 100 100 l 25
 100 500 l 25
 201 500 l 25xb8
 201 600 l 25xb4
 301 600 l 25xb2
 301 700 l 25
 201 700 l 25
 201 800 l 25xb4
EndSplineSet
EndChar

StartChar: Oacute
Encoding: 211 211 145
Width: 599
VWidth: 0
Flags: W
HStem: 0 100<209 418> 500 0G<418 521> 500 100<312 418> 700 100<312 418>
VStem: 100 100<104 521> 201 100<625 729> 301 100<729 834> 400 100<104 521>
LayerCount: 2
Back
Fore
SplineSet
301 800 m 25xb2
 400 800 l 25
 400 700 l 25xb2
 301 700 l 25
 301 600 l 25
 400 600 l 25xb5
 400 500 l 25xd5
 201 500 l 25
 201 100 l 25xb9
 400 100 l 25
 400 500 l 25
 500 500 l 25
 500 100 l 25
 400 100 l 25
 400 0 l 25
 201 0 l 25xd5
 201 100 l 25
 100 100 l 25
 100 500 l 25
 201 500 l 25xb8
 201 700 l 25
 301 700 l 25xb4
 301 800 l 25xb2
EndSplineSet
EndChar

StartChar: Ocircumflex
Encoding: 212 212 146
Width: 599
VWidth: 0
Flags: W
HStem: 0 100<209 418> 500 0G<418 521> 500 100<209 418> 600 100<104 209 418 521> 700 100<209 418>
VStem: 100 100<104 521 625 729> 201 201<0 104 521 625 729 834> 400 100<104 521 625 729>
LayerCount: 2
Back
Fore
SplineSet
201 800 m 25x8a
 400 800 l 25x8a
 400 700 l 25x92
 201 700 l 25x94
 201 600 l 25xa4
 400 600 l 25xa2
 400 700 l 25x92
 500 700 l 25
 500 600 l 25x91
 400 600 l 25xa2
 400 500 l 25xc2
 201 500 l 25
 201 100 l 25xa4
 400 100 l 25
 400 500 l 25xc2
 500 500 l 25
 500 100 l 25xc1
 400 100 l 25
 400 0 l 25
 201 0 l 25xc2
 201 100 l 25
 100 100 l 25
 100 500 l 25
 201 500 l 25
 201 600 l 25xa4
 100 600 l 25
 100 700 l 25
 201 700 l 25x94
 201 800 l 25x8a
EndSplineSet
EndChar

StartChar: Otilde
Encoding: 213 213 147
Width: 599
VWidth: 0
Flags: W
HStem: 0 100<209 418> 500 0G<418 521> 500 100<209 312> 600 100<104 209> 700 100<209 312 418 521>
VStem: 100 100<104 521 625 729> 201 100<729 834> 301 100<625 729> 400 100<104 521 729 834>
LayerCount: 2
Back
Fore
SplineSet
100 700 m 25x94
 201 700 l 25x94
 201 600 l 25
 301 600 l 25xa5
 301 700 l 25xaa
 201 700 l 25x94
 201 800 l 25
 301 800 l 25
 301 700 l 25x8a
 400 700 l 25x89
 400 800 l 25
 500 800 l 25
 500 700 l 25x8880
 400 700 l 25x89
 400 500 l 25xc880
 201 500 l 25
 201 100 l 25xa480
 400 100 l 25
 400 500 l 25
 500 500 l 25
 500 100 l 25
 400 100 l 25
 400 0 l 25
 201 0 l 25xc280
 201 100 l 25
 100 100 l 25
 100 500 l 25
 201 500 l 25
 201 600 l 25xa4
 100 600 l 25
 100 700 l 25x94
EndSplineSet
EndChar

StartChar: Odieresis
Encoding: 214 214 148
Width: 599
VWidth: 0
Flags: W
HStem: 0 100<209 418> 500 0G<418 521> 500 100<209 418> 700 100<104 209 418 521>
VStem: 100 100<104 521 729 834> 201 201<0 104 521 625> 400 100<104 521 729 834>
LayerCount: 2
Back
Fore
SplineSet
201 600 m 25xb4
 400 600 l 25xb4
 400 500 l 25xd4
 201 500 l 25
 201 100 l 25xb8
 400 100 l 25
 400 500 l 25xd4
 500 500 l 25
 500 100 l 25xd2
 400 100 l 25
 400 0 l 25
 201 0 l 25xd4
 201 100 l 25
 100 100 l 25
 100 500 l 25
 201 500 l 25xb8
 201 600 l 25xb4
400 800 m 25x92
 500 800 l 25
 500 700 l 25
 400 700 l 25
 400 800 l 25x92
100 800 m 25x98
 201 800 l 25
 201 700 l 25
 100 700 l 25
 100 800 l 25x98
EndSplineSet
EndChar

StartChar: multiply
Encoding: 215 215 149
Width: 599
VWidth: 0
Flags: W
HStem: 201 100<209 312 418 521> 400 100<209 312 418 521>
VStem: 201 100<209 312 418 521> 400 100<209 312 418 521>
LayerCount: 2
Back
Fore
SplineSet
201 500 m 25
 301 500 l 25
 301 400 l 25
 400 400 l 25
 400 500 l 25
 500 500 l 25
 500 400 l 25
 400 400 l 25
 400 301 l 25
 500 301 l 25
 500 201 l 25
 400 201 l 25
 400 301 l 25
 301 301 l 25
 301 201 l 25
 201 201 l 25
 201 301 l 25
 301 301 l 25
 301 400 l 25
 201 400 l 25
 201 500 l 25
EndSplineSet
EndChar

StartChar: Oslash
Encoding: 216 216 150
Width: 599
VWidth: 0
Flags: W
HStem: 0 100<0 104 209 418> 301 100<312 418> 500 100<209 418 521 625>
VStem: 0 100<0 104> 100 100<104 209 312 521> 201 201<0 104 521 625> 400 100<104 312 418 521> 500 100<521 625>
LayerCount: 2
Back
Fore
SplineSet
201 600 m 25xe4
 400 600 l 25
 400 500 l 25xe4
 201 500 l 25
 201 301 l 25
 301 301 l 25
 301 201 l 25
 201 201 l 25
 201 100 l 25xe8
 400 100 l 25xe4
 400 301 l 25
 301 301 l 25
 301 400 l 25
 400 400 l 25xe2
 400 500 l 25xe4
 500 500 l 25xe2
 500 600 l 25
 600 600 l 25
 600 500 l 25xe1
 500 500 l 25
 500 100 l 25xe2
 400 100 l 25
 400 0 l 25
 201 0 l 25xe4
 201 100 l 25xe8
 100 100 l 25
 100 0 l 25
 0 0 l 25
 0 100 l 25
 100 100 l 25xf0
 100 500 l 25
 201 500 l 25xe8
 201 600 l 25xe4
EndSplineSet
EndChar

StartChar: Ugrave
Encoding: 217 217 151
Width: 599
VWidth: 0
Flags: W
HStem: 0 100<209 418> 600 0G<104 209> 600 100<312 418> 700 100<209 312>
VStem: 100 100<104 625> 201 100<729 834> 301 100<625 729> 400 100<104 625>
LayerCount: 2
Back
Fore
SplineSet
201 800 m 25x94
 301 800 l 25x94
 301 700 l 25xa4
 400 700 l 25
 400 600 l 25xa2
 500 600 l 25
 500 0 l 25
 201 0 l 25xa5
 201 100 l 25
 100 100 l 25
 100 600 l 25
 201 600 l 25
 201 100 l 25
 400 100 l 25xc9
 400 600 l 25
 301 600 l 25xa2
 301 700 l 25xa4
 201 700 l 25
 201 800 l 25x94
EndSplineSet
EndChar

StartChar: Uacute
Encoding: 218 218 152
Width: 599
VWidth: 0
Flags: W
HStem: 0 100<209 418> 600 0G<418 521> 600 100<209 312> 700 100<312 418>
VStem: 100 100<104 625> 201 100<625 729> 301 100<729 834> 400 100<104 625>
LayerCount: 2
Back
Fore
SplineSet
301 800 m 25x92
 400 800 l 25
 400 700 l 25x92
 301 700 l 25
 301 600 l 25xa4
 201 600 l 25
 201 100 l 25xa8
 400 100 l 25
 400 600 l 25
 500 600 l 25
 500 0 l 25
 201 0 l 25xc5
 201 100 l 25
 100 100 l 25
 100 600 l 25
 201 600 l 25xa8
 201 700 l 25
 301 700 l 25xa4
 301 800 l 25x92
EndSplineSet
EndChar

StartChar: Ucircumflex
Encoding: 219 219 153
Width: 599
VWidth: 0
Flags: W
HStem: 0 100<209 418> 500 0G<104 209 418 521> 600 100<104 209 418 521> 700 100<209 418>
VStem: 100 100<104 521 625 729> 400 100<104 521 625 729>
LayerCount: 2
Back
Fore
SplineSet
100 500 m 25xcc
 201 500 l 25
 201 100 l 25
 400 100 l 25
 400 500 l 25
 500 500 l 25
 500 0 l 25
 201 0 l 25
 201 100 l 25
 100 100 l 25
 100 500 l 25xcc
100 700 m 25xec
 201 700 l 25xec
 201 800 l 25
 400 800 l 25xdc
 400 700 l 25
 500 700 l 25
 500 600 l 25
 400 600 l 25
 400 700 l 25
 201 700 l 25
 201 600 l 25
 100 600 l 25
 100 700 l 25xec
EndSplineSet
EndChar

StartChar: Udieresis
Encoding: 220 220 154
Width: 599
VWidth: 0
Flags: W
HStem: 0 100<209 418> 600 0G<104 209 418 521> 700 100<104 209 418 521>
VStem: 100 100<104 625 729 834> 400 100<104 625 729 834>
LayerCount: 2
Back
Fore
SplineSet
100 600 m 25
 201 600 l 25
 201 100 l 25
 400 100 l 25
 400 600 l 25
 500 600 l 25
 500 0 l 25
 201 0 l 25
 201 100 l 25
 100 100 l 25
 100 600 l 25
400 800 m 25
 500 800 l 25
 500 700 l 25
 400 700 l 25
 400 800 l 25
100 800 m 25
 201 800 l 25
 201 700 l 25
 100 700 l 25
 100 800 l 25
EndSplineSet
EndChar

StartChar: Yacute
Encoding: 221 221 155
Width: 599
VWidth: 0
Flags: W
HStem: 0 0G<312 418> 301 100<209 312 418 521> 400 201<104 209 521 625> 600 100<312 418> 700 100<418 521>
VStem: 100 100<418 625> 201 100<312 418> 301 100<0 312 625 729> 400 100<312 418 729 834> 500 100<418 625>
LayerCount: 2
Back
Fore
SplineSet
100 600 m 25xa4
 201 600 l 25xa4
 201 400 l 25xc4
 301 400 l 25
 301 301 l 25xc2
 400 301 l 25xc1
 400 400 l 25
 500 400 l 25xc080
 500 600 l 25
 600 600 l 25
 600 400 l 25xa040
 500 400 l 25
 500 301 l 25xc080
 400 301 l 25
 400 0 l 25
 301 0 l 25xc1
 301 301 l 25
 201 301 l 25xc2
 201 400 l 25xc4
 100 400 l 25
 100 600 l 25xa4
400 800 m 25x8880
 500 800 l 25
 500 700 l 25x8880
 400 700 l 25
 400 600 l 25
 301 600 l 25
 301 700 l 25
 400 700 l 25x91
 400 800 l 25x8880
EndSplineSet
EndChar

StartChar: Thorn
Encoding: 222 222 156
Width: 599
VWidth: 0
Flags: W
HStem: -100 0G<104 209> 100 100<209 418> 400 100<209 418> 700 0G<104 209>
VStem: 100 301<104 209 418 521> 100 100<-104 104 209 418 521 729> 400 100<209 418>
LayerCount: 2
Back
Fore
SplineSet
100 700 m 25xf4
 201 700 l 25
 201 500 l 25xf4
 400 500 l 25
 400 400 l 25xf8
 201 400 l 25
 201 201 l 25xf4
 400 201 l 25
 400 400 l 25xf8
 500 400 l 25
 500 201 l 25xf2
 400 201 l 25
 400 100 l 25xf8
 201 100 l 25
 201 -100 l 25
 100 -100 l 25
 100 700 l 25xf4
EndSplineSet
EndChar

StartChar: germandbls
Encoding: 223 223 157
Width: 599
VWidth: 0
Flags: W
HStem: -100 0G<104 209> 0 100<312 418> 600 100<209 312>
VStem: 100 100<-104 625> 301 100<0 104 418 625> 400 100<104 418>
LayerCount: 2
Back
Fore
SplineSet
100 600 m 25xf8
 201 600 l 25
 201 700 l 25
 400 700 l 25xf4
 400 400 l 25xf8
 500 400 l 25
 500 100 l 25xf4
 400 100 l 25
 400 0 l 25
 301 0 l 25
 301 100 l 25
 400 100 l 25
 400 400 l 25
 301 400 l 25
 301 600 l 25
 201 600 l 25
 201 -100 l 25
 100 -100 l 25
 100 600 l 25xf8
EndSplineSet
EndChar

StartChar: agrave
Encoding: 224 224 158
Width: 599
VWidth: 0
Flags: W
HStem: 0 100<209 418 521 625> 400 100<209 418> 600 100<312 418> 700 100<209 312>
VStem: 100 100<104 418> 201 100<729 834> 301 100<625 729> 400 100<104 418> 500 100<0 104>
LayerCount: 2
Back
Fore
SplineSet
100 400 m 25xc8
 201 400 l 25xc8
 201 500 l 25
 500 500 l 25xc480
 500 100 l 25xc1
 600 100 l 25
 600 0 l 25
 500 0 l 25xc080
 500 100 l 25
 400 100 l 25
 400 400 l 25
 201 400 l 25
 201 100 l 25xc9
 400 100 l 25
 400 0 l 25
 201 0 l 25xc5
 201 100 l 25
 100 100 l 25
 100 400 l 25xc8
201 800 m 25xd4
 301 800 l 25xd4
 301 700 l 25xe4
 400 700 l 25
 400 600 l 25
 301 600 l 25xe2
 301 700 l 25xe4
 201 700 l 25
 201 800 l 25xd4
EndSplineSet
EndChar

StartChar: aacute
Encoding: 225 225 159
Width: 599
VWidth: 0
Flags: W
HStem: 0 100<209 418 521 625> 400 100<209 418> 600 100<312 418> 700 100<418 521>
VStem: 100 100<104 418> 301 100<625 729> 400 100<104 418 729 834> 500 100<0 104>
LayerCount: 2
Back
Fore
SplineSet
201 500 m 25xca
 500 500 l 25xc9
 500 100 l 25xca
 600 100 l 25
 600 0 l 25
 500 0 l 25xc9
 500 100 l 25
 400 100 l 25
 400 400 l 25
 201 400 l 25
 201 100 l 25
 400 100 l 25
 400 0 l 25
 201 0 l 25
 201 100 l 25
 100 100 l 25
 100 400 l 25
 201 400 l 25
 201 500 l 25xca
301 700 m 25xec
 400 700 l 25xec
 400 800 l 25
 500 800 l 25
 500 700 l 25xda
 400 700 l 25
 400 600 l 25
 301 600 l 25
 301 700 l 25xec
EndSplineSet
EndChar

StartChar: acircumflex
Encoding: 226 226 160
Width: 599
VWidth: 0
Flags: W
HStem: 0 100<209 418 521 625> 400 100<209 418> 600 100<209 312 418 521> 700 100<312 418>
VStem: 100 100<104 418> 201 100<625 729> 301 100<729 834> 400 100<104 418 625 729> 500 100<0 104>
LayerCount: 2
Back
Fore
SplineSet
100 400 m 25xc8
 201 400 l 25xc8
 201 500 l 25
 500 500 l 25xc480
 500 100 l 25xc1
 600 100 l 25
 600 0 l 25
 500 0 l 25xc080
 500 100 l 25
 400 100 l 25
 400 400 l 25
 201 400 l 25
 201 100 l 25xc9
 400 100 l 25
 400 0 l 25
 201 0 l 25xc5
 201 100 l 25
 100 100 l 25
 100 400 l 25xc8
201 700 m 25xe4
 301 700 l 25xe4
 301 800 l 25
 400 800 l 25xd2
 400 700 l 25xe2
 500 700 l 25
 500 600 l 25
 400 600 l 25xe1
 400 700 l 25xe2
 301 700 l 25
 301 600 l 25
 201 600 l 25
 201 700 l 25xe4
EndSplineSet
EndChar

StartChar: atilde
Encoding: 227 227 161
Width: 599
VWidth: 0
Flags: W
HStem: 0 100<209 418 521 625> 400 100<209 418> 600 100<104 209 312 418> 700 100<209 312 418 521>
VStem: 100 100<104 418 625 729> 201 100<729 834> 301 100<625 729> 400 100<104 418 729 834> 500 100<0 104>
LayerCount: 2
Back
Fore
SplineSet
100 400 m 25xc8
 201 400 l 25xc8
 201 500 l 25
 500 500 l 25xc480
 500 100 l 25xc1
 600 100 l 25
 600 0 l 25
 500 0 l 25xc080
 500 100 l 25
 400 100 l 25
 400 400 l 25
 201 400 l 25
 201 100 l 25xc9
 400 100 l 25
 400 0 l 25
 201 0 l 25xc5
 201 100 l 25
 100 100 l 25
 100 400 l 25xc8
100 700 m 25xe8
 201 700 l 25xe8
 201 800 l 25
 301 800 l 25xd4
 301 700 l 25xe4
 400 700 l 25xe2
 400 800 l 25
 500 800 l 25
 500 700 l 25xd1
 400 700 l 25
 400 600 l 25
 301 600 l 25xe2
 301 700 l 25xe4
 201 700 l 25
 201 600 l 25
 100 600 l 25
 100 700 l 25xe8
EndSplineSet
EndChar

StartChar: adieresis
Encoding: 228 228 162
Width: 599
VWidth: 0
Flags: W
HStem: 0 100<209 418 521 625> 400 100<209 418> 600 100<209 312 418 521>
VStem: 100 100<104 418> 201 100<625 729> 400 100<104 418 625 729> 500 100<0 104>
LayerCount: 2
Back
Fore
SplineSet
100 400 m 25xf0
 201 400 l 25xf0
 201 500 l 25
 500 500 l 25xea
 500 100 l 25xe4
 600 100 l 25
 600 0 l 25
 500 0 l 25xe2
 500 100 l 25
 400 100 l 25
 400 400 l 25
 201 400 l 25
 201 100 l 25xf4
 400 100 l 25
 400 0 l 25
 201 0 l 25xec
 201 100 l 25
 100 100 l 25
 100 400 l 25xf0
400 700 m 25xe4
 500 700 l 25
 500 600 l 25
 400 600 l 25
 400 700 l 25xe4
201 700 m 25xe8
 301 700 l 25
 301 600 l 25
 201 600 l 25
 201 700 l 25xe8
EndSplineSet
EndChar

StartChar: aring
Encoding: 229 229 163
Width: 599
VWidth: 0
Flags: W
HStem: 0 100<209 418 521 625> 400 100<209 312> 600 100<209 312 418 521> 700 100<312 418>
VStem: 100 100<104 418> 201 100<625 729> 301 100<521 625 729 834> 400 100<104 418 625 729> 500 100<0 104>
LayerCount: 2
Back
Fore
SplineSet
201 700 m 25xe4
 301 700 l 25xe4
 301 800 l 25
 400 800 l 25xd2
 400 700 l 25xe2
 301 700 l 25
 301 600 l 25xe4
 400 600 l 25
 400 700 l 25xe2
 500 700 l 25
 500 600 l 25xe1
 400 600 l 25
 400 500 l 25
 500 500 l 25xe280
 500 100 l 25xe1
 600 100 l 25
 600 0 l 25
 500 0 l 25xe080
 500 100 l 25
 400 100 l 25
 400 400 l 25
 201 400 l 25
 201 100 l 25xe9
 400 100 l 25
 400 0 l 25
 201 0 l 25xe5
 201 100 l 25
 100 100 l 25
 100 400 l 25
 201 400 l 25xe8
 201 500 l 25xe4
 301 500 l 25xe2
 301 600 l 25
 201 600 l 25
 201 700 l 25xe4
EndSplineSet
EndChar

StartChar: ae
Encoding: 230 230 164
Width: 599
VWidth: 0
Flags: W
HStem: 0 100<104 312 418 625> 100 100<0 104> 201 100<104 312 418 521> 400 100<104 312 418 521>
VStem: 0 100<104 209> 301 100<104 209 312 418> 500 100<312 418>
LayerCount: 2
Back
Fore
SplineSet
100 500 m 25x3e
 500 500 l 25
 500 400 l 25
 400 400 l 25
 400 301 l 25
 500 301 l 25
 500 400 l 25
 600 400 l 25
 600 201 l 25
 400 201 l 25
 400 100 l 25
 600 100 l 25
 600 0 l 25
 400 0 l 25
 400 100 l 25
 301 100 l 25
 301 0 l 25
 100 0 l 25
 100 100 l 25
 301 100 l 25
 301 201 l 25xbe
 100 201 l 25x5e
 100 100 l 25x9e
 0 100 l 25
 0 201 l 25
 100 201 l 25x5e
 100 301 l 25
 301 301 l 25
 301 400 l 25
 100 400 l 25
 100 500 l 25x3e
EndSplineSet
EndChar

StartChar: ccedilla
Encoding: 231 231 165
Width: 599
VWidth: 0
Flags: W
HStem: -201 100<209 312> 0 100<209 312 418 521> 400 100<209 521>
VStem: 100 100<104 418> 201 301<0 104 418 521> 201 100<-209 -104> 301 100<-104 0>
LayerCount: 2
Back
Fore
SplineSet
201 500 m 25xe8
 500 500 l 25
 500 400 l 25xe8
 201 400 l 25
 201 100 l 25xf0
 500 100 l 25
 500 0 l 25xe8
 400 0 l 25
 400 -100 l 25xe2
 301 -100 l 25
 301 -201 l 25
 201 -201 l 25
 201 -100 l 25
 301 -100 l 25xe4
 301 0 l 25xe2
 201 0 l 25xe8
 201 100 l 25
 100 100 l 25
 100 400 l 25
 201 400 l 25xf0
 201 500 l 25xe8
EndSplineSet
EndChar

StartChar: egrave
Encoding: 232 232 166
Width: 599
VWidth: 0
Flags: W
HStem: 0 100<209 521> 201 100<209 418> 400 100<209 418> 600 100<312 418> 700 100<209 312>
VStem: 100 100<104 209 312 418> 201 100<729 834> 301 100<625 729> 400 100<312 418>
LayerCount: 2
Back
Fore
SplineSet
201 500 m 25xe2
 400 500 l 25
 400 400 l 25
 201 400 l 25
 201 301 l 25
 400 301 l 25
 400 400 l 25
 500 400 l 25
 500 201 l 25
 201 201 l 25
 201 100 l 25xe480
 500 100 l 25
 500 0 l 25
 201 0 l 25xe280
 201 100 l 25
 100 100 l 25
 100 400 l 25
 201 400 l 25xe4
 201 500 l 25xe2
201 800 m 25xea
 301 800 l 25xea
 301 700 l 25xf2
 400 700 l 25
 400 600 l 25
 301 600 l 25xf1
 301 700 l 25xf2
 201 700 l 25
 201 800 l 25xea
EndSplineSet
EndChar

StartChar: eacute
Encoding: 233 233 167
Width: 599
VWidth: 0
Flags: W
HStem: 0 100<209 521> 201 100<209 418> 400 100<209 418> 600 100<209 312> 700 100<312 418>
VStem: 100 100<104 209 312 418> 201 100<625 729> 301 100<729 834> 400 100<312 418>
LayerCount: 2
Back
Fore
SplineSet
201 500 m 25xe2
 400 500 l 25
 400 400 l 25
 201 400 l 25
 201 301 l 25
 400 301 l 25
 400 400 l 25
 500 400 l 25
 500 201 l 25
 201 201 l 25
 201 100 l 25xe480
 500 100 l 25
 500 0 l 25
 201 0 l 25xe280
 201 100 l 25
 100 100 l 25
 100 400 l 25
 201 400 l 25xe4
 201 500 l 25xe2
201 700 m 25xf2
 301 700 l 25xf2
 301 800 l 25
 400 800 l 25
 400 700 l 25xe9
 301 700 l 25
 301 600 l 25
 201 600 l 25
 201 700 l 25xf2
EndSplineSet
EndChar

StartChar: ecircumflex
Encoding: 234 234 168
Width: 599
VWidth: 0
Flags: W
HStem: 0 100<209 521> 201 100<209 418> 400 100<209 418> 600 100<104 209 418 521> 700 100<209 418>
VStem: 100 100<104 209 312 418 625 729> 201 201<418 521 729 834> 400 100<312 418 625 729>
LayerCount: 2
Back
Fore
SplineSet
201 500 m 25xe2
 400 500 l 25
 400 400 l 25xe2
 201 400 l 25
 201 301 l 25
 400 301 l 25xe5
 400 400 l 25xe2
 500 400 l 25
 500 201 l 25
 201 201 l 25
 201 100 l 25
 500 100 l 25
 500 0 l 25xe5
 201 0 l 25xe2
 201 100 l 25
 100 100 l 25
 100 400 l 25
 201 400 l 25xe4
 201 500 l 25xe2
100 700 m 25xf4
 201 700 l 25xf4
 201 800 l 25
 400 800 l 25xea
 400 700 l 25xf2
 500 700 l 25
 500 600 l 25
 400 600 l 25xf1
 400 700 l 25xf2
 201 700 l 25
 201 600 l 25
 100 600 l 25
 100 700 l 25xf4
EndSplineSet
EndChar

StartChar: edieresis
Encoding: 235 235 169
Width: 599
VWidth: 0
Flags: W
HStem: 0 100<209 521> 201 100<209 418> 400 100<209 418> 600 100<104 209 418 521>
VStem: 100 100<104 209 312 418 625 729> 400 100<312 418 625 729>
LayerCount: 2
Back
Fore
SplineSet
201 500 m 25
 400 500 l 25
 400 400 l 25
 201 400 l 25
 201 301 l 25
 400 301 l 25
 400 400 l 25
 500 400 l 25
 500 201 l 25
 201 201 l 25
 201 100 l 25
 500 100 l 25
 500 0 l 25
 201 0 l 25
 201 100 l 25
 100 100 l 25
 100 400 l 25
 201 400 l 25
 201 500 l 25
400 700 m 25
 500 700 l 25
 500 600 l 25
 400 600 l 25
 400 700 l 25
100 700 m 25
 201 700 l 25
 201 600 l 25
 100 600 l 25
 100 700 l 25
EndSplineSet
EndChar

StartChar: igrave
Encoding: 236 236 170
Width: 599
VWidth: 0
Flags: W
HStem: 0 0G<312 418> 500 0G<312 418> 600 100<312 418> 700 100<209 312>
VStem: 201 100<729 834> 301 100<0 521 625 729>
LayerCount: 2
Back
Fore
SplineSet
301 500 m 25xc4
 400 500 l 25
 400 0 l 25
 301 0 l 25
 301 500 l 25xc4
201 800 m 25xd8
 301 800 l 25xd8
 301 700 l 25xe8
 400 700 l 25
 400 600 l 25
 301 600 l 25xe4
 301 700 l 25xe8
 201 700 l 25
 201 800 l 25xd8
EndSplineSet
EndChar

StartChar: iacute
Encoding: 237 237 171
Width: 599
VWidth: 0
Flags: W
HStem: 0 0G<312 418> 500 0G<312 418> 600 100<312 418> 700 100<418 521>
VStem: 301 100<0 521 625 729> 400 100<729 834>
LayerCount: 2
Back
Fore
SplineSet
301 500 m 25xc8
 400 500 l 25
 400 0 l 25
 301 0 l 25
 301 500 l 25xc8
400 800 m 25xd4
 500 800 l 25
 500 700 l 25xd4
 400 700 l 25
 400 600 l 25
 301 600 l 25
 301 700 l 25
 400 700 l 25xe8
 400 800 l 25xd4
EndSplineSet
EndChar

StartChar: icircumflex
Encoding: 238 238 172
Width: 599
VWidth: 0
Flags: W
HStem: 0 0G<312 418> 500 0G<312 418> 600 100<209 312 418 521> 700 100<312 418>
VStem: 201 100<625 729> 301 100<0 521 729 834> 400 100<625 729>
LayerCount: 2
Back
Fore
SplineSet
301 500 m 25xc4
 400 500 l 25
 400 0 l 25
 301 0 l 25
 301 500 l 25xc4
201 700 m 25xe8
 301 700 l 25xe8
 301 800 l 25
 400 800 l 25xd4
 400 700 l 25xe4
 500 700 l 25
 500 600 l 25
 400 600 l 25xe2
 400 700 l 25xe4
 301 700 l 25
 301 600 l 25
 201 600 l 25
 201 700 l 25xe8
EndSplineSet
EndChar

StartChar: idieresis
Encoding: 239 239 173
Width: 599
VWidth: 0
Flags: W
HStem: 0 0G<312 418> 500 0G<312 418> 600 100<209 312 418 521>
VStem: 201 100<625 729> 301 100<0 521> 400 100<625 729>
LayerCount: 2
Back
Fore
SplineSet
301 500 m 25xe8
 400 500 l 25
 400 0 l 25
 301 0 l 25
 301 500 l 25xe8
400 700 m 25xe4
 500 700 l 25
 500 600 l 25
 400 600 l 25
 400 700 l 25xe4
201 700 m 25xf0
 301 700 l 25
 301 600 l 25
 201 600 l 25
 201 700 l 25xf0
EndSplineSet
EndChar

StartChar: eth
Encoding: 240 240 174
Width: 599
VWidth: 0
Flags: W
HStem: 0 100<209 418> 100 100<104 209> 201 100<209 418> 400 100<312 418> 500 100<521 625> 600 100<312 418>
VStem: 100 100<104 209> 301 100<625 729> 400 100<104 209 312 418>
LayerCount: 2
Back
Fore
SplineSet
301 700 m 25x37
 400 700 l 25
 400 600 l 25x37
 600 600 l 25
 600 500 l 25
 500 500 l 25
 500 100 l 25x4a80
 400 100 l 25
 400 201 l 25xa280
 201 201 l 25x4280
 201 100 l 25
 400 100 l 25
 400 0 l 25
 201 0 l 25
 201 100 l 25x8280
 100 100 l 25
 100 201 l 25
 201 201 l 25x4280
 201 301 l 25
 400 301 l 25
 400 400 l 25x3280
 301 400 l 25
 301 500 l 25x33
 400 500 l 25x3280
 400 600 l 25
 301 600 l 25
 301 700 l 25x37
EndSplineSet
EndChar

StartChar: ntilde
Encoding: 241 241 175
Width: 599
VWidth: 0
Flags: W
HStem: 0 0G<104 209 418 521> 400 100<209 418> 600 100<104 209 312 418> 700 100<209 312 418 521>
VStem: 100 100<0 418 625 729> 301 100<625 729> 400 100<0 418 729 834>
LayerCount: 2
Back
Fore
SplineSet
100 500 m 25xca
 400 500 l 25
 400 400 l 25
 500 400 l 25
 500 0 l 25
 400 0 l 25
 400 400 l 25
 201 400 l 25
 201 0 l 25
 100 0 l 25
 100 500 l 25xca
100 700 m 25xec
 201 700 l 25xec
 201 800 l 25
 301 800 l 25xdc
 301 700 l 25
 400 700 l 25xec
 400 800 l 25
 500 800 l 25
 500 700 l 25xda
 400 700 l 25
 400 600 l 25
 301 600 l 25
 301 700 l 25
 201 700 l 25
 201 600 l 25
 100 600 l 25
 100 700 l 25xec
EndSplineSet
EndChar

StartChar: ograve
Encoding: 242 242 176
Width: 599
VWidth: 0
Flags: W
HStem: 0 100<209 418> 100 301<104 209 418 521> 400 100<209 312> 600 100<209 312>
VStem: 100 100<104 418> 201 100<625 729> 301 100<521 625> 400 100<104 418>
LayerCount: 2
Back
Fore
SplineSet
201 700 m 25x34
 301 700 l 25
 301 600 l 25x34
 400 600 l 25x32
 400 400 l 25
 201 400 l 25x59
 201 100 l 25
 400 100 l 25x99
 400 400 l 25
 500 400 l 25
 500 100 l 25x59
 400 100 l 25
 400 0 l 25
 201 0 l 25x95
 201 100 l 25x98
 100 100 l 25
 100 400 l 25
 201 400 l 25x58
 201 500 l 25x34
 301 500 l 25x32
 301 600 l 25
 201 600 l 25
 201 700 l 25x34
EndSplineSet
EndChar

StartChar: oacute
Encoding: 243 243 177
Width: 599
VWidth: 0
Flags: W
HStem: 0 100<209 418> 100 301<104 209 418 521> 400 100<312 418> 600 100<312 418>
VStem: 100 100<104 418> 201 100<521 625> 301 100<625 729> 400 100<104 418>
LayerCount: 2
Back
Fore
SplineSet
400 700 m 25x52
 400 600 l 25x52
 301 600 l 25
 301 500 l 25
 400 500 l 25x35
 400 400 l 25
 201 400 l 25x59
 201 100 l 25
 400 100 l 25x99
 400 400 l 25
 500 400 l 25
 500 100 l 25x59
 400 100 l 25
 400 0 l 25
 201 0 l 25x95
 201 100 l 25x98
 100 100 l 25
 100 400 l 25
 201 400 l 25x58
 201 600 l 25
 301 600 l 25x54
 301 700 l 25
 400 700 l 25x52
EndSplineSet
EndChar

StartChar: ocircumflex
Encoding: 244 244 178
Width: 599
VWidth: 0
Flags: W
HStem: 0 100<209 418> 100 301<104 209 418 521> 400 100<209 418> 600 100<104 209 418 521> 700 100<209 418>
VStem: 100 100<104 418 625 729> 201 201<0 104 418 521 729 834> 400 100<104 418 625 729>
LayerCount: 2
Back
Fore
SplineSet
201 500 m 25x22
 400 500 l 25x22
 400 400 l 25x42
 201 400 l 25x44
 201 100 l 25x84
 400 100 l 25x82
 400 400 l 25x42
 500 400 l 25
 500 100 l 25x41
 400 100 l 25
 400 0 l 25
 201 0 l 25x82
 201 100 l 25x84
 100 100 l 25
 100 400 l 25
 201 400 l 25x44
 201 500 l 25x22
100 700 m 25x14
 201 700 l 25x14
 201 800 l 25
 400 800 l 25x0a
 400 700 l 25x12
 500 700 l 25
 500 600 l 25
 400 600 l 25x11
 400 700 l 25x12
 201 700 l 25
 201 600 l 25
 100 600 l 25
 100 700 l 25x14
EndSplineSet
EndChar

StartChar: otilde
Encoding: 245 245 179
Width: 599
VWidth: 0
Flags: W
HStem: 0 100<209 418> 100 301<104 209 418 521> 400 100<209 418> 600 100<104 209 312 418> 700 100<209 312 418 521>
VStem: 100 100<104 418 625 729> 201 100<729 834> 301 100<625 729> 400 100<104 418 729 834>
LayerCount: 2
Back
Fore
SplineSet
201 500 m 25x22
 400 500 l 25x2280
 400 400 l 25
 201 400 l 25x4480
 201 100 l 25
 400 100 l 25x8480
 400 400 l 25
 500 400 l 25
 500 100 l 25x4480
 400 100 l 25
 400 0 l 25
 201 0 l 25x8280
 201 100 l 25x84
 100 100 l 25
 100 400 l 25
 201 400 l 25x44
 201 500 l 25x22
100 700 m 25x14
 201 700 l 25x14
 201 800 l 25
 301 800 l 25x0a
 301 700 l 25x12
 400 700 l 25x11
 400 800 l 25
 500 800 l 25
 500 700 l 25x0880
 400 700 l 25
 400 600 l 25
 301 600 l 25x11
 301 700 l 25x12
 201 700 l 25
 201 600 l 25
 100 600 l 25
 100 700 l 25x14
EndSplineSet
EndChar

StartChar: odieresis
Encoding: 246 246 180
Width: 599
VWidth: 0
Flags: W
HStem: 0 100<209 418> 100 301<104 209 418 521> 400 100<209 418> 600 100<104 209 418 521>
VStem: 100 100<104 418 625 729> 201 201<0 104 418 521> 400 100<104 418 625 729>
LayerCount: 2
Back
Fore
SplineSet
201 500 m 25x34
 400 500 l 25x34
 400 400 l 25x54
 201 400 l 25x58
 201 100 l 25x98
 400 100 l 25x94
 400 400 l 25x54
 500 400 l 25
 500 100 l 25x52
 400 100 l 25
 400 0 l 25
 201 0 l 25x94
 201 100 l 25x98
 100 100 l 25
 100 400 l 25
 201 400 l 25x58
 201 500 l 25x34
400 700 m 25x12
 500 700 l 25
 500 600 l 25
 400 600 l 25
 400 700 l 25x12
100 700 m 25x18
 201 700 l 25
 201 600 l 25
 100 600 l 25
 100 700 l 25x18
EndSplineSet
EndChar

StartChar: divide
Encoding: 247 247 181
Width: 599
VWidth: 0
Flags: W
HStem: 100 100<312 418> 301 100<104 625> 500 100<312 418>
VStem: 301 100<104 209 521 625>
CounterMasks: 1 e0
LayerCount: 2
Back
Fore
SplineSet
301 201 m 25
 400 201 l 25
 400 100 l 25
 301 100 l 25
 301 201 l 25
100 400 m 25
 600 400 l 25
 600 301 l 25
 100 301 l 25
 100 400 l 25
301 600 m 25
 400 600 l 25
 400 500 l 25
 301 500 l 25
 301 600 l 25
EndSplineSet
EndChar

StartChar: oslash
Encoding: 248 248 182
Width: 599
VWidth: 0
Flags: W
HStem: -100 100<0 104> 0 100<209 418> 201 100<209 418> 400 100<209 418> 500 100<521 625>
VStem: 0 100<-104 0> 100 100<104 209 312 418> 400 100<104 209 312 418> 500 100<521 625>
LayerCount: 2
Back
Fore
SplineSet
201 500 m 25xb3
 500 500 l 25
 500 600 l 25
 600 600 l 25
 600 500 l 25
 500 500 l 25x2a80
 500 100 l 25
 400 100 l 25
 400 201 l 25
 201 201 l 25
 201 100 l 25
 400 100 l 25
 400 0 l 25x6b
 100 0 l 25
 100 -100 l 25
 0 -100 l 25
 0 0 l 25
 100 0 l 25xa5
 100 400 l 25
 201 400 l 25
 201 301 l 25
 400 301 l 25
 400 400 l 25
 201 400 l 25
 201 500 l 25xb3
EndSplineSet
EndChar

StartChar: ugrave
Encoding: 249 249 183
Width: 599
VWidth: 0
Flags: W
HStem: 0 100<209 418> 500 0G<104 209 418 521> 600 100<312 418> 700 100<209 312>
VStem: 100 100<104 521> 201 100<729 834> 301 100<625 729> 400 100<104 521>
LayerCount: 2
Back
Fore
SplineSet
400 500 m 25xc9
 500 500 l 25
 500 0 l 25
 201 0 l 25xc5
 201 100 l 25
 100 100 l 25
 100 500 l 25
 201 500 l 25
 201 100 l 25
 400 100 l 25
 400 500 l 25xc9
201 800 m 25xd4
 301 800 l 25xd4
 301 700 l 25xe4
 400 700 l 25
 400 600 l 25
 301 600 l 25xe2
 301 700 l 25xe4
 201 700 l 25
 201 800 l 25xd4
EndSplineSet
EndChar

StartChar: uacute
Encoding: 250 250 184
Width: 599
VWidth: 0
Flags: W
HStem: 0 100<209 418> 500 0G<104 209 418 521> 600 100<209 312> 700 100<312 418>
VStem: 100 100<104 521> 201 100<625 729> 301 100<729 834> 400 100<104 521>
LayerCount: 2
Back
Fore
SplineSet
400 500 m 25xc9
 500 500 l 25
 500 0 l 25
 201 0 l 25xc5
 201 100 l 25
 100 100 l 25
 100 500 l 25
 201 500 l 25
 201 100 l 25
 400 100 l 25
 400 500 l 25xc9
201 700 m 25xe4
 301 700 l 25xe4
 301 800 l 25
 400 800 l 25
 400 700 l 25xd2
 301 700 l 25
 301 600 l 25
 201 600 l 25
 201 700 l 25xe4
EndSplineSet
EndChar

StartChar: ucircumflex
Encoding: 251 251 185
Width: 599
VWidth: 0
Flags: W
HStem: 0 100<209 418> 500 0G<104 209 418 521> 600 100<104 209 418 521> 700 100<209 418>
VStem: 100 100<104 521 625 729> 400 100<104 521 625 729>
LayerCount: 2
Back
Fore
SplineSet
400 500 m 25xcc
 500 500 l 25
 500 0 l 25
 201 0 l 25
 201 100 l 25
 100 100 l 25
 100 500 l 25
 201 500 l 25
 201 100 l 25
 400 100 l 25
 400 500 l 25xcc
100 700 m 25xec
 201 700 l 25xec
 201 800 l 25
 400 800 l 25xdc
 400 700 l 25
 500 700 l 25
 500 600 l 25
 400 600 l 25
 400 700 l 25
 201 700 l 25
 201 600 l 25
 100 600 l 25
 100 700 l 25xec
EndSplineSet
EndChar

StartChar: udieresis
Encoding: 252 252 186
Width: 599
VWidth: 0
Flags: W
HStem: 0 100<209 418> 500 0G<104 209 418 521> 600 100<104 209 418 521>
VStem: 100 100<104 521 625 729> 400 100<104 521 625 729>
LayerCount: 2
Back
Fore
SplineSet
400 500 m 25
 500 500 l 25
 500 0 l 25
 201 0 l 25
 201 100 l 25
 100 100 l 25
 100 500 l 25
 201 500 l 25
 201 100 l 25
 400 100 l 25
 400 500 l 25
400 700 m 25
 500 700 l 25
 500 600 l 25
 400 600 l 25
 400 700 l 25
100 700 m 25
 201 700 l 25
 201 600 l 25
 100 600 l 25
 100 700 l 25
EndSplineSet
EndChar

StartChar: yacute
Encoding: 253 253 187
Width: 599
VWidth: 0
Flags: W
HStem: -100 100<209 418> 100 100<209 418> 500 0G<418 521> 500 100<209 312> 600 100<312 418>
VStem: 100 100<209 521> 201 100<521 625> 301 100<625 729> 400 100<0 104 209 521>
LayerCount: 2
Back
Fore
SplineSet
301 700 m 25xc9
 400 700 l 25
 400 600 l 25xc9
 301 600 l 25
 301 500 l 25xd2
 201 500 l 25
 201 201 l 25xd4
 400 201 l 25
 400 500 l 25
 500 500 l 25
 500 0 l 25
 400 0 l 25
 400 -100 l 25
 201 -100 l 25
 201 0 l 25
 400 0 l 25
 400 100 l 25
 201 100 l 25xe280
 201 201 l 25
 100 201 l 25
 100 500 l 25
 201 500 l 25xd4
 201 600 l 25
 301 600 l 25xd2
 301 700 l 25xc9
EndSplineSet
EndChar

StartChar: thorn
Encoding: 254 254 188
Width: 599
VWidth: 0
Flags: W
HStem: -100 0G<104 209> 100 100<209 418> 201 100<418 521> 600 0G<104 209>
VStem: 100 301<104 209 312 418> 100 100<-104 104 209 312 418 625> 400 100<209 312>
LayerCount: 2
Back
Fore
SplineSet
100 600 m 25xd4
 201 600 l 25
 201 400 l 25xd4
 400 400 l 25
 400 301 l 25xb8
 201 301 l 25xb4
 201 201 l 25xd4
 400 201 l 25xd8
 400 301 l 25xb8
 500 301 l 25
 500 201 l 25xb2
 400 201 l 25
 400 100 l 25xd8
 201 100 l 25
 201 -100 l 25
 100 -100 l 25
 100 600 l 25xd4
EndSplineSet
EndChar

StartChar: ydieresis
Encoding: 255 255 189
Width: 599
VWidth: 0
Flags: W
HStem: -100 100<209 418> 100 100<209 418> 500 0G<104 209 418 521> 600 100<104 209 418 521>
VStem: 100 100<209 521 625 729> 400 100<0 104 209 521 625 729>
LayerCount: 2
Back
Fore
SplineSet
100 500 m 25
 201 500 l 25
 201 201 l 25
 400 201 l 25
 400 500 l 25
 500 500 l 25
 500 0 l 25
 400 0 l 25
 400 -100 l 25
 201 -100 l 25
 201 0 l 25
 400 0 l 25
 400 100 l 25
 201 100 l 25
 201 201 l 25
 100 201 l 25
 100 500 l 25
400 700 m 25
 500 700 l 25
 500 600 l 25
 400 600 l 25
 400 700 l 25
100 700 m 25
 201 700 l 25
 201 600 l 25
 100 600 l 25
 100 700 l 25
EndSplineSet
EndChar

StartChar: uni0185
Encoding: 270 389 262
Width: 599
VWidth: 0
Flags: W
LayerCount: 2
Back
SplineSet
0 8.10546875 m 29
 6.15234375 8.10546875 l 25
 6.15234375 -2.05078125 l 25
 0 -2.05078125 l 25
 0 8.10546875 l 29
EndSplineSet
EndChar

StartChar: pi
Encoding: 402 960 401
Width: 599
VWidth: 0
Flags: W
HStem: 0 100<418 521> 400 100<0 104 209 312 418 521>
VStem: 100 100<0 418> 301 100<104 418> 400 100<0 104>
LayerCount: 2
Back
Fore
SplineSet
0 500 m 25xf0
 500 500 l 25
 500 400 l 25xe8
 400 400 l 25
 400 100 l 25xf0
 500 100 l 25
 500 0 l 25
 400 0 l 25xe8
 400 100 l 25
 301 100 l 25
 301 400 l 25
 201 400 l 25
 201 0 l 25
 100 0 l 25
 100 400 l 25
 0 400 l 25
 0 500 l 25xf0
EndSplineSet
EndChar

StartChar: arrowup
Encoding: 403 8593 402
Width: 599
VWidth: 0
Flags: W
HStem: 0 0G<312 418> 400 100<104 209 521 625> 500 100<209 312 418 521> 700 0G<312 418>
VStem: 100 100<418 521> 301 100<0 521 625 729> 500 100<418 521>
CounterMasks: 1 0e
LayerCount: 2
Back
Fore
SplineSet
100 500 m 25xde
 201 500 l 25xde
 201 600 l 25
 301 600 l 25
 301 700 l 25
 400 700 l 25
 400 600 l 25
 500 600 l 25xbe
 500 500 l 25
 600 500 l 25
 600 400 l 25
 500 400 l 25
 500 500 l 25xde
 400 500 l 25
 400 0 l 25
 301 0 l 25
 301 500 l 25xbe
 201 500 l 25
 201 400 l 25
 100 400 l 25
 100 500 l 25xde
EndSplineSet
EndChar

StartChar: arrowdown
Encoding: 404 8595 403
Width: 599
VWidth: 0
Flags: W
HStem: 0 0G<312 418> 100 100<209 312 418 521> 201 100<104 209 521 625> 700 0G<312 418>
VStem: 100 100<209 312> 301 100<0 104 209 729> 500 100<209 312>
CounterMasks: 1 0e
LayerCount: 2
Back
Fore
SplineSet
301 700 m 25xde
 400 700 l 25
 400 201 l 25
 500 201 l 25xde
 500 301 l 25
 600 301 l 25
 600 201 l 25xbe
 500 201 l 25
 500 100 l 25
 400 100 l 25
 400 0 l 25
 301 0 l 25
 301 100 l 25
 201 100 l 25
 201 201 l 25xde
 100 201 l 25
 100 301 l 25
 201 301 l 25xbe
 201 201 l 25
 301 201 l 25
 301 700 l 25xde
EndSplineSet
EndChar

StartChar: lessequal
Encoding: 405 8804 404
Width: 599
VWidth: 0
Flags: W
HStem: -201 100<209 312> -100 100<104 209> 0 100<0 104 312 418> 100 100<209 312> 201 100<104 209> 400 100<104 209> 500 100<209 312> 600 100<312 418>
VStem: 0 100<0 104 312 418> 100 100<-104 0 209 312 418 521> 201 100<-209 -104 104 209 521 625> 301 100<0 104 625 729>
LayerCount: 2
Back
Fore
SplineSet
0 100 m 25x2080
 100 100 l 25x2080
 100 0 l 25x4080
 201 0 l 25x4040
 201 -100 l 25x8040
 301 -100 l 25
 301 -201 l 25
 201 -201 l 25x8020
 201 -100 l 25x8040
 100 -100 l 25x4040
 100 0 l 25x4080
 0 0 l 25
 0 100 l 25x2080
301 700 m 25x0110
 400 700 l 25
 400 600 l 25x0110
 301 600 l 25
 301 500 l 25x0220
 201 500 l 25
 201 400 l 25x0440
 100 400 l 25
 100 301 l 25x0c80
 201 301 l 25x0c40
 201 201 l 25x1040
 301 201 l 25x1020
 301 100 l 25x2020
 400 100 l 25
 400 0 l 25
 301 0 l 25x2010
 301 100 l 25x2020
 201 100 l 25x1020
 201 201 l 25x1040
 100 201 l 25x0840
 100 301 l 25
 0 301 l 25
 0 400 l 25
 100 400 l 25x0c80
 100 500 l 25
 201 500 l 25x0c40
 201 600 l 25
 301 600 l 25x0220
 301 700 l 25x0110
EndSplineSet
EndChar

StartChar: greaterequal
Encoding: 406 8805 405
Width: 599
VWidth: 0
Flags: W
HStem: -201 100<209 312> -100 100<312 418> 0 100<104 209 418 521> 100 100<209 312> 201 100<312 418> 400 100<312 418> 500 100<209 312> 600 100<104 209>
VStem: 100 100<0 104 625 729> 201 100<-209 -104 104 209 521 625> 301 100<-104 0 209 312 418 521> 400 100<0 104 312 418>
LayerCount: 2
Back
Fore
SplineSet
400 100 m 25x2010
 500 100 l 25
 500 0 l 25x2010
 400 0 l 25
 400 -100 l 25x4020
 301 -100 l 25
 301 -201 l 25
 201 -201 l 25
 201 -100 l 25
 301 -100 l 25x8040
 301 0 l 25
 400 0 l 25x4020
 400 100 l 25x2010
100 700 m 25x0180
 201 700 l 25x0180
 201 600 l 25x0280
 301 600 l 25x0240
 301 500 l 25x0440
 400 500 l 25
 400 400 l 25x0420
 500 400 l 25
 500 301 l 25x0c10
 400 301 l 25
 400 201 l 25x0c20
 301 201 l 25
 301 100 l 25x1040
 201 100 l 25
 201 0 l 25
 100 0 l 25
 100 100 l 25
 201 100 l 25x2080
 201 201 l 25
 301 201 l 25x1040
 301 301 l 25
 400 301 l 25
 400 400 l 25
 301 400 l 25x0c20
 301 500 l 25x0c40
 201 500 l 25x0240
 201 600 l 25x0280
 100 600 l 25
 100 700 l 25x0180
EndSplineSet
EndChar

StartChar: SF100000
Encoding: 407 9472 406
Width: 599
VWidth: 0
Flags: W
HStem: 301 100<0 625>
LayerCount: 2
Back
Fore
SplineSet
0 400 m 25
 600 400 l 25
 600 301 l 25
 0 301 l 25
 0 400 l 25
EndSplineSet
EndChar

StartChar: uni2501
Encoding: 408 9473 407
Width: 599
VWidth: 0
Flags: W
HStem: 201 201<0 625>
LayerCount: 2
Back
Fore
SplineSet
0 400 m 25
 600 400 l 25
 600 201 l 25
 0 201 l 25
 0 400 l 25
EndSplineSet
EndChar

StartChar: SF110000
Encoding: 409 9474 408
Width: 599
VWidth: 0
Flags: W
VStem: 201 100<-209 834>
LayerCount: 2
Back
Fore
SplineSet
200 800 m 1
 300 800 l 5
 301 -201 l 1
 201 -201 l 1
 200 800 l 1
EndSplineSet
EndChar

StartChar: uni2503
Encoding: 410 9475 409
Width: 599
VWidth: 0
Flags: W
VStem: 201 201<-209 834>
LayerCount: 2
Back
Fore
SplineSet
200 800 m 1
 400 800 l 5
 400 -201 l 1
 201 -201 l 1
 200 800 l 1
EndSplineSet
EndChar

StartChar: uni2504
Encoding: 411 9476 410
Width: 599
VWidth: 0
Flags: W
HStem: 301 100<0 104 209 312 418 521>
VStem: 0 100<312 418> 201 100<312 418> 400 100<312 418>
CounterMasks: 1 70
LayerCount: 2
Back
Fore
SplineSet
500 301 m 25
 400 301 l 25
 400 400 l 25
 500 400 l 25
 500 301 l 25
301 400 m 25
 301 301 l 25
 201 301 l 25
 201 400 l 25
 301 400 l 25
0 400 m 25
 100 400 l 25
 100 301 l 25
 0 301 l 25
 0 400 l 25
EndSplineSet
EndChar

StartChar: uni2505
Encoding: 412 9477 411
Width: 599
VWidth: 0
Flags: W
HStem: 201 201<0 104 209 312 418 521>
VStem: 0 100<209 418> 201 100<209 418> 400 100<209 418>
CounterMasks: 1 70
LayerCount: 2
Back
Fore
SplineSet
400 400 m 25
 500 400 l 25
 500 201 l 25
 400 201 l 25
 400 400 l 25
201 400 m 25
 301 400 l 25
 301 201 l 25
 201 201 l 25
 201 400 l 25
0 400 m 25
 100 400 l 25
 100 201 l 25
 0 201 l 25
 0 400 l 25
EndSplineSet
EndChar

StartChar: uni2506
Encoding: 413 9478 412
Width: 599
VWidth: 0
Flags: W
HStem: 0 0G<209 312> 500 0G<209 312> 600 0G<209 312>
VStem: 201 100<-209 0 104 521 625 834>
LayerCount: 2
Back
Fore
SplineSet
201 0 m 25
 301 0 l 25
 301 -201 l 25
 201 -201 l 25
 201 0 l 25
201 500 m 25
 301 500 l 25
 301 100 l 25
 201 100 l 25
 201 500 l 25
200 800 m 1
 300 800 l 5
 301 600 l 1
 201 600 l 1
 200 800 l 1
EndSplineSet
EndChar

StartChar: uni2507
Encoding: 414 9479 413
Width: 599
VWidth: 0
Flags: W
HStem: -201 201<209 418> 500 0G<209 418> 600 201<209 418>
VStem: 201 201<-209 0 104 521 625 834>
LayerCount: 2
Back
Fore
SplineSet
201 0 m 25
 400 0 l 25
 400 -201 l 25
 201 -201 l 25
 201 0 l 25
201 500 m 25
 400 500 l 25
 400 100 l 25
 201 100 l 25
 201 500 l 25
200 800 m 1
 400 800 l 5
 400 600 l 1
 201 600 l 1
 200 800 l 1
EndSplineSet
EndChar

StartChar: uni2508
Encoding: 415 9480 414
Width: 599
VWidth: 0
Flags: W
HStem: 301 100<0 104 209 312 418 521>
VStem: 0 100<312 418> 201 100<312 418> 400 100<312 418>
CounterMasks: 1 70
LayerCount: 2
Back
Fore
SplineSet
400 400 m 25
 500 400 l 25
 500 301 l 25
 400 301 l 25
 400 400 l 25
201 400 m 25
 301 400 l 25
 301 301 l 25
 201 301 l 25
 201 400 l 25
0 400 m 25
 100 400 l 25
 100 301 l 25
 0 301 l 25
 0 400 l 25
EndSplineSet
EndChar

StartChar: uni2509
Encoding: 416 9481 415
Width: 599
VWidth: 0
Flags: W
HStem: 201 201<0 104 209 312 418 521>
VStem: 0 100<209 418> 201 100<209 418> 400 100<209 418>
CounterMasks: 1 70
LayerCount: 2
Back
Fore
SplineSet
400 400 m 25
 500 400 l 25
 500 201 l 25
 400 201 l 25
 400 400 l 25
201 400 m 25
 301 400 l 25
 301 201 l 25
 201 201 l 25
 201 400 l 25
0 400 m 25
 100 400 l 25
 100 201 l 25
 0 201 l 25
 0 400 l 25
EndSplineSet
EndChar

StartChar: uni250A
Encoding: 417 9482 416
Width: 599
VWidth: 0
Flags: W
HStem: -201 100<209 312> 0 0G<209 312> 500 0G<209 312> 600 0G<209 312>
VStem: 201 100<-209 -104 0 209 312 521 625 834>
LayerCount: 2
Back
Fore
SplineSet
201 -100 m 25
 301 -100 l 25
 301 -201 l 25
 201 -201 l 25
 201 -100 l 25
201 201 m 25
 301 201 l 25
 301 0 l 25
 201 0 l 25
 201 201 l 25
201 500 m 25
 301 500 l 25
 301 301 l 25
 201 301 l 25
 201 500 l 25
200 800 m 1
 300 800 l 5
 301 600 l 1
 201 600 l 1
 200 800 l 1
EndSplineSet
EndChar

StartChar: uni250B
Encoding: 418 9483 417
Width: 599
VWidth: 0
Flags: W
HStem: -201 100<209 418> 0 201<209 418> 301 201<209 418> 600 201<209 418>
VStem: 201 201<-209 -104 0 209 312 521 625 834>
LayerCount: 2
Back
Fore
SplineSet
201 -100 m 25
 400 -100 l 25
 400 -201 l 25
 201 -201 l 25
 201 -100 l 25
201 201 m 25
 400 201 l 25
 400 0 l 25
 201 0 l 25
 201 201 l 25
201 500 m 25
 400 500 l 25
 400 301 l 25
 201 301 l 25
 201 500 l 25
200 800 m 1
 400 800 l 5
 400 600 l 1
 201 600 l 1
 200 800 l 1
EndSplineSet
EndChar

StartChar: SF010000
Encoding: 419 9484 418
Width: 599
VWidth: 0
Flags: W
HStem: 301 100<312 625>
VStem: 201 100<-209 312>
LayerCount: 2
Back
Fore
SplineSet
201 400 m 25
 600 400 l 25
 600 301 l 25
 301 301 l 25
 301 -201 l 25
 201 -201 l 25
 201 400 l 25
EndSplineSet
EndChar

StartChar: uni250D
Encoding: 420 9485 419
Width: 599
VWidth: 0
Flags: W
HStem: 201 201<312 625>
VStem: 201 100<-209 209>
LayerCount: 2
Back
Fore
SplineSet
201 400 m 25
 600 400 l 25
 600 201 l 25
 301 201 l 25
 301 -201 l 25
 201 -201 l 25
 201 400 l 25
EndSplineSet
EndChar

StartChar: uni250E
Encoding: 421 9486 420
Width: 599
VWidth: 0
Flags: W
HStem: 301 100<418 625>
VStem: 201 201<-209 312>
LayerCount: 2
Back
Fore
SplineSet
201 400 m 25
 600 400 l 25
 600 301 l 25
 400 301 l 25
 400 -201 l 25
 201 -201 l 25
 201 400 l 25
EndSplineSet
EndChar

StartChar: uni250F
Encoding: 422 9487 421
Width: 599
VWidth: 0
Flags: W
HStem: 201 201<418 625>
VStem: 201 201<-209 209>
LayerCount: 2
Back
Fore
SplineSet
201 400 m 25
 600 400 l 25
 600 201 l 25
 400 201 l 25
 400 -201 l 25
 201 -201 l 25
 201 400 l 25
EndSplineSet
EndChar

StartChar: SF030000
Encoding: 423 9488 422
Width: 599
VWidth: 0
Flags: W
HStem: 301 100<0 209>
VStem: 201 100<-209 312>
LayerCount: 2
Back
Fore
SplineSet
0 400 m 25
 301 400 l 25
 301 -201 l 25
 201 -201 l 25
 201 301 l 25
 0 301 l 25
 0 400 l 25
EndSplineSet
EndChar

StartChar: uni2511
Encoding: 424 9489 423
Width: 599
VWidth: 0
Flags: W
HStem: 201 201<0 209>
VStem: 0 301<209 418> 201 100<-209 209>
LayerCount: 2
Back
Fore
SplineSet
0 400 m 25xc0
 301 400 l 25xc0
 301 -201 l 25
 201 -201 l 25
 201 201 l 25xa0
 0 201 l 25
 0 400 l 25xc0
EndSplineSet
EndChar

StartChar: uni2512
Encoding: 425 9490 424
Width: 599
VWidth: 0
Flags: W
HStem: 301 100<0 209>
VStem: 201 201<-209 312>
LayerCount: 2
Back
Fore
SplineSet
0 400 m 25
 400 400 l 25
 400 -201 l 25
 201 -201 l 25
 201 301 l 25
 0 301 l 25
 0 400 l 25
EndSplineSet
EndChar

StartChar: uni2513
Encoding: 426 9491 425
Width: 599
VWidth: 0
Flags: W
HStem: 201 201<0 209>
VStem: 201 201<-209 209>
LayerCount: 2
Back
Fore
SplineSet
0 400 m 25
 400 400 l 25
 400 -201 l 25
 201 -201 l 25
 201 201 l 25
 0 201 l 25
 0 400 l 25
EndSplineSet
EndChar

StartChar: SF020000
Encoding: 427 9492 426
Width: 599
VWidth: 0
Flags: W
HStem: 301 100<312 625>
VStem: 201 100<418 834>
LayerCount: 2
Back
Fore
SplineSet
200 800 m 5
 300 800 l 1
 301 400 l 1
 600 400 l 25
 600 301 l 25
 201 301 l 1
 200 800 l 5
EndSplineSet
EndChar

StartChar: uni2515
Encoding: 428 9493 427
Width: 599
VWidth: 0
Flags: W
HStem: 201 201<312 625>
VStem: 201 100<418 834>
LayerCount: 2
Back
Fore
SplineSet
200 800 m 1
 300 800 l 5
 301 400 l 1
 600 400 l 25
 600 201 l 25
 201 201 l 1
 200 800 l 1
EndSplineSet
EndChar

StartChar: uni2516
Encoding: 429 9494 428
Width: 599
VWidth: 0
Flags: W
HStem: 301 100<418 625>
VStem: 201 201<418 834>
LayerCount: 2
Back
Fore
SplineSet
200 800 m 1
 400 800 l 5
 400 400 l 1
 600 400 l 25
 600 301 l 25
 201 301 l 1
 200 800 l 1
EndSplineSet
EndChar

StartChar: uni2517
Encoding: 430 9495 429
Width: 599
VWidth: 0
Flags: W
HStem: 201 201<418 625>
VStem: 201 201<418 834>
LayerCount: 2
Back
Fore
SplineSet
200 800 m 1
 400 800 l 5
 400 400 l 1
 600 400 l 25
 600 201 l 25
 201 201 l 1
 200 800 l 1
EndSplineSet
EndChar

StartChar: SF040000
Encoding: 431 9496 430
Width: 599
VWidth: 0
Flags: W
HStem: 301 100<0 209>
VStem: 201 100<418 834>
LayerCount: 2
Back
Fore
SplineSet
200 800 m 1
 300 800 l 5
 301 301 l 1
 0 301 l 25
 0 400 l 25
 201 400 l 1
 200 800 l 1
EndSplineSet
EndChar

StartChar: uni2519
Encoding: 432 9497 431
Width: 599
VWidth: 0
Flags: W
HStem: 201 201<0 209>
VStem: 0 301<209 418> 201 100<418 834>
LayerCount: 2
Back
Fore
SplineSet
200 800 m 1xa0
 300 800 l 5xa0
 301 201 l 1
 0 201 l 25
 0 400 l 25xc0
 201 400 l 1
 200 800 l 1xa0
EndSplineSet
EndChar

StartChar: uni251A
Encoding: 433 9498 432
Width: 599
VWidth: 0
Flags: W
HStem: 301 100<0 209>
VStem: 201 201<418 834>
LayerCount: 2
Back
Fore
SplineSet
200 800 m 1
 400 800 l 5
 400 301 l 1
 0 301 l 25
 0 400 l 25
 201 400 l 1
 200 800 l 1
EndSplineSet
EndChar

StartChar: uni251B
Encoding: 434 9499 433
Width: 599
VWidth: 0
Flags: W
HStem: 201 201<0 209>
VStem: 201 201<418 834>
LayerCount: 2
Back
Fore
SplineSet
200 800 m 5
 400 800 l 1
 400 201 l 1
 0 201 l 25
 0 400 l 25
 201 400 l 1
 200 800 l 5
EndSplineSet
EndChar

StartChar: SF080000
Encoding: 435 9500 434
Width: 599
VWidth: 0
Flags: W
HStem: 301 100<312 625>
VStem: 201 100<-209 312 418 834>
LayerCount: 2
Back
Fore
SplineSet
200 800 m 1
 300 800 l 5
 301 400 l 1
 600 400 l 25
 600 301 l 25
 301 301 l 25
 301 -201 l 25
 201 -201 l 1
 200 800 l 1
EndSplineSet
EndChar

StartChar: uni251D
Encoding: 436 9501 435
Width: 599
VWidth: 0
Flags: W
HStem: 201 201<312 625>
VStem: 201 100<-209 209 418 834>
LayerCount: 2
Back
Fore
SplineSet
200 800 m 1
 300 800 l 5
 301 400 l 1
 600 400 l 25
 600 201 l 25
 301 201 l 25
 301 -201 l 25
 201 -201 l 1
 200 800 l 1
EndSplineSet
EndChar

StartChar: uni251E
Encoding: 437 9502 436
Width: 599
VWidth: 0
Flags: W
HStem: 301 100<418 625>
VStem: 201 201<418 834> 201 100<-209 312>
LayerCount: 2
Back
Fore
SplineSet
200 800 m 1xc0
 400 800 l 5
 400 400 l 1xc0
 600 400 l 25
 600 301 l 25
 301 301 l 25
 301 -201 l 25
 201 -201 l 1xa0
 200 800 l 1xc0
EndSplineSet
EndChar

StartChar: uni251F
Encoding: 438 9503 437
Width: 599
VWidth: 0
Flags: W
HStem: 301 100<418 625>
VStem: 201 201<-209 312> 201 100<418 834>
LayerCount: 2
Back
Fore
SplineSet
200 800 m 1xa0
 300 800 l 5
 301 400 l 1xa0
 600 400 l 25
 600 301 l 25
 400 301 l 25
 400 -201 l 25
 201 -201 l 1xc0
 200 800 l 1xa0
EndSplineSet
EndChar

StartChar: uni2520
Encoding: 439 9504 438
Width: 599
VWidth: 0
Flags: W
HStem: 301 100<418 625>
VStem: 201 201<-209 312 418 834>
LayerCount: 2
Back
Fore
SplineSet
200 800 m 1
 400 800 l 5
 400 400 l 1
 600 400 l 25
 600 301 l 25
 400 301 l 25
 400 -201 l 25
 201 -201 l 1
 200 800 l 1
EndSplineSet
EndChar

StartChar: uni2521
Encoding: 440 9505 439
Width: 599
VWidth: 0
Flags: W
HStem: 201 201<418 625>
VStem: 201 201<418 834> 201 100<-209 209>
LayerCount: 2
Back
Fore
SplineSet
200 800 m 1xc0
 400 800 l 5
 400 400 l 1xc0
 600 400 l 25
 600 201 l 25
 301 201 l 25
 301 -201 l 25
 201 -201 l 1xa0
 200 800 l 1xc0
EndSplineSet
EndChar

StartChar: uni2522
Encoding: 441 9506 440
Width: 599
VWidth: 0
Flags: W
HStem: 201 201<418 625>
VStem: 201 201<-209 209> 201 100<418 834>
LayerCount: 2
Back
Fore
SplineSet
200 800 m 1xa0
 300 800 l 5
 301 400 l 1xa0
 600 400 l 25
 600 201 l 25
 400 201 l 25
 400 -201 l 25
 201 -201 l 1xc0
 200 800 l 1xa0
EndSplineSet
EndChar

StartChar: uni2523
Encoding: 442 9507 441
Width: 599
VWidth: 0
Flags: W
HStem: 201 201<418 625>
VStem: 201 201<-209 209 418 834>
LayerCount: 2
Back
Fore
SplineSet
200 800 m 29
 399 800 l 29
 400 400 l 1
 600 400 l 25
 600 201 l 25
 400 201 l 25
 400 -201 l 25
 201 -201 l 1
 200 800 l 29
EndSplineSet
EndChar

StartChar: SF090000
Encoding: 443 9508 442
Width: 599
VWidth: 0
Flags: W
HStem: 301 100<0 209>
VStem: 201 100<-209 312 418 834>
LayerCount: 2
Back
Fore
SplineSet
200 800 m 1
 300 800 l 5
 301 -201 l 1
 201 -201 l 25
 201 301 l 25
 0 301 l 25
 0 400 l 25
 201 400 l 1
 200 800 l 1
EndSplineSet
EndChar

StartChar: uni2525
Encoding: 444 9509 443
Width: 599
VWidth: 0
Flags: W
HStem: 201 201<0 209>
VStem: 0 301<209 418> 201 100<-209 209 418 834>
LayerCount: 2
Back
Fore
SplineSet
200 800 m 1xa0
 300 800 l 5
 301 -201 l 1
 201 -201 l 25
 201 201 l 25xa0
 0 201 l 25
 0 400 l 25xc0
 201 400 l 1
 200 800 l 1xa0
EndSplineSet
EndChar

StartChar: uni2526
Encoding: 445 9510 444
Width: 599
VWidth: 0
Flags: W
HStem: 301 100<0 209>
VStem: 201 201<418 834> 201 100<-209 312>
LayerCount: 2
Back
Fore
SplineSet
200 800 m 1xc0
 400 800 l 5
 400 400 l 1xc0
 301 400 l 25
 301 -201 l 25
 201 -201 l 25
 201 301 l 25xa0
 0 301 l 25
 0 400 l 25
 201 400 l 1
 200 800 l 1xc0
EndSplineSet
EndChar

StartChar: uni2527
Encoding: 446 9511 445
Width: 599
VWidth: 0
Flags: W
HStem: 301 100<0 209>
VStem: 201 201<-209 312> 201 100<418 834>
LayerCount: 2
Back
Fore
SplineSet
200 800 m 1xa0
 300 800 l 5
 301 301 l 1xa0
 400 301 l 25
 400 -201 l 25
 201 -201 l 25
 201 301 l 25xc0
 0 301 l 25
 0 400 l 25
 201 400 l 1
 200 800 l 1xa0
EndSplineSet
EndChar

StartChar: uni2528
Encoding: 447 9512 446
Width: 599
VWidth: 0
Flags: W
HStem: 301 100<0 209>
VStem: 201 201<-209 312 418 834>
LayerCount: 2
Back
Fore
SplineSet
200 800 m 1
 400 800 l 5
 400 -201 l 1
 201 -201 l 25
 201 301 l 25
 0 301 l 25
 0 400 l 25
 201 400 l 1
 200 800 l 1
EndSplineSet
EndChar

StartChar: uni2529
Encoding: 448 9513 447
Width: 599
VWidth: 0
Flags: W
HStem: 201 201<0 209>
VStem: 201 201<418 834> 201 100<-209 209>
LayerCount: 2
Back
Fore
SplineSet
200 800 m 1xc0
 400 800 l 5
 400 201 l 1xc0
 301 201 l 25
 301 -201 l 25
 201 -201 l 25
 201 201 l 25xa0
 0 201 l 25
 0 400 l 25
 201 400 l 1
 200 800 l 1xc0
EndSplineSet
EndChar

StartChar: uni252A
Encoding: 449 9514 448
Width: 599
VWidth: 0
Flags: W
HStem: 201 201<0 209>
VStem: 201 201<-209 209> 201 100<418 834>
LayerCount: 2
Back
Fore
SplineSet
200 800 m 29xa0
 300 800 l 29
 301 400 l 1xa0
 400 400 l 25
 400 -201 l 25
 201 -201 l 25
 201 201 l 25xc0
 0 201 l 25
 0 400 l 25
 201 400 l 1
 200 800 l 29xa0
EndSplineSet
EndChar

StartChar: uni252B
Encoding: 450 9515 449
Width: 599
VWidth: 0
Flags: W
HStem: 201 201<0 209>
VStem: 201 201<-209 209 418 834>
LayerCount: 2
Back
Fore
SplineSet
201 800 m 29
 400 800 l 29
 400 -201 l 1
 201 -201 l 25
 201 201 l 25
 0 201 l 25
 0 400 l 25
 201 400 l 1
 201 800 l 29
EndSplineSet
EndChar

StartChar: SF060000
Encoding: 451 9516 450
Width: 599
VWidth: 0
Flags: W
HStem: 301 100<0 209 312 625>
VStem: 201 100<-209 312>
LayerCount: 2
Back
Fore
SplineSet
0 400 m 25
 600 400 l 25
 600 301 l 25
 301 301 l 25
 301 -201 l 25
 201 -201 l 25
 201 301 l 25
 0 301 l 25
 0 400 l 25
EndSplineSet
EndChar

StartChar: uni252D
Encoding: 452 9517 451
Width: 599
VWidth: 0
Flags: W
HStem: 201 201<0 209> 301 100<312 625>
VStem: 201 100<-209 209>
LayerCount: 2
Back
Fore
SplineSet
0 400 m 25xa0
 600 400 l 25
 600 301 l 25
 301 301 l 25x60
 301 -201 l 25
 201 -201 l 25
 201 201 l 25
 0 201 l 25
 0 400 l 25xa0
EndSplineSet
EndChar

StartChar: uni252E
Encoding: 453 9518 452
Width: 599
VWidth: 0
Flags: W
HStem: 201 201<312 625> 301 100<0 209>
VStem: 201 100<-209 209>
LayerCount: 2
Back
Fore
SplineSet
0 400 m 25x60
 600 400 l 25
 600 201 l 25
 301 201 l 25xa0
 301 -201 l 25
 201 -201 l 25
 201 301 l 25
 0 301 l 25
 0 400 l 25x60
EndSplineSet
EndChar

StartChar: uni252F
Encoding: 454 9519 453
Width: 599
VWidth: 0
Flags: W
HStem: 201 201<0 209 312 625>
VStem: 201 100<-209 209>
LayerCount: 2
Back
Fore
SplineSet
0 400 m 25
 600 400 l 25
 600 201 l 25
 301 201 l 25
 301 -201 l 25
 201 -201 l 25
 201 201 l 25
 0 201 l 25
 0 400 l 25
EndSplineSet
EndChar

StartChar: uni2530
Encoding: 455 9520 454
Width: 599
VWidth: 0
Flags: W
HStem: 301 100<0 209 418 625>
VStem: 201 201<-209 312>
LayerCount: 2
Back
Fore
SplineSet
0 400 m 25
 600 400 l 25
 600 301 l 25
 400 301 l 25
 400 -201 l 25
 201 -201 l 25
 201 301 l 25
 0 301 l 25
 0 400 l 25
EndSplineSet
EndChar

StartChar: uni2531
Encoding: 456 9521 455
Width: 599
VWidth: 0
Flags: W
HStem: 201 201<0 209> 301 100<418 625>
VStem: 201 201<-209 209>
LayerCount: 2
Back
Fore
SplineSet
0 400 m 25xa0
 600 400 l 25
 600 301 l 25
 400 301 l 25x60
 400 -201 l 25
 201 -201 l 25
 201 201 l 25
 0 201 l 25
 0 400 l 25xa0
EndSplineSet
EndChar

StartChar: uni2532
Encoding: 457 9522 456
Width: 599
VWidth: 0
Flags: W
HStem: 201 201<418 625> 301 100<0 209>
VStem: 201 201<-209 209>
LayerCount: 2
Back
Fore
SplineSet
0 400 m 1x60
 600 400 l 1
 600 201 l 1
 400 201 l 1xa0
 400 -201 l 1
 201 -201 l 1
 201 301 l 1
 0 301 l 1
 0 400 l 1x60
EndSplineSet
EndChar

StartChar: uni2533
Encoding: 458 9523 457
Width: 599
VWidth: 0
Flags: W
HStem: 201 201<0 209 418 625>
VStem: 201 201<-209 209>
LayerCount: 2
Back
Fore
SplineSet
0 400 m 25
 600 400 l 25
 600 201 l 25
 400 201 l 25
 400 -201 l 25
 201 -201 l 25
 201 201 l 25
 0 201 l 25
 0 400 l 25
EndSplineSet
EndChar

StartChar: SF070000
Encoding: 459 9524 458
Width: 599
VWidth: 0
Flags: W
HStem: 301 100<0 209 312 625>
VStem: 201 100<418 834>
LayerCount: 2
Back
Fore
SplineSet
0 400 m 25
 201 400 l 1
 200 800 l 29
 300 800 l 29
 301 400 l 1
 600 400 l 25
 600 301 l 25
 0 301 l 25
 0 400 l 25
EndSplineSet
EndChar

StartChar: uni2535
Encoding: 460 9525 459
Width: 599
VWidth: 0
Flags: W
HStem: 201 201<0 209> 301 100<312 625>
VStem: 201 100<418 834>
LayerCount: 2
Back
Fore
SplineSet
200 800 m 29xa0
 300 800 l 29
 301 400 l 1
 600 400 l 25
 600 301 l 25
 201 301 l 25x60
 201 201 l 25
 0 201 l 25
 0 400 l 25
 201 400 l 1
 200 800 l 29xa0
EndSplineSet
EndChar

StartChar: uni2536
Encoding: 461 9526 460
Width: 599
VWidth: 0
Flags: W
HStem: 201 201<312 625> 301 100<0 209>
VStem: 201 100<418 834>
LayerCount: 2
Back
Fore
SplineSet
200 800 m 1x60
 300 800 l 5
 301 400 l 1
 600 400 l 25
 600 201 l 25
 301 201 l 25xa0
 301 301 l 25
 0 301 l 25
 0 400 l 25
 201 400 l 1
 200 800 l 1x60
EndSplineSet
EndChar

StartChar: uni2537
Encoding: 462 9527 461
Width: 599
VWidth: 0
Flags: W
HStem: 201 201<0 209 312 625>
VStem: 201 100<418 834>
LayerCount: 2
Back
Fore
SplineSet
200 800 m 29
 300 800 l 29
 301 400 l 1
 600 400 l 25
 600 201 l 25
 0 201 l 25
 0 400 l 25
 201 400 l 1
 200 800 l 29
EndSplineSet
EndChar

StartChar: uni2538
Encoding: 463 9528 462
Width: 599
VWidth: 0
Flags: W
HStem: 301 100<0 209 418 625>
VStem: 201 201<418 834>
LayerCount: 2
Back
Fore
SplineSet
201 800 m 29
 400 800 l 29
 400 400 l 1
 600 400 l 25
 600 301 l 25
 0 301 l 25
 0 400 l 25
 201 400 l 1
 201 800 l 29
EndSplineSet
EndChar

StartChar: uni2539
Encoding: 464 9529 463
Width: 599
VWidth: 0
Flags: W
HStem: 201 201<0 209> 301 100<418 625>
VStem: 201 201<418 834>
LayerCount: 2
Back
Fore
SplineSet
201 800 m 29xa0
 400 800 l 29
 400 400 l 1
 600 400 l 25
 600 301 l 25
 301 301 l 25x60
 301 201 l 25
 0 201 l 25
 0 400 l 25
 201 400 l 1
 201 800 l 29xa0
EndSplineSet
EndChar

StartChar: uni253A
Encoding: 465 9530 464
Width: 599
VWidth: 0
Flags: W
HStem: 201 201<418 625> 301 100<0 209>
VStem: 201 201<418 834>
LayerCount: 2
Back
Fore
SplineSet
200 800 m 1x60
 400 800 l 5
 400 400 l 1
 600 400 l 25
 600 201 l 25
 301 201 l 25xa0
 301 301 l 25
 0 301 l 25
 0 400 l 25
 201 400 l 1
 200 800 l 1x60
EndSplineSet
EndChar

StartChar: uni253B
Encoding: 466 9531 465
Width: 599
VWidth: 0
Flags: W
HStem: 201 201<0 209 418 625>
VStem: 201 201<418 834>
LayerCount: 2
Back
Fore
SplineSet
200 800 m 1
 400 800 l 5
 400 400 l 1
 600 400 l 25
 600 201 l 25
 0 201 l 25
 0 400 l 25
 201 400 l 1
 200 800 l 1
EndSplineSet
EndChar

StartChar: SF050000
Encoding: 467 9532 466
Width: 599
VWidth: 0
Flags: W
HStem: 301 100<0 209 312 625>
VStem: 201 100<-209 312 418 834>
LayerCount: 2
Back
Fore
SplineSet
200 800 m 1
 300 800 l 5
 301 400 l 1
 600 400 l 25
 600 301 l 25
 301 301 l 25
 301 -201 l 25
 201 -201 l 25
 201 301 l 25
 0 301 l 25
 0 400 l 25
 201 400 l 1
 200 800 l 1
EndSplineSet
EndChar

StartChar: uni253D
Encoding: 468 9533 467
Width: 599
VWidth: 0
Flags: W
HStem: 201 201<0 209> 301 100<312 625>
VStem: 201 100<-209 209 418 834>
LayerCount: 2
Back
Fore
SplineSet
200 800 m 1xa0
 300 800 l 5
 301 400 l 1
 600 400 l 25
 600 301 l 25
 301 301 l 25x60
 301 -201 l 25
 201 -201 l 25
 201 201 l 25
 0 201 l 25
 0 400 l 25
 201 400 l 1
 200 800 l 1xa0
EndSplineSet
EndChar

StartChar: uni253E
Encoding: 469 9534 468
Width: 599
VWidth: 0
Flags: W
HStem: 201 201<312 625> 301 100<0 209>
VStem: 201 100<-209 209 418 834>
LayerCount: 2
Back
Fore
SplineSet
200 800 m 1x60
 300 800 l 5
 301 400 l 1
 600 400 l 25
 600 201 l 25
 301 201 l 25xa0
 301 -201 l 25
 201 -201 l 25
 201 301 l 25
 0 301 l 25
 0 400 l 25
 201 400 l 1
 200 800 l 1x60
EndSplineSet
EndChar

StartChar: uni253F
Encoding: 470 9535 469
Width: 599
VWidth: 0
Flags: W
HStem: 201 201<0 209 312 625>
VStem: 201 100<-209 209 418 834>
LayerCount: 2
Back
Fore
SplineSet
200 800 m 1
 300 800 l 5
 301 400 l 1
 600 400 l 25
 600 201 l 25
 301 201 l 25
 301 -201 l 25
 201 -201 l 25
 201 201 l 25
 0 201 l 25
 0 400 l 25
 201 400 l 1
 200 800 l 1
EndSplineSet
EndChar

StartChar: uni2540
Encoding: 471 9536 470
Width: 599
VWidth: 0
Flags: W
HStem: 301 100<0 209 418 625>
VStem: 201 201<418 834> 201 100<-209 312>
LayerCount: 2
Back
Fore
SplineSet
200 800 m 1xc0
 400 800 l 5
 400 400 l 1xc0
 600 400 l 25
 600 301 l 25
 301 301 l 25
 301 -201 l 25
 201 -201 l 25
 201 301 l 25xa0
 0 301 l 25
 0 400 l 25
 201 400 l 1
 200 800 l 1xc0
EndSplineSet
EndChar

StartChar: uni2541
Encoding: 472 9537 471
Width: 599
VWidth: 0
Flags: W
HStem: 301 100<0 209 418 625>
VStem: 201 201<-209 312> 201 100<418 834>
LayerCount: 2
Back
Fore
SplineSet
200 800 m 1xa0
 300 800 l 5
 301 400 l 1xa0
 600 400 l 25
 600 301 l 25
 400 301 l 25
 400 -201 l 25
 201 -201 l 25
 201 301 l 25xc0
 0 301 l 25
 0 400 l 25
 201 400 l 1
 200 800 l 1xa0
EndSplineSet
EndChar

StartChar: uni2542
Encoding: 473 9538 472
Width: 599
VWidth: 0
Flags: W
HStem: 301 100<0 209 418 625>
VStem: 201 201<-209 312 418 834>
LayerCount: 2
Back
Fore
SplineSet
200 800 m 1
 400 800 l 5
 400 400 l 1
 600 400 l 25
 600 301 l 25
 400 301 l 25
 400 -201 l 25
 201 -201 l 25
 201 301 l 25
 0 301 l 25
 0 400 l 25
 201 400 l 1
 200 800 l 1
EndSplineSet
EndChar

StartChar: uni2543
Encoding: 474 9539 473
Width: 599
VWidth: 0
Flags: W
HStem: 201 201<0 209> 301 100<418 625>
VStem: 201 201<418 834> 201 100<-209 209>
LayerCount: 2
Back
Fore
SplineSet
200 800 m 1xa0
 400 800 l 5
 400 400 l 1x60
 600 400 l 25
 600 301 l 25
 301 301 l 25x50
 301 -201 l 25
 201 -201 l 25
 201 201 l 25x90
 0 201 l 25
 0 400 l 25
 201 400 l 1
 200 800 l 1xa0
EndSplineSet
EndChar

StartChar: uni2544
Encoding: 475 9540 474
Width: 599
VWidth: 0
Flags: W
HStem: 201 201<418 625> 301 100<0 209>
VStem: 201 201<418 834> 201 100<-209 209>
LayerCount: 2
Back
Fore
SplineSet
200 800 m 1x60
 400 800 l 5
 400 400 l 1xa0
 600 400 l 25
 600 201 l 25
 301 201 l 25x90
 301 -201 l 25
 201 -201 l 25
 201 301 l 25x50
 0 301 l 25
 0 400 l 25
 201 400 l 1
 200 800 l 1x60
EndSplineSet
EndChar

StartChar: uni2545
Encoding: 476 9541 475
Width: 599
VWidth: 0
Flags: W
HStem: 201 201<0 209> 301 100<418 625>
VStem: 201 201<-209 209> 201 100<418 834>
LayerCount: 2
Back
Fore
SplineSet
200 800 m 1x90
 300 800 l 5
 301 400 l 1x50
 600 400 l 25
 600 301 l 25
 400 301 l 25x60
 400 -201 l 25
 201 -201 l 25
 201 201 l 25xa0
 0 201 l 25
 0 400 l 25
 201 400 l 1
 200 800 l 1x90
EndSplineSet
EndChar

StartChar: uni2546
Encoding: 477 9542 476
Width: 599
VWidth: 0
Flags: W
HStem: 201 201<418 625> 301 100<0 209>
VStem: 201 201<-209 209> 201 100<418 834>
LayerCount: 2
Back
Fore
SplineSet
200 800 m 1x50
 300 800 l 5
 301 400 l 1x50
 600 400 l 25
 600 201 l 25
 400 201 l 25
 400 -201 l 25
 201 -201 l 25xa0
 201 301 l 25
 0 301 l 25
 0 400 l 25
 201 400 l 1
 200 800 l 1x50
EndSplineSet
EndChar

StartChar: uni2547
Encoding: 478 9543 477
Width: 599
VWidth: 0
Flags: W
HStem: 201 201<0 209 418 625>
VStem: 201 201<418 834> 201 100<-209 209>
LayerCount: 2
Back
Fore
SplineSet
200 800 m 1xc0
 400 800 l 5
 400 400 l 1xc0
 600 400 l 25
 600 201 l 25
 301 201 l 25
 301 -201 l 25
 201 -201 l 25
 201 201 l 25xa0
 0 201 l 25
 0 400 l 25
 201 400 l 1
 200 800 l 1xc0
EndSplineSet
EndChar

StartChar: uni2548
Encoding: 479 9544 478
Width: 599
VWidth: 0
Flags: W
HStem: 201 201<0 209 418 625>
VStem: 201 201<-209 209> 201 100<418 834>
LayerCount: 2
Back
Fore
SplineSet
200 800 m 1xa0
 300 800 l 5
 301 400 l 1xa0
 600 400 l 25
 600 201 l 25
 400 201 l 25
 400 -201 l 25
 201 -201 l 25
 201 201 l 25xc0
 0 201 l 25
 0 400 l 25
 201 400 l 1
 200 800 l 1xa0
EndSplineSet
EndChar

StartChar: uni2549
Encoding: 480 9545 479
Width: 599
VWidth: 0
Flags: W
HStem: 201 201<0 209> 301 100<418 625>
VStem: 201 201<-209 209 418 834>
LayerCount: 2
Back
Fore
SplineSet
200 800 m 1xa0
 400 800 l 5
 400 400 l 1
 600 400 l 25
 600 301 l 25
 400 301 l 25x60
 400 -201 l 25
 201 -201 l 25
 201 201 l 25
 0 201 l 25
 0 400 l 25
 201 400 l 1
 200 800 l 1xa0
EndSplineSet
EndChar

StartChar: uni254A
Encoding: 481 9546 480
Width: 599
VWidth: 0
Flags: W
HStem: 201 201<418 625> 301 100<0 209>
VStem: 201 201<-209 209 418 834>
LayerCount: 2
Back
Fore
SplineSet
200 800 m 1x60
 400 800 l 5
 400 400 l 1
 600 400 l 25
 600 201 l 25
 400 201 l 25xa0
 400 -201 l 25
 201 -201 l 25
 201 301 l 25
 0 301 l 25
 0 400 l 25
 201 400 l 1
 200 800 l 1x60
EndSplineSet
EndChar

StartChar: uni254B
Encoding: 482 9547 481
Width: 599
VWidth: 0
Flags: W
HStem: 201 201<0 209 418 625>
VStem: 201 201<-209 209 418 834>
LayerCount: 2
Back
Fore
SplineSet
200 800 m 1
 400 800 l 5
 400 400 l 1
 600 400 l 25
 600 201 l 25
 400 201 l 25
 400 -201 l 25
 201 -201 l 25
 201 201 l 25
 0 201 l 25
 0 400 l 25
 201 400 l 1
 200 800 l 1
EndSplineSet
EndChar

StartChar: uni254C
Encoding: 483 9548 482
Width: 599
VWidth: 0
Flags: W
HStem: 301 100<0 209 418 625>
LayerCount: 2
Back
Fore
SplineSet
400 400 m 25
 600 400 l 25
 600 301 l 25
 400 301 l 25
 400 400 l 25
0 400 m 25
 201 400 l 25
 201 301 l 25
 0 301 l 25
 0 400 l 25
EndSplineSet
EndChar

StartChar: uni254D
Encoding: 484 9549 483
Width: 599
VWidth: 0
Flags: W
HStem: 201 201<0 209 418 625>
VStem: 0 201<209 418> 400 201<209 418>
LayerCount: 2
Back
Fore
SplineSet
400 400 m 25
 600 400 l 25
 600 201 l 25
 400 201 l 25
 400 400 l 25
0 400 m 25
 201 400 l 25
 201 201 l 25
 0 201 l 25
 0 400 l 25
EndSplineSet
EndChar

StartChar: uni254E
Encoding: 485 9550 484
Width: 599
VWidth: 0
Flags: W
VStem: 201 100<-209 209 418 834>
LayerCount: 2
Back
Fore
SplineSet
201 201 m 25
 301 201 l 25
 301 -201 l 25
 201 -201 l 25
 201 201 l 25
200 800 m 1
 300 800 l 5
 301 400 l 1
 201 400 l 1
 200 800 l 1
EndSplineSet
EndChar

StartChar: uni254F
Encoding: 486 9551 485
Width: 599
VWidth: 0
Flags: W
VStem: 201 201<-209 209 418 834>
LayerCount: 2
Back
Fore
SplineSet
201 201 m 25
 400 201 l 25
 400 -201 l 25
 201 -201 l 25
 201 201 l 25
200 800 m 1
 400 800 l 5
 400 400 l 1
 201 400 l 1
 200 800 l 1
EndSplineSet
EndChar

StartChar: SF430000
Encoding: 487 9552 486
Width: 599
VWidth: 0
Flags: W
HStem: 201 100<0 625> 400 100<0 625>
LayerCount: 2
Back
Fore
SplineSet
0 301 m 25
 600 301 l 25
 600 201 l 25
 0 201 l 25
 0 301 l 25
0 500 m 25
 600 500 l 25
 600 400 l 25
 0 400 l 25
 0 500 l 25
EndSplineSet
EndChar

StartChar: SF240000
Encoding: 488 9553 487
Width: 599
VWidth: 0
Flags: W
VStem: 100 100<-209 834> 301 100<-209 834>
LayerCount: 2
Back
Fore
SplineSet
301 800 m 29
 400 800 l 29
 400 -201 l 1
 301 -201 l 1
 301 800 l 29
100 800 m 29
 201 800 l 29
 201 -201 l 1
 100 -201 l 1
 100 800 l 29
EndSplineSet
EndChar

StartChar: SF510000
Encoding: 489 9554 488
Width: 599
VWidth: 0
Flags: W
HStem: 201 100<312 625> 400 100<312 625>
VStem: 201 100<-209 209 312 418>
LayerCount: 2
Back
Fore
SplineSet
201 500 m 25
 600 500 l 25
 600 400 l 25
 301 400 l 25
 301 301 l 25
 600 301 l 25
 600 201 l 25
 301 201 l 25
 301 -201 l 25
 201 -201 l 25
 201 500 l 25
EndSplineSet
EndChar

StartChar: SF520000
Encoding: 490 9555 489
Width: 599
VWidth: 0
Flags: W
HStem: 301 100<209 312 418 625>
VStem: 100 100<-209 312> 301 100<-209 312>
LayerCount: 2
Back
Fore
SplineSet
100 400 m 25
 600 400 l 25
 600 301 l 25
 400 301 l 25
 400 -201 l 25
 301 -201 l 25
 301 301 l 25
 201 301 l 25
 201 -201 l 25
 100 -201 l 25
 100 400 l 25
EndSplineSet
EndChar

StartChar: SF390000
Encoding: 491 9556 490
Width: 599
VWidth: 0
Flags: W
HStem: 201 100<418 625> 400 100<209 625>
VStem: 100 100<-209 418> 301 100<-209 209>
LayerCount: 2
Back
Fore
SplineSet
301 301 m 25
 600 301 l 25
 600 201 l 25
 400 201 l 25
 400 -201 l 25
 301 -201 l 25
 301 301 l 25
100 500 m 25
 600 500 l 25
 600 400 l 25
 201 400 l 25
 201 -201 l 25
 100 -201 l 25
 100 500 l 25
EndSplineSet
EndChar

StartChar: SF220000
Encoding: 492 9557 491
Width: 599
VWidth: 0
Flags: W
HStem: 201 100<0 209> 400 100<0 209>
VStem: 0 301<209 312 418 521> 201 100<-209 209 312 418>
LayerCount: 2
Back
Fore
SplineSet
0 500 m 25xe0
 301 500 l 25xe0
 301 -201 l 25
 201 -201 l 25
 201 201 l 25xd0
 0 201 l 25
 0 301 l 25xe0
 201 301 l 25
 201 400 l 25xd0
 0 400 l 25
 0 500 l 25xe0
EndSplineSet
EndChar

StartChar: SF210000
Encoding: 493 9558 492
Width: 599
VWidth: 0
Flags: W
HStem: 301 100<0 104 209 312>
VStem: 100 100<-209 312> 301 100<-209 312>
LayerCount: 2
Back
Fore
SplineSet
0 400 m 25
 400 400 l 25
 400 -201 l 25
 301 -201 l 25
 301 301 l 25
 201 301 l 25
 201 -201 l 25
 100 -201 l 25
 100 301 l 25
 0 301 l 25
 0 400 l 25
EndSplineSet
EndChar

StartChar: SF250000
Encoding: 494 9559 493
Width: 599
VWidth: 0
Flags: W
HStem: 201 100<0 104> 400 100<0 312>
VStem: 100 100<-209 209> 301 100<-209 418>
LayerCount: 2
Back
Fore
SplineSet
0 301 m 25
 201 301 l 25
 201 -201 l 25
 100 -201 l 25
 100 201 l 25
 0 201 l 25
 0 301 l 25
0 500 m 25
 400 500 l 25
 400 -201 l 25
 301 -201 l 25
 301 400 l 25
 0 400 l 25
 0 500 l 25
EndSplineSet
EndChar

StartChar: SF500000
Encoding: 495 9560 494
Width: 599
VWidth: 0
Flags: W
HStem: 201 100<312 625> 400 100<312 625>
VStem: 201 100<312 418 521 834>
LayerCount: 2
Back
Fore
SplineSet
200 800 m 1
 300 800 l 5
 301 500 l 1
 600 500 l 25
 600 400 l 25
 301 400 l 25
 301 301 l 25
 600 301 l 25
 600 201 l 25
 201 201 l 1
 200 800 l 1
EndSplineSet
EndChar

StartChar: SF490000
Encoding: 496 9561 495
Width: 599
VWidth: 0
Flags: W
HStem: 301 100<209 312 418 625>
VStem: 100 100<418 834> 301 100<418 834>
LayerCount: 2
Back
Fore
SplineSet
100 800 m 1
 200 800 l 1
 201 400 l 1
 301 400 l 1
 300 800 l 1
 400 800 l 5
 400 400 l 1
 600 400 l 25
 600 301 l 25
 100 301 l 1
 100 800 l 1
EndSplineSet
EndChar

StartChar: SF380000
Encoding: 497 9562 496
Width: 599
VWidth: 0
Flags: W
HStem: 201 100<209 625> 400 100<418 625>
VStem: 100 100<312 834> 301 100<521 834>
LayerCount: 2
Back
Fore
SplineSet
301 800 m 29
 400 800 l 29
 400 500 l 1
 600 500 l 25
 600 400 l 25
 301 400 l 1
 301 800 l 29
100 800 m 29
 201 800 l 29
 201 301 l 1
 600 301 l 25
 600 201 l 25
 100 201 l 1
 100 800 l 29
EndSplineSet
EndChar

StartChar: SF280000
Encoding: 498 9563 497
Width: 599
VWidth: 0
Flags: W
HStem: 201 100<0 209> 400 100<0 209>
VStem: 0 301<209 312 418 521> 201 100<312 418 521 834>
LayerCount: 2
Back
Fore
SplineSet
200 800 m 29xd0
 300 800 l 29xd0
 301 201 l 1
 0 201 l 25
 0 301 l 25xe0
 201 301 l 25
 201 400 l 25xd0
 0 400 l 25
 0 500 l 25xe0
 201 500 l 1
 200 800 l 29xd0
EndSplineSet
EndChar

StartChar: SF270000
Encoding: 499 9564 498
Width: 599
VWidth: 0
Flags: W
HStem: 301 100<600 703 809 912>
VStem: 699 100<418 834> 900 100<418 834>
LayerCount: 2
Back
Fore
SplineSet
100 800 m 29
 201 800 l 29
 201 400 l 1
 301 400 l 1
 301 800 l 29
 400 800 l 29
 400 301 l 1
 0 301 l 25
 0 400 l 25
 100 400 l 1
 100 800 l 29
EndSplineSet
EndChar

StartChar: SF260000
Encoding: 500 9565 499
Width: 599
VWidth: 0
Flags: W
HStem: 201 100<0 312> 400 100<0 104>
VStem: 100 100<521 834> 301 100<312 834>
LayerCount: 2
Back
Fore
SplineSet
300 800 m 1
 400 800 l 5
 400 201 l 1
 0 201 l 25
 0 301 l 25
 301 301 l 1
 300 800 l 1
100 800 m 1
 200 800 l 1
 201 400 l 1
 0 400 l 25
 0 500 l 25
 100 500 l 1
 100 800 l 1
EndSplineSet
EndChar

StartChar: SF360000
Encoding: 501 9566 500
Width: 599
VWidth: 0
Flags: W
HStem: 201 100<312 625> 400 100<312 625>
VStem: 201 100<-209 209 312 418 521 834>
LayerCount: 2
Back
Fore
SplineSet
200 800 m 1
 300 800 l 5
 301 500 l 1
 600 500 l 25
 600 400 l 25
 301 400 l 25
 301 301 l 25
 600 301 l 25
 600 201 l 25
 301 201 l 25
 301 -201 l 25
 201 -201 l 1
 200 800 l 1
EndSplineSet
EndChar

StartChar: SF370000
Encoding: 502 9567 501
Width: 599
VWidth: 0
Flags: W
HStem: 301 100<418 625>
VStem: 100 100<-209 834> 301 100<-209 312 418 834>
LayerCount: 2
Back
Fore
SplineSet
300 800 m 1
 400 800 l 5
 400 400 l 1
 600 400 l 25
 600 301 l 25
 400 301 l 25
 400 -201 l 25
 301 -201 l 1
 300 800 l 1
100 800 m 1
 200 800 l 1
 201 -201 l 1
 100 -201 l 1
 100 800 l 1
EndSplineSet
EndChar

StartChar: SF420000
Encoding: 503 9568 502
Width: 599
VWidth: 0
Flags: W
HStem: 201 100<418 625> 400 100<418 625>
VStem: 100 100<-209 834> 301 301<209 312 418 521> 301 100<-209 209 521 834>
LayerCount: 2
Back
Fore
SplineSet
301 301 m 25xf0
 600 301 l 25
 600 201 l 25xf0
 400 201 l 25
 400 -201 l 25
 301 -201 l 25xe8
 301 301 l 25xf0
301 800 m 29xe8
 400 800 l 29
 400 500 l 1xe8
 600 500 l 25
 600 400 l 25
 301 400 l 1xf0
 301 800 l 29xe8
100 800 m 29
 201 800 l 29
 201 -201 l 1
 100 -201 l 1
 100 800 l 29
EndSplineSet
EndChar

StartChar: SF190000
Encoding: 504 9569 503
Width: 599
VWidth: 0
Flags: W
HStem: 201 100<0 209> 400 100<0 209>
VStem: 0 301<209 312 418 521> 201 100<-209 209 312 418 521 834>
LayerCount: 2
Back
Fore
SplineSet
0 500 m 25xe0
 201 500 l 1
 200 800 l 29
 300 800 l 29
 301 -201 l 1
 201 -201 l 25
 201 201 l 25xd0
 0 201 l 25
 0 301 l 25xe0
 201 301 l 25
 201 400 l 25xd0
 0 400 l 25
 0 500 l 25xe0
EndSplineSet
EndChar

StartChar: SF200000
Encoding: 505 9570 504
Width: 599
VWidth: 0
Flags: W
HStem: 301 100<0 104>
VStem: 100 100<-209 312 418 834> 301 100<-209 834>
LayerCount: 2
Back
Fore
SplineSet
301 800 m 29
 400 800 l 29
 400 -201 l 1
 301 -201 l 1
 301 800 l 29
100 800 m 29
 201 800 l 29
 201 -201 l 1
 100 -201 l 25
 100 301 l 25
 0 301 l 25
 0 400 l 25
 100 400 l 1
 100 800 l 29
EndSplineSet
EndChar

StartChar: SF230000
Encoding: 506 9571 505
Width: 599
VWidth: 0
Flags: W
HStem: 201 100<0 104> 400 100<0 104>
VStem: 0 201<209 312 418 521> 100 100<-209 209 521 834> 301 100<-209 834>
LayerCount: 2
Back
Fore
SplineSet
301 800 m 29xc8
 400 800 l 29
 400 -201 l 1
 301 -201 l 1
 301 800 l 29xc8
0 301 m 25xe8
 201 301 l 25xe8
 201 -201 l 25
 100 -201 l 25
 100 201 l 25xd8
 0 201 l 25
 0 301 l 25xe8
100 800 m 29xd8
 201 800 l 29xd8
 201 400 l 1
 0 400 l 25
 0 500 l 25xe8
 100 500 l 1
 100 800 l 29xd8
EndSplineSet
EndChar

StartChar: SF470000
Encoding: 507 9572 506
Width: 599
VWidth: 0
Flags: W
HStem: 201 100<0 209 312 625> 400 100<0 625>
VStem: 201 100<-209 209>
LayerCount: 2
Back
Fore
SplineSet
0 301 m 25
 600 301 l 25
 600 201 l 25
 301 201 l 25
 301 -201 l 25
 201 -201 l 25
 201 201 l 25
 0 201 l 25
 0 301 l 25
0 500 m 25
 600 500 l 25
 600 400 l 25
 0 400 l 25
 0 500 l 25
EndSplineSet
EndChar

StartChar: SF480000
Encoding: 508 9573 507
Width: 599
VWidth: 0
Flags: W
HStem: 301 100<0 104 209 312 418 625>
VStem: 100 100<-209 312> 301 100<-209 312>
LayerCount: 2
Back
Fore
SplineSet
0 400 m 25
 600 400 l 25
 600 301 l 25
 400 301 l 25
 400 -201 l 25
 301 -201 l 25
 301 301 l 25
 201 301 l 25
 201 -201 l 25
 100 -201 l 25
 100 301 l 25
 0 301 l 25
 0 400 l 25
EndSplineSet
EndChar

StartChar: SF410000
Encoding: 509 9574 508
Width: 599
VWidth: 0
Flags: W
HStem: 201 100<0 104 418 625> 400 100<0 625>
VStem: 100 100<-209 209> 301 100<-209 209>
LayerCount: 2
Back
Fore
SplineSet
301 301 m 25
 600 301 l 25
 600 201 l 25
 400 201 l 25
 400 -201 l 25
 301 -201 l 25
 301 301 l 25
0 301 m 25
 201 301 l 25
 201 -201 l 25
 100 -201 l 25
 100 201 l 25
 0 201 l 25
 0 301 l 25
0 500 m 25
 600 500 l 25
 600 400 l 25
 0 400 l 25
 0 500 l 25
EndSplineSet
EndChar

StartChar: SF450000
Encoding: 510 9575 509
Width: 599
VWidth: 0
Flags: W
HStem: 201 100<0 625> 400 100<0 209 312 625>
VStem: 201 100<521 834>
LayerCount: 2
Back
Fore
SplineSet
0 301 m 25
 600 301 l 25
 600 201 l 25
 0 201 l 25
 0 301 l 25
0 500 m 25
 201 500 l 1
 200 800 l 29
 300 800 l 29
 301 500 l 1
 600 500 l 25
 600 400 l 25
 0 400 l 25
 0 500 l 25
EndSplineSet
EndChar

StartChar: SF460000
Encoding: 511 9576 510
Width: 599
VWidth: 0
Flags: W
HStem: 301 100<0 104 209 312 418 625>
VStem: 100 100<418 834> 301 100<418 834>
LayerCount: 2
Back
Fore
SplineSet
0 400 m 25
 100 400 l 1
 100 800 l 29
 201 800 l 29
 201 400 l 1
 301 400 l 1
 301 800 l 29
 400 800 l 29
 400 400 l 1
 600 400 l 25
 600 301 l 25
 0 301 l 25
 0 400 l 25
EndSplineSet
EndChar

StartChar: SF400000
Encoding: 512 9577 511
Width: 599
VWidth: 0
Flags: W
HStem: 201 100<0 625> 400 100<0 104 418 625>
VStem: 100 100<521 834> 301 100<521 834>
LayerCount: 2
Back
Fore
SplineSet
0 301 m 25
 600 301 l 25
 600 201 l 25
 0 201 l 25
 0 301 l 25
301 800 m 29
 400 800 l 29
 400 500 l 1
 600 500 l 25
 600 400 l 25
 301 400 l 1
 301 800 l 29
0 500 m 25
 100 500 l 1
 100 800 l 29
 201 800 l 29
 201 400 l 1
 0 400 l 25
 0 500 l 25
EndSplineSet
EndChar

StartChar: SF540000
Encoding: 513 9578 512
Width: 599
VWidth: 0
Flags: W
HStem: 201 100<0 209 312 625> 400 100<0 209 312 625>
VStem: 201 100<-209 209 312 418 521 834>
LayerCount: 2
Back
Fore
SplineSet
0 500 m 25
 201 500 l 1
 200 800 l 29
 300 800 l 29
 301 500 l 1
 600 500 l 25
 600 400 l 25
 301 400 l 25
 301 301 l 25
 600 301 l 25
 600 201 l 25
 301 201 l 25
 301 -201 l 25
 201 -201 l 25
 201 201 l 25
 0 201 l 25
 0 301 l 25
 201 301 l 25
 201 400 l 25
 0 400 l 25
 0 500 l 25
EndSplineSet
EndChar

StartChar: SF530000
Encoding: 514 9579 513
Width: 599
VWidth: 0
Flags: W
HStem: 301 100<0 104 209 312 418 625>
VStem: 100 100<-209 312 418 834> 301 100<-209 312 418 834>
LayerCount: 2
Back
Fore
SplineSet
0 400 m 25
 100 400 l 1
 100 800 l 29
 201 800 l 29
 201 400 l 1
 301 400 l 1
 301 800 l 29
 400 800 l 29
 400 400 l 1
 600 400 l 25
 600 301 l 25
 400 301 l 25
 400 -201 l 25
 301 -201 l 25
 301 301 l 25
 201 301 l 25
 201 -201 l 25
 100 -201 l 25
 100 301 l 25
 0 301 l 25
 0 400 l 25
EndSplineSet
EndChar

StartChar: SF440000
Encoding: 515 9580 514
Width: 599
VWidth: 0
Flags: W
HStem: 201 100<0 104 418 625> 400 100<0 104 418 625>
VStem: 0 201<209 312 418 521> 100 100<-209 209 521 834> 301 301<209 312 418 521> 301 100<-209 209 521 834>
LayerCount: 2
Back
Fore
SplineSet
301 301 m 25xc8
 600 301 l 25
 600 201 l 25xc8
 400 201 l 25
 400 -201 l 25
 301 -201 l 25xc4
 301 301 l 25xc8
0 301 m 25xe0
 201 301 l 25xe0
 201 -201 l 25
 100 -201 l 25
 100 201 l 25xd0
 0 201 l 25
 0 301 l 25xe0
301 800 m 29xc4
 400 800 l 29
 400 500 l 1xc4
 600 500 l 25
 600 400 l 25
 301 400 l 1xc8
 301 800 l 29xc4
0 500 m 25xe0
 100 500 l 1
 100 800 l 29
 201 800 l 29xd0
 201 400 l 1
 0 400 l 25
 0 500 l 25xe0
EndSplineSet
EndChar

StartChar: uni256D
Encoding: 516 9581 515
Width: 599
VWidth: 0
Flags: W
HStem: 201 100<312 418> 301 100<418 625>
VStem: 201 100<-209 209> 301 100<209 312>
LayerCount: 2
Back
Fore
SplineSet
201 -201 m 25xa0
 201 201 l 25
 301 201 l 25xa0
 301 301 l 25
 400 301 l 25x90
 400 400 l 25
 600 400 l 25
 600 301 l 25x50
 400 301 l 25
 400 201 l 25x90
 301 201 l 25
 301 -201 l 25
 201 -201 l 25xa0
EndSplineSet
EndChar

StartChar: uni256E
Encoding: 517 9582 516
Width: 599
VWidth: 0
Flags: W
HStem: 201 100<104 209> 301 100<0 104>
VStem: 0 100<312 418> 100 100<209 312> 201 100<-209 209>
LayerCount: 2
Back
Fore
SplineSet
0 400 m 25x60
 100 400 l 25x60
 100 301 l 25xa0
 201 301 l 25
 201 201 l 25x90
 301 201 l 25
 301 -201 l 25
 201 -201 l 25x88
 201 201 l 25
 100 201 l 25x90
 100 301 l 25xa0
 0 301 l 25
 0 400 l 25x60
EndSplineSet
EndChar

StartChar: uni256F
Encoding: 518 9583 517
Width: 599
VWidth: 0
Flags: W
HStem: 301 100<0 104> 400 100<104 209>
VStem: 0 100<312 418> 100 100<418 521> 201 100<521 834>
LayerCount: 2
Back
Fore
SplineSet
0 400 m 25xa0
 100 400 l 25xa0
 100 500 l 25
 201 500 l 1x50
 200 800 l 29
 300 800 l 29
 301 500 l 1x48
 201 500 l 25
 201 400 l 25x50
 100 400 l 25
 100 301 l 25
 0 301 l 25
 0 400 l 25xa0
EndSplineSet
EndChar

StartChar: uni2570
Encoding: 519 9584 518
Width: 599
VWidth: 0
Flags: W
HStem: 301 100<418 625> 400 100<312 418>
VStem: 201 100<521 834> 301 100<418 521>
LayerCount: 2
Back
Fore
SplineSet
200 800 m 29x60
 300 800 l 29
 301 500 l 1x60
 400 500 l 25x50
 400 400 l 25
 600 400 l 25
 600 301 l 25
 400 301 l 25
 400 400 l 25x90
 301 400 l 25x50
 301 500 l 25
 201 500 l 1
 200 800 l 29x60
EndSplineSet
EndChar

StartChar: uni2571
Encoding: 520 9585 519
Width: 599
VWidth: 0
Flags: W
HStem: 201 100<209 312> 301 100<312 418>
VStem: 0 100<-209 0> 100 100<0 209> 201 100<209 312> 301 100<312 418> 400 100<418 625> 500 100<625 834>
LayerCount: 2
Back
Fore
SplineSet
500 800 m 1x41
 600 800 l 5
 600 600 l 1x41
 500 600 l 25
 500 400 l 25x42
 400 400 l 25
 400 301 l 25x44
 301 301 l 25
 301 201 l 25x88
 201 201 l 25
 201 0 l 25x90
 100 0 l 25
 100 -201 l 25
 0 -201 l 25
 0 0 l 25
 100 0 l 25xa0
 100 201 l 25
 201 201 l 25x90
 201 301 l 25
 301 301 l 25x88
 301 400 l 25
 400 400 l 25x44
 400 600 l 25
 500 600 l 1x42
 500 800 l 1x41
EndSplineSet
EndChar

StartChar: uni2572
Encoding: 521 9586 520
Width: 599
VWidth: 0
Flags: W
HStem: 201 100<312 418> 301 100<209 312>
VStem: 0 100<625 834> 100 100<418 625> 201 100<312 418> 301 100<209 312> 400 100<0 209> 500 100<-209 0>
LayerCount: 2
Back
Fore
SplineSet
0 800 m 1x60
 100 800 l 5
 100 600 l 1x60
 201 600 l 25
 201 400 l 25x50
 301 400 l 25x48
 301 301 l 25x88
 400 301 l 25
 400 201 l 25x84
 500 201 l 25
 500 0 l 25x82
 600 0 l 25
 600 -201 l 25
 500 -201 l 25x81
 500 0 l 25
 400 0 l 25x82
 400 201 l 25
 301 201 l 25x84
 301 301 l 25x88
 201 301 l 25x48
 201 400 l 25
 100 400 l 25x50
 100 600 l 25
 0 600 l 1
 0 800 l 1x60
EndSplineSet
EndChar

StartChar: uni2573
Encoding: 522 9587 521
Width: 599
VWidth: 0
Flags: W
HStem: -201 201<0 104 521 625> 0 201<104 209 418 521> 400 201<104 209 418 521> 600 201<0 104 521 625>
VStem: 0 100<-209 0 625 834> 100 100<0 209 418 625> 400 100<0 209 418 625> 500 100<-209 0 625 834>
LayerCount: 2
Back
Fore
SplineSet
0 800 m 1x18
 100 800 l 1x18
 100 600 l 1x28
 201 600 l 25
 201 400 l 25
 400 400 l 25
 400 600 l 25
 500 600 l 1x26
 500 800 l 1
 600 800 l 5
 600 600 l 1x11
 500 600 l 25
 500 400 l 25
 400 400 l 25
 400 201 l 25
 500 201 l 25x62
 500 0 l 25x82
 600 0 l 25
 600 -201 l 25
 500 -201 l 25x81
 500 0 l 25x82
 400 0 l 25
 400 201 l 25
 201 201 l 25
 201 0 l 25x46
 100 0 l 25
 100 -201 l 25
 0 -201 l 25
 0 0 l 25
 100 0 l 25x88
 100 201 l 25
 201 201 l 25
 201 400 l 25
 100 400 l 25x64
 100 600 l 25x68
 0 600 l 1
 0 800 l 1x18
EndSplineSet
EndChar

StartChar: uni2574
Encoding: 523 9588 522
Width: 599
VWidth: 0
Flags: W
HStem: 301 100<0 312>
VStem: 0 301<312 418>
LayerCount: 2
Back
Fore
SplineSet
0 400 m 25
 301 400 l 25
 301 301 l 25
 0 301 l 25
 0 400 l 25
EndSplineSet
EndChar

StartChar: uni2575
Encoding: 524 9589 523
Width: 599
VWidth: 0
Flags: W
VStem: 201 100<312 834>
LayerCount: 2
Back
Fore
SplineSet
200 800 m 1
 300 800 l 5
 301 301 l 1
 201 301 l 1
 200 800 l 1
EndSplineSet
EndChar

StartChar: uni2576
Encoding: 525 9590 524
Width: 599
VWidth: 0
Flags: W
HStem: 301 100<209 625>
LayerCount: 2
Back
Fore
SplineSet
201 400 m 25
 600 400 l 25
 600 301 l 25
 201 301 l 25
 201 400 l 25
EndSplineSet
EndChar

StartChar: uni2577
Encoding: 526 9591 525
Width: 599
VWidth: 0
Flags: W
VStem: 201 100<-209 418>
LayerCount: 2
Back
Fore
SplineSet
201 400 m 25
 301 400 l 25
 301 -201 l 25
 201 -201 l 25
 201 400 l 25
EndSplineSet
EndChar

StartChar: uni2578
Encoding: 527 9592 526
Width: 599
VWidth: 0
Flags: W
HStem: 201 201<0 312>
VStem: 0 301<209 418>
LayerCount: 2
Back
Fore
SplineSet
0 400 m 25
 301 400 l 25
 301 201 l 25
 0 201 l 25
 0 400 l 25
EndSplineSet
EndChar

StartChar: uni2579
Encoding: 528 9593 527
Width: 599
VWidth: 0
Flags: W
VStem: 201 201<312 834>
LayerCount: 2
Back
Fore
SplineSet
200 800 m 1
 400 800 l 5
 400 301 l 1
 201 301 l 1
 200 800 l 1
EndSplineSet
EndChar

StartChar: uni257A
Encoding: 529 9594 528
Width: 599
VWidth: 0
Flags: W
HStem: 201 201<209 625>
LayerCount: 2
Back
Fore
SplineSet
201 400 m 25
 600 400 l 25
 600 201 l 25
 201 201 l 25
 201 400 l 25
EndSplineSet
EndChar

StartChar: uni257B
Encoding: 530 9595 529
Width: 599
VWidth: 0
Flags: W
VStem: 201 201<-209 418>
LayerCount: 2
Back
Fore
SplineSet
201 400 m 25
 400 400 l 25
 400 -201 l 25
 201 -201 l 25
 201 400 l 25
EndSplineSet
EndChar

StartChar: uni257C
Encoding: 531 9596 530
Width: 599
VWidth: 0
Flags: W
HStem: 201 201<209 625> 301 100<0 209>
LayerCount: 2
Back
Fore
SplineSet
0 400 m 25x40
 600 400 l 25
 600 201 l 25
 201 201 l 25x80
 201 301 l 25
 0 301 l 25
 0 400 l 25x40
EndSplineSet
EndChar

StartChar: uni257D
Encoding: 532 9597 531
Width: 599
VWidth: 0
Flags: W
VStem: 201 201<-209 418> 201 100<418 834>
LayerCount: 2
Back
Fore
SplineSet
200 800 m 1x40
 300 800 l 5
 301 400 l 1x40
 400 400 l 25
 400 -201 l 25
 201 -201 l 1x80
 200 800 l 1x40
EndSplineSet
EndChar

StartChar: uni257E
Encoding: 533 9598 532
Width: 599
VWidth: 0
Flags: W
HStem: 201 201<0 312> 301 100<312 625>
LayerCount: 2
Back
Fore
SplineSet
0 400 m 25x80
 600 400 l 25
 600 301 l 25
 301 301 l 25x40
 301 201 l 25
 0 201 l 25
 0 400 l 25x80
EndSplineSet
EndChar

StartChar: uni257F
Encoding: 534 9599 533
Width: 599
VWidth: 0
Flags: W
VStem: 201 201<312 834> 201 100<-209 312>
LayerCount: 2
Back
Fore
SplineSet
200 800 m 1x80
 400 800 l 5
 400 301 l 1x80
 301 301 l 25
 301 -201 l 25
 201 -201 l 1x40
 200 800 l 1x80
EndSplineSet
EndChar

StartChar: block
Encoding: 535 9608 534
Width: 599
VWidth: 0
Flags: W
VStem: 0 600<-209 834>
LayerCount: 2
Back
Fore
SplineSet
0 800 m 1
 600 800 l 5
 600 -201 l 1
 0 -201 l 1
 0 800 l 1
EndSplineSet
EndChar

